<svg xmlns="http://www.w3.org/2000/svg" viewBox="0 0 178 49.19"><defs><style>.mono-white{fill:#fff}</style></defs><title>The University of Queensland, Australia</title><desc>White horizontal logo of The University of Queensland. https://www.uq.edu.au</desc><path class="mono-white" d="M91.78 47.45l-1.62-2.22a1.73 1.73 0 0 0 1.21-1.54 1.56 1.56 0 0 0-.37-1.13 3.09 3.09 0 0 0-2.38-.56h-1.55v.35h.15c.27 0 .41.17.41.52v4.34c0 .46-.22.52-.41.52h-.15v.36h2.2v-.36h-.13c-.3 0-.42-.15-.42-.52V45.4h.22l2 2.72h1.41v-.36h-.13c-.22 0-.31-.15-.44-.31zm-1.56-3.76a1.13 1.13 0 0 1-1.13 1.14h-.37v-2.16a.59.59 0 0 1 .37-.06 1.09 1.09 0 0 1 1.13 1.08zm25.87-1.31h.15c.19 0 .42.06.42.52v4.34c0 .37-.13.52-.42.52h-.15v.36h2.2v-.36h-.12c-.3 0-.43-.15-.43-.52V42.9c0-.46.25-.52.43-.52h.12V42h-2.2zM82.49 42h-4.63a.14.14 0 0 0-.13.13v1.46H78v-.09c0-.58.23-.86.61-.86h1v4.61c0 .34-.14.48-.45.48h-.12v.36h2.18v-.36h-.11c-.31 0-.43-.13-.43-.48v-4.58h1c.25 0 .55.09.6.86v.09h.33l-.07-1.46a.14.14 0 0 0-.05-.16zm-18.91.35h.25a.28.28 0 0 1 .29.31v3.45a1.43 1.43 0 0 1-1.53 1.4 1.32 1.32 0 0 1-1.26-1.47v-3.19a.48.48 0 0 1 .4-.47h.12V42h-2.14v.35h.09a.45.45 0 0 1 .4.47V46a2.14 2.14 0 0 0 2.31 2.15 2 2 0 0 0 2.23-2v-3.46c0-.14 0-.31.27-.31h.27V42h-1.7zm47.75 4c-.23.77-.61 1.12-1.23 1.12h-1.3c-.1 0-.21-.15-.21-.28v-4.3c0-.38.14-.55.44-.55h.13V42H107v.35h.13c.11 0 .42 0 .42.55v4.3c0 .48-.24.53-.42.53H107v.36h4.23l.51-1.8h-.35zm-40-2.16l-.11-.06a1.06 1.06 0 0 1-.6-.85.74.74 0 0 1 .39-.64.87.87 0 0 1 .93 0 1.58 1.58 0 0 1 .73 1.34v.1H73V42h-.33v.07a.26.26 0 0 1-.1.19.36.36 0 0 1-.29 0 1.66 1.66 0 0 0-2.07.16 1.75 1.75 0 0 0-.49 1.38 1.61 1.61 0 0 0 .74 1.2l.44.29a4.4 4.4 0 0 1 1.24 1 .83.83 0 0 1-.14 1.14.88.88 0 0 1-1 .11 1.68 1.68 0 0 1-.87-1.5V46h-.35v2.18H70v-.08a.28.28 0 0 1 .14-.21.23.23 0 0 1 .21 0 2.48 2.48 0 0 0 1.18.32 1.63 1.63 0 0 0 1-.35 1.7 1.7 0 0 0 .49-2.08 4.63 4.63 0 0 0-1.72-1.55zM102 47.31L99.81 42a.22.22 0 0 0-.15-.13.19.19 0 0 0-.19.09l-2.08 5.29c-.1.21-.26.47-.49.47h-.2v.36h1.67v-.36h-.16a.25.25 0 0 1-.21-.11.16.16 0 0 1 0-.16l.5-1.25h1.87l.51 1.25a.21.21 0 0 1 0 .18.21.21 0 0 1-.17.09h-.25v.36h2.14v-.36h-.15c-.2.04-.34-.1-.45-.41zm-1.9-1.7h-1.38L99.4 44zm28.32 2.15c-.17 0-.31-.14-.43-.45L125.8 42s0-.12-.15-.13a.19.19 0 0 0-.19.09l-2.09 5.29c-.09.21-.26.47-.49.47h-.2v.36h1.68v-.36h-.16a.27.27 0 0 1-.22-.11.15.15 0 0 1 0-.16l.5-1.25h1.86l.52 1.25a.18.18 0 0 1 0 .18.2.2 0 0 1-.17.09h-.24v.36h2.13v-.36zm-2.33-2.15h-1.39l.69-1.65zm-71.34 1.7L52.56 42a.22.22 0 0 0-.15-.13s-.11 0-.19.09l-2.08 5.29c-.1.21-.26.47-.49.47h-.2v.36h1.68v-.36H51a.25.25 0 0 1-.21-.11.18.18 0 0 1 0-.16l.51-1.25h1.8l.51 1.25a.21.21 0 0 1 0 .18.21.21 0 0 1-.17.09h-.25v.36h2.14v-.36h-.15c-.18.04-.32-.1-.45-.41zm-1.9-1.7h-1.38l.68-1.61zm93.91-37.75l.71.46a8.82 8.82 0 0 1 2.24 1.68 1.43 1.43 0 0 1-.33 2.1 1.56 1.56 0 0 1-1.8.22A3 3 0 0 1 146 9.69v-.14h-.56v3.8h.56v-.1a.62.62 0 0 1 .31-.41.35.35 0 0 1 .34 0 4.11 4.11 0 0 0 2 .55 2.95 2.95 0 0 0 2.7-4.24c-.58-1.16-2-2-3.37-2.75A1.85 1.85 0 0 1 147 5a1.41 1.41 0 0 1 .66-1.2 1.6 1.6 0 0 1 1.69.09 2.73 2.73 0 0 1 1.28 2.35v.14h.52V2.71h-.5v.12a.39.39 0 0 1-.15.3.72.72 0 0 1-.58-.08c-1.49-.71-2.62-.61-3.58.31a3 3 0 0 0-.87 2.39 2.79 2.79 0 0 0 1.33 2.11m-12.94 2.43h-.58v.1c-.39 1.32-1.07 1.91-2.17 1.91h-2.48a.36.36 0 0 1-.36-.37V8.25h2.69c.46 0 .59.53.59.84v.2h.45V6.14h-.56v.21c0 .32-.16.83-.59.83h-2.65V3.7h2.92c.7 0 1.19.6 1.24 1.53v.14h.53l-.21-2.66h-7.34v.57h.2c.52 0 .75.29.75.94v7.62c0 .66-.22.94-.75.94h-.2v.57h7.54zm23.44 2.49h-.2c-.53 0-.77-.29-.77-.94V4.22c0-.64.24-.94.77-.94h.2v-.57h-3.82v.57h.24c.52 0 .75.29.75.94v7.62c0 .66-.23.94-.75.94h-.24v.57h3.82zm-93.46 0h-.2c-.51 0-.74-.29-.74-.94V8.43h3.92v3.41c0 .66-.23.94-.78.94h-.2v.57h3.84v-.57h-.28c-.53 0-.75-.28-.75-.94V4.22c0-.65.23-.94.75-.94h.24v-.57H65.8v.57h.2c.53 0 .78.3.78.94V7.4h-3.92V4.22c0-.63.24-.94.74-.94h.2v-.57H60v.57h.2c.54 0 .75.27.75.94v7.62c0 .69-.2.94-.75.94H60v.57h3.8zm15.81-2.49H79v.1c-.37 1.32-1 1.91-2.18 1.91h-2.47a.36.36 0 0 1-.36-.37V8.25h2.71c.39 0 .57.43.57.84v.2h.56V6.14h-.56v.21c0 .35-.18.83-.57.83H74V3.7h2.92c.71 0 1.19.58 1.24 1.53v.14h.52l-.18-2.66h-7.36v.57h.2c.53 0 .77.3.77.94v7.62c0 .65-.24.94-.77.94h-.2v.57h7.56zm89.71-6.23l3 4.81v3c0 .68-.23 1-.78 1h-.19v.57h3.86v-.64H175c-.57 0-.79-.25-.79-.92V8.8l2.66-4.8a1.25 1.25 0 0 1 1-.72h.13v-.57h-2.69v.59h.39a.22.22 0 0 1 .18.15.32.32 0 0 1 0 .33l-2.14 3.84-2.34-3.77a.39.39 0 0 1 0-.39.3.3 0 0 1 .24-.16h.36v-.59h-3.76v.59h.14c.25 0 .57.09.92.76M99 3.54c.13.15.23.28.34.42l.28.34v7.85a.65.65 0 0 1-.73.61h-.24v.59h3v-.59h-.2c-.38 0-.77-.21-.77-.61V5.68L107 13.3h.41V3.92a.68.68 0 0 1 .75-.64h.2v-.57h-3v.57h.22a.66.66 0 0 1 .73.64v5.52l-5.51-6.73h-2.7v.57h.13c.39 0 .62 0 .79.26m16.45.52l3.75 9.14a.38.38 0 0 0 .3.15.29.29 0 0 0 .25-.17l3.41-9.1c.27-.6.48-.83.78-.83h.14v-.54h-2.5v.57h.29a.39.39 0 0 1 .3.17.38.38 0 0 1 0 .33l-2.31 6.06-2.48-6.06a.33.33 0 0 1 0-.33.36.36 0 0 1 .27-.17h.47v-.57h-3.62v.57h.14c.31 0 .54.24.78.78M86.22 1.75v7.08c0 2.76 2.07 4.7 5 4.7s4.9-1.85 4.9-4.53V1.45c0-.53.23-.77.71-.77h.55V0h-3.84v.68h.61c.44 0 .69.27.69.77V9a3.17 3.17 0 0 1-3.41 3.16c-1.7 0-2.89-1.36-2.89-3.31v-7.1a1 1 0 0 1 1-1.07h.3V0H85v.68h.28a1 1 0 0 1 1 1.07m27.13 11h-.18c-.53 0-.77-.29-.77-.94V4.22c0-.64.25-.94.77-.94h.18v-.57h-3.78v.57h.18c.56 0 .81.29.81.94v7.62c0 .66-.24.94-.81.94h-.18v.57h3.78zm53.82-10.04h-8.12a.23.23 0 0 0-.2.21l-.09 2.53h.5v-.13c.06-1 .42-1.54 1.1-1.54h1.84v8.13c0 .61-.24.87-.81.87h-.18v.57h3.78v-.57h-.18c-.55 0-.77-.24-.77-.87V3.78h1.83c.42 0 1 .16 1.07 1.54v.13h.52l-.11-2.53a.22.22 0 0 0-.2-.21M137.8 3.79a1.35 1.35 0 0 1 .69-.11 2 2 0 0 1 2 1.93 2 2 0 0 1-2 2h-.69zm1 9h-.2c-.53 0-.77-.29-.77-.94V8.58h.43l3.45 4.77h2.43v-.57h-.2c-.28 0-.49-.27-.73-.56l-2.86-3.93a3 3 0 0 0 2.14-2.68 2.64 2.64 0 0 0-.72-2c-.74-.74-2.08-1-4.08-.93H135v.57h.24c.5 0 .75.31.75 1v7.61c0 .65-.23.94-.75.94H135v.57h3.82zm-69.72 9.63h-7.79V23h.2c.53 0 .77.3.77 1v7.6c0 .65-.24.94-.77.94h-.2v.55h3.82v-.55h-.24c-.52 0-.75-.27-.75-.92V28h2.73c.54 0 .56.71.56.85V29H68v-3.15h-.55v.21c0 .14 0 .83-.56.83h-2.77v-3.47h3.39c.69 0 1.19.62 1.25 1.54v.14h.51zM99 32.51h-.2v.55h7.56l.89-3.07h-.56v.1c-.4 1.34-1.07 1.94-2.17 1.94H102a.39.39 0 0 1-.4-.4V28h2.73c.37 0 .59.43.59.85V29h.52v-3.16h-.52v.21c0 .41-.21.84-.59.84h-2.73v-3.47h2.92c.74 0 1.23.59 1.26 1.53v.14h.5l-.18-2.67h-7.31V23H99c.54 0 .77.29.77 1v7.62c0 .65-.23.94-.77.94M124.4 23h.2a.71.71 0 0 1 .77.63v5.54l-5.51-6.69h-2.76V23h.14c.42 0 .64.07.76.25l.15.17c.17.19.31.35.52.61v7.83a.68.68 0 0 1-.75.64h-.22v.57h3v-.57h-.2a.67.67 0 0 1-.75-.64v-6.48L126 33v.05h.41v-9.43a.67.67 0 0 1 .73-.63h.21v-.57h-3zm20 7v.1c-.4 1.37-1.07 2-2.17 2h-2.29c-.19 0-.38-.26-.38-.51V24c0-.68.25-1 .79-1h.2v-.57h-3.82V23h.22c.5 0 .75.32.75 1v7.55c0 .86-.43 1-.75 1h-.22v.57h7.39L145 30zm31.84-2.24c0 2.79-1.56 4.39-4.26 4.39a2.86 2.86 0 0 1-.83-.1v-8.67a1.36 1.36 0 0 1 .81-.1 3.9 3.9 0 0 1 3.24 1.23 5.07 5.07 0 0 1 1 3.2m.51-3.66a5.86 5.86 0 0 0-4.71-1.63h-3.88V23h.22c.32 0 .75.11.75 1v7.55c0 .66-.23 1-.75 1h-.22v.57h4.7a5.21 5.21 0 0 0 5.2-5.32 5.36 5.36 0 0 0-1.26-3.69m-27.95 4.66l1.24-3 1.23 3zm5.75 3l-3.8-9.25a.4.4 0 0 0-.25-.23.34.34 0 0 0-.32.15l-3.65 9.28c-.17.39-.46.85-.88.85h-.33v.57h2.89v-.57h-.26a.5.5 0 0 1-.39-.21.35.35 0 0 1 0-.3l.9-2.22h3.3l.91 2.21a.37.37 0 0 1 0 .34.4.4 0 0 1-.32.18h-.4v.57h3.7v-.57h-.25c-.3 0-.56-.26-.78-.8m9.12-8.7h.13a.71.71 0 0 1 .77.63v5.54l-5.49-6.69h-2.71V23h.13c.41 0 .62.07.75.25l.15.17.51.61v7.83a.68.68 0 0 1-.75.64h-.2v.57h3v-.57h-.18a.68.68 0 0 1-.77-.64v-6.48l6.07 7.62v.05h.41v-9.43a.67.67 0 0 1 .73-.63h.24v-.57h-2.93zM116 30.09c-.38 1.36-1 1.91-2.15 1.91h-2.48a.37.37 0 0 1-.36-.4V28h2.69c.41 0 .63.43.63.85V29h.52v-3.16h-.52v.21c0 .41-.2.84-.63.84H111v-3.47h2.92c.71 0 1.19.59 1.24 1.54v.13h.5l-.18-2.67h-7.32V23h.18c.52 0 .77.31.77 1v7.62c0 .64-.24.94-.77.94h-.18v.55h7.52l.93-3.07h-.57zm-39-3.71c0-2.23.51-3.85 1.48-4.82a3 3 0 0 1 2-.9c1.78 0 3.58 1.77 3.58 5.72 0 2.84-1.09 5.71-3.53 5.71-2.16 0-3.55-2.24-3.55-5.71m9.51 9.71h.13v-.63h-.12a4.71 4.71 0 0 1-3.84-2.64c2.42-.9 3.92-3.32 3.92-6.35-.07-5.45-4-6.9-6.1-6.9-3.49 0-6 2.89-6 6.81 0 3.42 1.94 6.11 4.81 6.71a9.49 9.49 0 0 0 7.23 3m10.1-6.48v-6.05c0-.37.18-.57.5-.57h.45v-.57h-3V23H95a.51.51 0 0 1 .54.57v6.05a2.53 2.53 0 0 1-2.71 2.49 2.34 2.34 0 0 1-2.23-2.62v-5.65a.83.83 0 0 1 .71-.85h.2v-.57h-3.69v.57H88a.82.82 0 0 1 .73.85v5.58a3.73 3.73 0 0 0 4 3.74c2.33 0 3.89-1.42 3.89-3.55m-42.68 2.48a2.74 2.74 0 0 1-2-.88 7 7 0 0 1-1.53-4.84c0-1.3.24-5.54 3.54-5.72 1.3.08 3.49.9 3.56 5.62 0 3.48-1.43 5.81-3.55 5.81m0-12.52a5.82 5.82 0 0 0-4 1.56 7.42 7.42 0 0 0-2 5.25c0 3.93 2.53 6.78 6 6.78s6-2.85 6-6.78-2.48-6.75-6-6.81m80.83 9.37c-.56-1.14-2-2-3.17-2.65l-.2-.12a1.87 1.87 0 0 1-1.06-1.51 1.35 1.35 0 0 1 .69-1.15 1.54 1.54 0 0 1 1.65 0A2.79 2.79 0 0 1 134 26v.14h.56v-3.72H134v.11a.48.48 0 0 1-.19.34.63.63 0 0 1-.53-.07 2.89 2.89 0 0 0-3.61.29 3 3 0 0 0-.85 2.4 2.88 2.88 0 0 0 1.34 2.12l.76.48a8 8 0 0 1 2.19 1.7 1.47 1.47 0 0 1-.32 2.1 1.58 1.58 0 0 1-1.82.19 2.92 2.92 0 0 1-1.54-2.64v-.14h-.57v3.76h.54v-.09a.56.56 0 0 1 .27-.4.38.38 0 0 1 .38 0 4.45 4.45 0 0 0 2.06.55 2.84 2.84 0 0 0 1.82-.61 2.94 2.94 0 0 0 .84-3.57zM58.51.25c0-.11-.1-.25-.21-.25h-10a.26.26 0 0 0-.3.25l-.13 3.27h.58v-.14c0-.93.32-2 1.45-2h2.16V11.6a1.07 1.07 0 0 1-1 1.1h-.69v.65H56v-.65h-.6a1.07 1.07 0 0 1-1-1.1V1.33h2.2c1.13 0 1.41 1.12 1.46 2.05v.14h.59zM38.41 1v24.48c0 9.44-7.82 19.07-18.7 22.64C8.79 44.55 1 34.92 1 25.48V1h37.41m1-1H0v25.48c0 10 8.17 19.94 19.42 23.62l.29.09.29-.09c11.23-3.68 19.38-13.62 19.38-23.62V0zM9.88 17.77c-.2 0-.39.22-.46.51h.92c-.07-.28-.26-.51-.46-.51zm0 1.54c.2 0 .39-.22.46-.51h-.92c.07.29.26.51.46.51zm0 4.38c.2 0 .39-.22.46-.51h-.92c.07.29.26.51.46.51zm0-1.54c-.2 0-.39.22-.46.51h.92c-.07-.29-.26-.51-.46-.51zm24.4-13.77c-1.36 3-3.48 5-8.35 5.78.78-5.16 2.63-7.36 5.49-8.79H8c2.82 1.43 4.68 3.63 5.45 8.79-4.87-.81-7-2.77-8.35-5.78v24.7c1.36-3 3.48-5 8.35-5.78-.77 5.13-2.63 7.36-5.49 8.79h23.46c-2.86-1.43-4.71-3.66-5.49-8.79 4.87.81 7 2.76 8.35 5.78V8.38zm-14.1 8c0-.76.75-1.22 1.73-1.22 1.46 0 2.24.5 3.05.33v8.21h-2.54a4.13 4.13 0 0 0-2.24.41zm-5.76-.91c.81.16 1.59-.34 3-.34 1 0 1.73.46 1.73 1.22v7.73a4.13 4.13 0 0 0-2.15-.36h-2.58zm14.85 6.63a.77.77 0 0 1 0 1.54h-2.36v2h-4.49a2.45 2.45 0 0 0-1.49.26 3.13 3.13 0 0 1-1.24.33 3.06 3.06 0 0 1-1.24-.34 2.53 2.53 0 0 0-1.45-.2h-4.53v-2h-1.81a.92.92 0 0 1-.78.51 1.09 1.09 0 0 1-1-1h-.22a.26.26 0 0 1 0-.52h.26a1.1 1.1 0 0 1 1-1 .93.93 0 0 1 .78.52h1.81v-2.89h-1.85a.92.92 0 0 1-.78.51 1.09 1.09 0 0 1-1-1h-.22a.26.26 0 0 1 0-.52h.26a1.1 1.1 0 0 1 1-1 .93.93 0 0 1 .78.52h1.81v-1.51l1-.58v8.93H17a3.2 3.2 0 0 1 1.87.34 2.25 2.25 0 0 0 .86.25 2.2 2.2 0 0 0 .86-.25 3.21 3.21 0 0 1 1.87-.34h3.52v-8.81l1 .46v1.46h2.36a.77.77 0 0 1 0 1.54h-2.43v2.84z"/></svg>