<svg xmlns="http://www.w3.org/2000/svg" xmlns:xlink="http://www.w3.org/1999/xlink" width="600" height="400" viewBox="0 0 450 300"><defs><symbol overflow="visible" id="c"><path d="M3.172-6.64c-.5 0-.883.25-1.14.75-.25.5-.376 1.25-.376 2.25s.125 1.75.375 2.25c.258.5.64.75 1.14.75.52 0 .907-.25 1.157-.75.258-.5.39-1.25.39-2.25s-.132-1.75-.39-2.25c-.25-.5-.637-.75-1.156-.75zm0-.782c.82 0 1.445.324 1.875.969.437.648.656 1.586.656 2.812 0 1.23-.219 2.168-.656 2.813-.43.648-1.055.969-1.875.969-.813 0-1.438-.32-1.875-.97-.43-.644-.64-1.581-.64-2.812 0-1.226.21-2.164.64-2.812.437-.645 1.062-.969 1.875-.969zm0 0"/></symbol><symbol overflow="visible" id="d"><path d="M1.063-1.234h1.03V0h-1.03zm0 0"/></symbol><symbol overflow="visible" id="e"><path d="M1.078-7.297h3.875v.844H1.984v1.781c.145-.05.286-.086.422-.11.145-.019.29-.03.438-.03.812 0 1.453.226 1.922.671.476.438.718 1.04.718 1.797 0 .793-.246 1.406-.734 1.844-.48.43-1.168.64-2.063.64A5.99 5.99 0 0 1 1.75.063a8.095 8.095 0 0 1-.984-.234v-.984c.3.156.609.277.921.36.313.073.641.109.985.109.562 0 1.004-.145 1.328-.438.332-.3.5-.707.5-1.219 0-.5-.168-.894-.5-1.187-.324-.301-.766-.453-1.328-.453a3.52 3.52 0 0 0-.797.093 3.67 3.67 0 0 0-.797.266zm0 0"/></symbol><symbol overflow="visible" id="f"><path d="M1.234-.828H2.86v-5.563l-1.765.344v-.89l1.75-.36h.984v6.469h1.61V0H1.234zm0 0"/></symbol><symbol overflow="visible" id="g"><path d="M1.922-.828h3.437V0H.734v-.828c.375-.383.883-.906 1.532-1.563a52.138 52.138 0 0 0 1.218-1.265c.313-.352.532-.649.657-.89.125-.25.187-.493.187-.735 0-.383-.137-.696-.406-.938-.274-.25-.625-.375-1.063-.375-.312 0-.64.059-.984.172-.336.106-.7.266-1.094.484v-1a8.838 8.838 0 0 1 1.11-.359c.343-.082.66-.125.953-.125.75 0 1.347.188 1.797.563.457.375.687.882.687 1.515 0 .305-.058.59-.172.86-.117.261-.32.574-.61.937-.085.094-.343.371-.78.828-.438.45-1.055 1.078-1.844 1.89zm0 0"/></symbol><symbol overflow="visible" id="h"><path d="M4.063-3.938c.468.106.832.32 1.093.641.27.313.407.703.407 1.172 0 .719-.25 1.277-.75 1.672-.493.398-1.196.594-2.11.594a4.89 4.89 0 0 1-.937-.094 7.464 7.464 0 0 1-1-.266v-.953c.27.156.566.277.89.36.332.085.676.125 1.032.125.613 0 1.082-.118 1.406-.36.32-.25.484-.61.484-1.078 0-.426-.152-.758-.453-1-.305-.238-.719-.36-1.25-.36h-.86v-.812h.891c.489 0 .86-.098 1.11-.297.257-.195.39-.476.39-.843 0-.364-.136-.645-.406-.844-.262-.207-.637-.313-1.125-.313-.273 0-.563.032-.875.094-.313.055-.652.14-1.016.266v-.875c.375-.102.723-.18 1.047-.235.332-.05.64-.078.922-.078.75 0 1.344.172 1.781.516.438.336.657.793.657 1.375 0 .406-.118.75-.344 1.031-.23.273-.559.46-.984.563zm0 0"/></symbol><symbol overflow="visible" id="i"><path d="M3.781-6.438L1.297-2.546H3.78zm-.265-.859h1.25v4.75h1.03v.828h-1.03V0H3.78v-1.719H.484v-.953zm0 0"/></symbol><symbol overflow="visible" id="j"><path d="M3.297-4.031c-.438 0-.79.152-1.047.453-.262.305-.39.715-.39 1.234 0 .531.128.95.39 1.25.258.305.61.453 1.047.453.445 0 .797-.148 1.047-.453.258-.3.39-.718.39-1.25 0-.52-.132-.93-.39-1.234-.25-.3-.602-.453-1.047-.453zm1.969-3.094v.89A4.341 4.341 0 0 0 4.5-6.5a3.03 3.03 0 0 0-.734-.094c-.657 0-1.157.219-1.5.657-.344.437-.54 1.105-.579 2 .188-.282.426-.493.72-.641.288-.156.609-.234.952-.234.727 0 1.305.226 1.735.671.426.438.64 1.04.64 1.797 0 .75-.226 1.356-.671 1.813-.438.449-1.028.672-1.766.672-.844 0-1.492-.32-1.938-.97C.922-1.472.703-2.41.703-3.64c0-1.144.27-2.062.813-2.75.55-.687 1.285-1.03 2.203-1.03.25 0 .5.026.75.077.25.043.515.117.797.219zm0 0"/></symbol><symbol overflow="visible" id="k"><path d="M3.172-3.469c-.469 0-.84.133-1.11.39-.261.25-.39.595-.39 1.032 0 .438.129.781.39 1.031.27.25.641.375 1.11.375.469 0 .836-.125 1.11-.375.269-.25.405-.593.405-1.03 0-.438-.136-.782-.406-1.032-.261-.258-.633-.39-1.11-.39zm-.985-.406c-.417-.102-.746-.3-.984-.594-.242-.289-.36-.644-.36-1.062 0-.582.208-1.04.626-1.375.414-.344.984-.516 1.703-.516.726 0 1.3.172 1.719.516.414.336.625.793.625 1.375 0 .418-.121.773-.36 1.062-.242.293-.57.492-.984.594.476.105.848.32 1.11.64.257.325.39.72.39 1.188 0 .711-.215 1.25-.64 1.625-.43.375-1.048.563-1.86.563-.805 0-1.422-.188-1.86-.563-.43-.375-.64-.914-.64-1.625 0-.469.133-.863.406-1.187.27-.32.64-.536 1.11-.641zm-.359-1.563c0 .375.117.672.36.891.238.211.566.313.984.313.426 0 .758-.102 1-.313.238-.219.36-.516.36-.89 0-.375-.122-.665-.36-.875-.242-.22-.574-.329-1-.329-.418 0-.746.11-.985.329-.242.21-.359.5-.359.875zm0 0"/></symbol><symbol overflow="visible" id="l"><path d="M.984-7.297h1.329l3.234 6.11v-6.11H6.5V0H5.172L1.938-6.094V0H.984zm0 0"/></symbol><symbol overflow="visible" id="m"><path d="M.844-2.156V-5.47h.906v3.282c0 .511.098.898.297 1.156.207.261.508.39.906.39.488 0 .875-.148 1.156-.453.282-.312.422-.738.422-1.281v-3.094h.907V0H4.53v-.844a2.253 2.253 0 0 1-.765.75c-.282.157-.618.235-1 .235-.625 0-1.106-.192-1.438-.579-.324-.394-.484-.968-.484-1.718zm2.265-3.438zm0 0"/></symbol><symbol overflow="visible" id="n"><path d="M5.203-4.422c.219-.406.484-.703.797-.89.313-.188.68-.282 1.11-.282.57 0 1.007.2 1.312.594.312.398.469.965.469 1.703V0h-.907v-3.266c0-.53-.093-.921-.28-1.171-.18-.25-.462-.375-.845-.375-.468 0-.84.156-1.109.468-.262.305-.39.719-.39 1.25V0h-.907v-3.266c0-.53-.094-.921-.281-1.171-.188-.25-.477-.375-.86-.375-.46 0-.824.156-1.093.468-.274.305-.406.719-.406 1.25V0H.905v-5.469h.906v.844c.208-.332.454-.578.735-.734.289-.157.629-.235 1.015-.235.407 0 .743.102 1.016.297.281.2.488.492.625.875zm0 0"/></symbol><symbol overflow="visible" id="o"><path d="M4.875-2.734c0-.657-.14-1.172-.422-1.547a1.299 1.299 0 0 0-1.11-.563c-.48 0-.855.188-1.124.563-.274.375-.406.89-.406 1.547 0 .668.132 1.187.406 1.562.27.375.644.563 1.125.563.469 0 .836-.188 1.11-.563.28-.375.421-.894.421-1.562zM1.812-4.641c.188-.32.422-.562.704-.718.289-.157.64-.235 1.046-.235.665 0 1.204.266 1.61.797.414.524.625 1.211.625 2.063 0 .867-.211 1.562-.625 2.093-.406.524-.945.782-1.61.782-.406 0-.757-.078-1.046-.235C2.234-.25 2-.492 1.812-.828V0H.906v-7.594h.906zm0 0"/></symbol><symbol overflow="visible" id="p"><path d="M5.625-2.953v.437h-4.14c.038.618.226 1.086.562 1.407.332.324.797.484 1.39.484.344 0 .676-.04 1-.125.333-.082.657-.207.97-.375v.844A5.3 5.3 0 0 1 3.39.14c-.875 0-1.57-.25-2.079-.75C.801-1.117.547-1.813.547-2.688c0-.894.238-1.601.719-2.124.488-.52 1.144-.782 1.968-.782.739 0 1.32.235 1.75.703.426.47.641 1.118.641 1.938zm-.906-.266c0-.488-.137-.879-.407-1.172-.273-.3-.625-.453-1.062-.453-.512 0-.918.149-1.219.438-.293.281-.465.68-.515 1.187zm0 0"/></symbol><symbol overflow="visible" id="q"><path d="M4.11-4.625a1.053 1.053 0 0 0-.329-.125 1.508 1.508 0 0 0-.39-.047c-.512 0-.903.168-1.172.5-.274.324-.406.797-.406 1.422V0H.905v-5.469h.906v.844c.188-.332.43-.578.735-.734.3-.157.672-.235 1.11-.235.062 0 .128.008.202.016.07 0 .157.012.25.031zm0 0"/></symbol><symbol overflow="visible" id="s"><path d="M3.063-4.844c-.481 0-.86.188-1.141.563-.281.375-.422.89-.422 1.547 0 .656.133 1.171.406 1.546.282.375.664.563 1.157.563.476 0 .859-.188 1.14-.563.281-.375.422-.89.422-1.546 0-.645-.14-1.157-.422-1.532a1.349 1.349 0 0 0-1.14-.578zm0-.75c.78 0 1.394.258 1.843.766.446.5.672 1.2.672 2.094 0 .898-.226 1.601-.672 2.109-.449.512-1.062.766-1.843.766-.782 0-1.399-.254-1.844-.766-.45-.508-.672-1.21-.672-2.11 0-.894.223-1.593.672-2.093.445-.508 1.062-.766 1.843-.766zm0 0"/></symbol><symbol overflow="visible" id="t"><path d="M3.719-7.594v.75h-.86c-.324 0-.546.07-.671.203-.126.125-.188.356-.188.688v.484h1.469v.703H2V0h-.906v-4.766h-.86v-.703h.86v-.375c0-.613.14-1.054.422-1.328.28-.281.726-.422 1.343-.422zm0 0"/></symbol><symbol overflow="visible" id="u"><path d="M4.875-5.266v.844a3.995 3.995 0 0 0-.766-.312c-.25-.07-.507-.11-.765-.11-.586 0-1.04.188-1.36.563-.324.367-.484.883-.484 1.547 0 .668.16 1.187.484 1.562.32.367.774.547 1.36.547.258 0 .515-.031.765-.094.258-.07.516-.18.766-.328v.844c-.25.117-.512.2-.781.25A3.626 3.626 0 0 1 3.25.14c-.836 0-1.496-.254-1.984-.766-.48-.52-.72-1.223-.72-2.11 0-.882.243-1.581.735-2.093.489-.508 1.16-.766 2.016-.766.281 0 .55.028.812.078.258.055.516.137.766.25zm0 0"/></symbol><symbol overflow="visible" id="v"><path d="M5.484-3.297V0h-.89v-3.266c0-.52-.106-.906-.313-1.156-.199-.258-.5-.39-.906-.39-.48 0-.86.156-1.14.468-.282.305-.422.719-.422 1.25V0H.905v-7.594h.906v2.969c.22-.32.473-.563.766-.719a2 2 0 0 1 1-.25c.625 0 1.098.196 1.422.578.32.387.484.961.484 1.72zm0 0"/></symbol><symbol overflow="visible" id="w"><path d="M3.422-2.75c-.719 0-1.219.086-1.5.25-.281.168-.422.45-.422.844 0 .324.102.578.313.765.207.188.492.282.859.282.5 0 .898-.176 1.203-.532.3-.351.453-.82.453-1.406v-.203zm1.797-.375V0h-.89v-.828c-.212.336-.47.578-.782.734-.305.157-.672.235-1.11.235-.562 0-1.011-.157-1.343-.47-.336-.312-.5-.734-.5-1.265 0-.613.207-1.078.625-1.39.414-.313 1.031-.47 1.843-.47h1.266v-.093c0-.406-.14-.723-.422-.953-.273-.227-.652-.344-1.14-.344-.313 0-.621.043-.922.125A3.704 3.704 0 0 0 1-4.39v-.828c.332-.125.648-.218.953-.281.313-.063.613-.094.906-.094.79 0 1.38.203 1.766.61.395.406.594 1.027.594 1.859zm0 0"/></symbol><symbol overflow="visible" id="x"><path d="M5.484-3.297V0h-.89v-3.266c0-.52-.106-.906-.313-1.156-.199-.258-.5-.39-.906-.39-.48 0-.86.156-1.14.468-.282.305-.422.719-.422 1.25V0H.905v-5.469h.906v.844c.22-.32.473-.563.766-.719a2 2 0 0 1 1-.25c.625 0 1.098.196 1.422.578.32.387.484.961.484 1.72zm0 0"/></symbol><symbol overflow="visible" id="y"><path d="M4.547-2.797c0-.656-.137-1.16-.406-1.515-.274-.352-.649-.532-1.125-.532-.493 0-.871.18-1.141.532-.262.355-.39.859-.39 1.515 0 .649.128 1.152.39 1.516.27.355.648.531 1.14.531.477 0 .852-.176 1.126-.531.27-.364.406-.867.406-1.516zm.89 2.125c0 .926-.21 1.613-.625 2.063-.406.457-1.039.687-1.89.687-.313 0-.61-.027-.89-.078a4.265 4.265 0 0 1-.813-.203V.922c.258.144.515.25.765.312.258.07.524.11.797.11.582 0 1.02-.157 1.313-.469.3-.305.453-.766.453-1.39V-.97a1.94 1.94 0 0 1-.719.735C3.535-.078 3.188 0 2.781 0c-.668 0-1.21-.254-1.625-.766-.406-.507-.61-1.187-.61-2.03 0-.845.204-1.52.61-2.032.414-.508.957-.766 1.625-.766.406 0 .754.078 1.047.235.29.156.531.398.719.718v-.828h.89zm0 0"/></symbol><symbol overflow="visible" id="z"><path d="M1.813-.828v2.906H.905v-7.547h.906v.828c.188-.32.422-.562.704-.718.289-.157.64-.235 1.046-.235.665 0 1.204.266 1.61.797.414.524.625 1.211.625 2.063 0 .867-.211 1.562-.625 2.093-.406.524-.945.782-1.61.782-.406 0-.757-.078-1.046-.235C2.234-.25 2-.492 1.812-.828zm3.062-1.906c0-.657-.14-1.172-.422-1.547a1.299 1.299 0 0 0-1.11-.563c-.48 0-.855.188-1.124.563-.274.375-.406.89-.406 1.547 0 .668.132 1.187.406 1.562.27.375.644.563 1.125.563.469 0 .836-.188 1.11-.563.28-.375.421-.894.421-1.562zm0 0"/></symbol><symbol overflow="visible" id="A"><path d="M.938-5.469h.906V0H.937zm0-2.125h.906v1.14H.937zm0 0"/></symbol><symbol overflow="visible" id="B"><path d="M1.828-7.016v1.547h1.86v.703h-1.86v2.97c0 .437.063.726.188.859.125.125.375.187.75.187h.921V0h-.921c-.7 0-1.184-.129-1.454-.39-.261-.258-.39-.727-.39-1.407v-2.969H.266v-.703h.656v-1.547zm0 0"/></symbol><symbol overflow="visible" id="C"><path d="M4.422-5.313v.86a3.218 3.218 0 0 0-.781-.297 3.838 3.838 0 0 0-.86-.094c-.437 0-.773.07-1 .203a.673.673 0 0 0-.328.61c0 .21.078.375.234.5.157.117.477.226.97.328l.296.078c.645.137 1.098.328 1.36.578.269.25.406.594.406 1.031 0 .512-.203.918-.61 1.22-.398.292-.945.437-1.64.437A4.89 4.89 0 0 1 1.53.047a6.07 6.07 0 0 1-.984-.25v-.922c.332.168.656.297.969.39.32.087.644.126.968.126.414 0 .739-.07.97-.22a.688.688 0 0 0 .343-.609c0-.25-.086-.437-.25-.562-.156-.133-.516-.258-1.078-.375l-.313-.078c-.554-.113-.953-.29-1.203-.531-.25-.25-.375-.582-.375-1 0-.52.18-.914.547-1.188.363-.281.883-.422 1.563-.422.32 0 .628.028.921.078.301.043.57.11.813.204zm0 0"/></symbol><clipPath id="a"><path d="M40.734 16H434.52v240.719H40.734zm0 0"/></clipPath><clipPath id="b"><path d="M40.734 15.82H434.52V256.72H40.734zm0 0"/></clipPath></defs><path d="M40.734 15.82V256.72M119.488 15.82V256.72M198.246 15.82V256.72M277.004 15.82V256.72M355.762 15.82V256.72M434.52 15.82V256.72M40.734 256.719H434.52M40.734 216.57H434.52M40.734 176.418H434.52M40.734 136.27H434.52M40.734 96.121H434.52M40.734 55.969H434.52M40.734 15.82H434.52" fill="none" stroke="#d1d1d1" stroke-miterlimit="10" stroke-dasharray="5,5"/><g clip-path="url(#a)"><path d="M40.734 256.719H80.11v-43.38h39.38V63h39.378V16.062h39.38v52.614h39.378v100.043h39.379v51.136h39.379v26.098h39.379v9.399h39.379v1.168h39.379v.199" fill="#7f7fff"/></g><g clip-path="url(#b)"><path d="M40.734 256.719H80.11v-43.38h39.38V63h39.378V16.062h39.38v52.614h39.378v100.043h39.379v51.136h39.379v26.098h39.379v9.399h39.379v1.168h39.379v.199" fill="none" stroke="#00f" stroke-miterlimit="10"/></g><path d="M40.734 256.719V15.82" fill="none" stroke="#000" stroke-linecap="square" stroke-miterlimit="10"/><path d="M40.734 256.719h2M40.734 252.703h2M40.734 248.688h2M40.734 244.672h2M40.734 240.66h2M40.734 236.645h2M40.734 232.629h2M40.734 228.613h2M40.734 224.598h2M40.734 220.586h2M40.734 216.57h2M40.734 212.555h2M40.734 208.54h2M40.734 204.523h2M40.734 200.508h2M40.734 196.492h2M40.734 192.48h2M40.734 188.465h2M40.734 184.45h2M40.734 180.434h2M40.734 176.418h2M40.734 172.406h2M40.734 168.39h2M40.734 164.375h2M40.734 160.36h2M40.734 156.344h2M40.734 152.328h2M40.734 148.313h2M40.734 144.3h2M40.734 140.285h2M40.734 136.27h2M40.734 132.254h2M40.734 128.238h2M40.734 124.223h2M40.734 120.21h2M40.734 116.195h2M40.734 112.18h2M40.734 108.164h2M40.734 104.148h2M40.734 100.133h2M40.734 96.121h2M40.734 92.105h2M40.734 88.09h2M40.734 84.074h2M40.734 80.059h2M40.734 76.047h2M40.734 72.031h2M40.734 68.016h2M40.734 64h2M40.734 59.984h2M40.734 55.969h2M40.734 51.953h2M40.734 47.941h2M40.734 43.926h2M40.734 39.91h2M40.734 35.895h2M40.734 31.879h2M40.734 27.867h2M40.734 23.852h2M40.734 19.836h2M40.734 15.82h2M40.734 256.719h5M40.734 216.57h5M40.734 176.418h5M40.734 136.27h5M40.734 96.121h5M40.734 55.969h5M40.734 15.82h5" fill="none" stroke="#000" stroke-miterlimit="10"/><use height="100%" width="100%" y="260.43" x="25.695" xlink:href="#c"/><use height="100%" width="100%" y="220.281" x="10" xlink:href="#c"/><use height="100%" width="100%" y="220.281" x="16.362" xlink:href="#d"/><use height="100%" width="100%" y="220.281" x="19.541" xlink:href="#c"/><use height="100%" width="100%" y="220.281" x="25.903" xlink:href="#e"/><use height="100%" width="100%" y="180.129" x="16.41" xlink:href="#c"/><use height="100%" width="100%" y="180.129" x="22.772" xlink:href="#d"/><use height="100%" width="100%" y="180.129" x="25.951" xlink:href="#f"/><use height="100%" width="100%" y="139.98" x="10" xlink:href="#c"/><use height="100%" width="100%" y="139.98" x="16.362" xlink:href="#d"/><use height="100%" width="100%" y="139.98" x="19.541" xlink:href="#f"/><use height="100%" width="100%" y="139.98" x="25.903" xlink:href="#e"/><use height="100%" width="100%" y="99.832" x="16.488" xlink:href="#c"/><use height="100%" width="100%" y="99.832" x="22.851" xlink:href="#d"/><use height="100%" width="100%" y="99.832" x="26.029" xlink:href="#g"/><use height="100%" width="100%" y="59.68" x="10" xlink:href="#c"/><use height="100%" width="100%" y="59.68" x="16.362" xlink:href="#d"/><use height="100%" width="100%" y="59.68" x="19.541" xlink:href="#g"/><use height="100%" width="100%" y="59.68" x="25.903" xlink:href="#e"/><use height="100%" width="100%" y="19.531" x="16.289" xlink:href="#c"/><use height="100%" width="100%" y="19.531" x="22.651" xlink:href="#d"/><use height="100%" width="100%" y="19.531" x="25.83" xlink:href="#h"/><path d="M40.734 256.719H434.52" fill="none" stroke="#000" stroke-linecap="square" stroke-miterlimit="10"/><path d="M40.734 256.719v-2M48.61 256.719v-2M56.484 256.719v-2M64.36 256.719v-2M72.234 256.719v-2M80.11 256.719v-2M87.988 256.719v-2M95.863 256.719v-2M103.738 256.719v-2M111.613 256.719v-2M119.488 256.719v-2M127.367 256.719v-2M135.242 256.719v-2M143.117 256.719v-2M150.992 256.719v-2M158.867 256.719v-2M166.742 256.719v-2M174.621 256.719v-2M182.496 256.719v-2M190.371 256.719v-2M198.246 256.719v-2M206.121 256.719v-2M214 256.719v-2M221.875 256.719v-2M229.75 256.719v-2M237.625 256.719v-2M245.5 256.719v-2M253.379 256.719v-2M261.254 256.719v-2M269.129 256.719v-2M277.004 256.719v-2M284.879 256.719v-2M292.758 256.719v-2M300.633 256.719v-2M308.508 256.719v-2M316.383 256.719v-2M324.258 256.719v-2M332.133 256.719v-2M340.012 256.719v-2M347.887 256.719v-2M355.762 256.719v-2M363.637 256.719v-2M371.512 256.719v-2M379.39 256.719v-2M387.266 256.719v-2M395.14 256.719v-2M403.016 256.719v-2M410.89 256.719v-2M418.766 256.719v-2M426.645 256.719v-2M434.52 256.719v-2M40.734 256.719v-5M119.488 256.719v-5M198.246 256.719v-5M277.004 256.719v-5M355.762 256.719v-5M434.52 256.719v-5" fill="none" stroke="#000" stroke-miterlimit="10"/><g><use height="100%" width="100%" y="276" x="38.211" xlink:href="#c"/></g><g><use height="100%" width="100%" y="276" x="117.176" xlink:href="#g"/></g><g><use height="100%" width="100%" y="276" x="195.59" xlink:href="#i"/></g><g><use height="100%" width="100%" y="276" x="274.488" xlink:href="#j"/></g><g><use height="100%" width="100%" y="276" x="353.262" xlink:href="#k"/></g><g><use height="100%" width="100%" y="276" x="429.039" xlink:href="#f"/><use height="100%" width="100%" y="276" x="435.401" xlink:href="#c"/></g><g><use height="100%" width="100%" y="287.641" x="174.93" xlink:href="#l"/><use height="100%" width="100%" y="287.641" x="182.41" xlink:href="#m"/><use height="100%" width="100%" y="287.641" x="188.748" xlink:href="#n"/><use height="100%" width="100%" y="287.641" x="198.489" xlink:href="#o"/><use height="100%" width="100%" y="287.641" x="204.837" xlink:href="#p"/><use height="100%" width="100%" y="287.641" x="210.989" xlink:href="#q"/><use height="100%" width="100%" y="287.641" x="215.101" xlink:href="#r"/><use height="100%" width="100%" y="287.641" x="218.279" xlink:href="#s"/><use height="100%" width="100%" y="287.641" x="224.397" xlink:href="#t"/><use height="100%" width="100%" y="287.641" x="227.918" xlink:href="#r"/><use height="100%" width="100%" y="287.641" x="231.097" xlink:href="#u"/><use height="100%" width="100%" y="287.641" x="236.595" xlink:href="#v"/><use height="100%" width="100%" y="287.641" x="242.933" xlink:href="#w"/><use height="100%" width="100%" y="287.641" x="249.061" xlink:href="#x"/><use height="100%" width="100%" y="287.641" x="255.398" xlink:href="#y"/><use height="100%" width="100%" y="287.641" x="261.746" xlink:href="#p"/><use height="100%" width="100%" y="287.641" x="267.898" xlink:href="#r"/><use height="100%" width="100%" y="287.641" x="271.077" xlink:href="#z"/><use height="100%" width="100%" y="287.641" x="277.425" xlink:href="#s"/><use height="100%" width="100%" y="287.641" x="283.543" xlink:href="#A"/><use height="100%" width="100%" y="287.641" x="286.321" xlink:href="#x"/><use height="100%" width="100%" y="287.641" x="292.659" xlink:href="#B"/><use height="100%" width="100%" y="287.641" x="296.58" xlink:href="#C"/></g></svg>