<svg xmlns="http://www.w3.org/2000/svg" xmlns:xlink="http://www.w3.org/1999/xlink" width="600" height="400" viewBox="0 0 450 300"><defs><symbol overflow="visible" id="d"><path d="M-6.484-1.969h5.671v-1.187c0-1.008-.222-1.742-.671-2.203-.457-.47-1.18-.704-2.172-.704-.977 0-1.692.235-2.14.704-.458.46-.688 1.195-.688 2.203zm-.813.985v-2.032c0-1.406.297-2.437.89-3.093.587-.664 1.5-1 2.75-1 1.262 0 2.188.336 2.782 1C-.289-5.453 0-4.422 0-3.016v2.032zm0 0"/></symbol><symbol overflow="visible" id="e"><path d="M-2.953-5.625h.437v4.14c.618-.038 1.086-.226 1.407-.562.324-.332.484-.797.484-1.39 0-.344-.04-.676-.125-1a4.141 4.141 0 0 0-.375-.97h.844A5.3 5.3 0 0 1 .14-3.39c0 .875-.25 1.57-.75 2.079-.508.511-1.204.765-2.079.765-.894 0-1.601-.238-2.124-.719-.52-.488-.782-1.144-.782-1.968 0-.739.235-1.32.703-1.75.47-.426 1.118-.641 1.938-.641zm-.266.906c-.488 0-.879.137-1.172.407-.3.273-.453.625-.453 1.062 0 .512.149.918.438 1.219.281.293.68.465 1.187.515zm0 0"/></symbol><symbol overflow="visible" id="f"><path d="M-3.297-5.484H0v.89h-3.266c-.52 0-.906.106-1.156.313-.258.199-.39.5-.39.906 0 .48.156.86.468 1.14.305.282.719.422 1.25.422H0v.907h-5.469v-.906h.844c-.32-.22-.563-.473-.719-.766a2 2 0 0 1-.25-1c0-.625.196-1.098.578-1.422.387-.32.961-.484 1.72-.484zm0 0"/></symbol><symbol overflow="visible" id="g"><path d="M-5.313-4.422h.86c-.133.25-.234.512-.297.781a3.838 3.838 0 0 0-.094.86c0 .437.07.773.203 1 .137.218.34.328.61.328.21 0 .375-.078.5-.234.117-.157.226-.477.328-.97l.078-.296c.137-.645.328-1.098.578-1.36.25-.269.594-.406 1.031-.406.512 0 .918.203 1.22.61.292.398.437.945.437 1.64 0 .305-.032.617-.094.938a6.07 6.07 0 0 1-.25.984h-.922c.168-.332.297-.656.39-.969.087-.32.126-.644.126-.968 0-.414-.07-.739-.22-.97a.688.688 0 0 0-.609-.343c-.25 0-.437.086-.562.25-.133.156-.258.516-.375 1.078l-.078.313c-.113.554-.29.953-.531 1.203-.25.25-.582.375-1 .375-.52 0-.914-.18-1.188-.547-.281-.363-.422-.883-.422-1.563 0-.32.028-.628.078-.921.043-.301.11-.57.204-.813zm0 0"/></symbol><symbol overflow="visible" id="h"><path d="M-5.469-.938v-.906H0v.907zm-2.125 0v-.906h1.14v.907zm0 0"/></symbol><symbol overflow="visible" id="i"><path d="M-7.016-1.828h1.547v-1.86h.703v1.86h2.97c.437 0 .726-.063.859-.188.125-.125.187-.375.187-.75v-.921H0v.921c0 .7-.129 1.184-.39 1.454-.258.261-.727.39-1.407.39h-2.969v.656h-.703v-.656h-1.547zm0 0"/></symbol><symbol overflow="visible" id="j"><path d="M.516-3.219c.644.25 1.066.5 1.265.75.196.242.297.559.297.953v.72h-.75v-.516c0-.25-.058-.442-.172-.579-.117-.132-.39-.285-.828-.453l-.422-.172-5.375 2.22v-.954l4.282-1.703-4.282-1.719v-.953zm0 0"/></symbol><symbol overflow="visible" id="k"><path d="M3.172-6.64c-.5 0-.883.25-1.14.75-.25.5-.376 1.25-.376 2.25s.125 1.75.375 2.25c.258.5.64.75 1.14.75.52 0 .907-.25 1.157-.75.258-.5.39-1.25.39-2.25s-.132-1.75-.39-2.25c-.25-.5-.637-.75-1.156-.75zm0-.782c.82 0 1.445.324 1.875.969.437.648.656 1.586.656 2.812 0 1.23-.219 2.168-.656 2.813-.43.648-1.055.969-1.875.969-.813 0-1.438-.32-1.875-.97-.43-.644-.64-1.581-.64-2.812 0-1.226.21-2.164.64-2.812.437-.645 1.062-.969 1.875-.969zm0 0"/></symbol><symbol overflow="visible" id="l"><path d="M1.234-.828H2.86v-5.563l-1.765.344v-.89l1.75-.36h.984v6.469h1.61V0H1.234zm0 0"/></symbol><symbol overflow="visible" id="m"><path d="M1.922-.828h3.437V0H.734v-.828c.375-.383.883-.906 1.532-1.563a52.138 52.138 0 0 0 1.218-1.265c.313-.352.532-.649.657-.89.125-.25.187-.493.187-.735 0-.383-.137-.696-.406-.938-.274-.25-.625-.375-1.063-.375-.312 0-.64.059-.984.172-.336.106-.7.266-1.094.484v-1a8.838 8.838 0 0 1 1.11-.359c.343-.082.66-.125.953-.125.75 0 1.347.188 1.797.563.457.375.687.882.687 1.515 0 .305-.058.59-.172.86-.117.261-.32.574-.61.937-.085.094-.343.371-.78.828-.438.45-1.055 1.078-1.844 1.89zm0 0"/></symbol><symbol overflow="visible" id="n"><path d="M4.063-3.938c.468.106.832.32 1.093.641.27.313.407.703.407 1.172 0 .719-.25 1.277-.75 1.672-.493.398-1.196.594-2.11.594a4.89 4.89 0 0 1-.937-.094 7.464 7.464 0 0 1-1-.266v-.953c.27.156.566.277.89.36.332.085.676.125 1.032.125.613 0 1.082-.118 1.406-.36.32-.25.484-.61.484-1.078 0-.426-.152-.758-.453-1-.305-.238-.719-.36-1.25-.36h-.86v-.812h.891c.489 0 .86-.098 1.11-.297.257-.195.39-.476.39-.843 0-.364-.136-.645-.406-.844-.262-.207-.637-.313-1.125-.313-.273 0-.563.032-.875.094-.313.055-.652.14-1.016.266v-.875c.375-.102.723-.18 1.047-.235.332-.05.64-.078.922-.078.75 0 1.344.172 1.781.516.438.336.657.793.657 1.375 0 .406-.118.75-.344 1.031-.23.273-.559.46-.984.563zm0 0"/></symbol><symbol overflow="visible" id="o"><path d="M3.781-6.438L1.297-2.546H3.78zm-.265-.859h1.25v4.75h1.03v.828h-1.03V0H3.78v-1.719H.484v-.953zm0 0"/></symbol><symbol overflow="visible" id="p"><path d="M1.078-7.297h3.875v.844H1.984v1.781c.145-.05.286-.086.422-.11.145-.019.29-.03.438-.03.812 0 1.453.226 1.922.671.476.438.718 1.04.718 1.797 0 .793-.246 1.406-.734 1.844-.48.43-1.168.64-2.063.64A5.99 5.99 0 0 1 1.75.063a8.095 8.095 0 0 1-.984-.234v-.984c.3.156.609.277.921.36.313.073.641.109.985.109.562 0 1.004-.145 1.328-.438.332-.3.5-.707.5-1.219 0-.5-.168-.894-.5-1.187-.324-.301-.766-.453-1.328-.453a3.52 3.52 0 0 0-.797.093 3.67 3.67 0 0 0-.797.266zm0 0"/></symbol><symbol overflow="visible" id="q"><path d="M1.063-1.234h1.03V0h-1.03zm0 0"/></symbol><symbol overflow="visible" id="r"><path d="M.828-7.297h4.688v.422L2.859 0H1.83l2.5-6.453h-3.5zm0 0"/></symbol><symbol overflow="visible" id="s"><path d="M4.438-3.422c.207.074.41.23.609.469.207.23.41.547.61.953l1 2H5.593l-.922-1.875c-.242-.488-.477-.813-.703-.969-.23-.156-.54-.234-.922-.234H1.969V0H.984v-7.297h2.22c.831 0 1.452.18 1.858.531.415.344.625.871.625 1.579 0 .46-.109.84-.328 1.14-.21.305-.515.512-.921.625zm-2.47-3.062v2.593h1.235c.477 0 .836-.109 1.078-.328.25-.218.375-.539.375-.968 0-.426-.125-.75-.375-.97-.242-.218-.601-.327-1.078-.327zm0 0"/></symbol><symbol overflow="visible" id="t"><path d="M3.422-2.75c-.719 0-1.219.086-1.5.25-.281.168-.422.45-.422.844 0 .324.102.578.313.765.207.188.492.282.859.282.5 0 .898-.176 1.203-.532.3-.351.453-.82.453-1.406v-.203zm1.797-.375V0h-.89v-.828c-.212.336-.47.578-.782.734-.305.157-.672.235-1.11.235-.562 0-1.011-.157-1.343-.47-.336-.312-.5-.734-.5-1.265 0-.613.207-1.078.625-1.39.414-.313 1.031-.47 1.843-.47h1.266v-.093c0-.406-.14-.723-.422-.953-.273-.227-.652-.344-1.14-.344-.313 0-.621.043-.922.125A3.704 3.704 0 0 0 1-4.39v-.828c.332-.125.648-.218.953-.281.313-.063.613-.094.906-.094.79 0 1.38.203 1.766.61.395.406.594 1.027.594 1.859zm0 0"/></symbol><symbol overflow="visible" id="u"><path d="M1.828-7.016v1.547h1.86v.703h-1.86v2.97c0 .437.063.726.188.859.125.125.375.187.75.187h.921V0h-.921c-.7 0-1.184-.129-1.454-.39-.261-.258-.39-.727-.39-1.407v-2.969H.266v-.703h.656v-1.547zm0 0"/></symbol><symbol overflow="visible" id="v"><path d="M5.625-2.953v.437h-4.14c.038.618.226 1.086.562 1.407.332.324.797.484 1.39.484.344 0 .676-.04 1-.125.333-.082.657-.207.97-.375v.844A5.3 5.3 0 0 1 3.39.14c-.875 0-1.57-.25-2.079-.75C.801-1.117.547-1.813.547-2.688c0-.894.238-1.601.719-2.124.488-.52 1.144-.782 1.968-.782.739 0 1.32.235 1.75.703.426.47.641 1.118.641 1.938zm-.906-.266c0-.488-.137-.879-.407-1.172-.273-.3-.625-.453-1.062-.453-.512 0-.918.149-1.219.438-.293.281-.465.68-.515 1.187zm0 0"/></symbol><symbol overflow="visible" id="x"><path d="M3.063-4.844c-.481 0-.86.188-1.141.563-.281.375-.422.89-.422 1.547 0 .656.133 1.171.406 1.546.282.375.664.563 1.157.563.476 0 .859-.188 1.14-.563.281-.375.422-.89.422-1.546 0-.645-.14-1.157-.422-1.532a1.349 1.349 0 0 0-1.14-.578zm0-.75c.78 0 1.394.258 1.843.766.446.5.672 1.2.672 2.094 0 .898-.226 1.601-.672 2.109-.449.512-1.062.766-1.843.766-.782 0-1.399-.254-1.844-.766-.45-.508-.672-1.21-.672-2.11 0-.894.223-1.593.672-2.093.445-.508 1.062-.766 1.843-.766zm0 0"/></symbol><symbol overflow="visible" id="y"><path d="M3.719-7.594v.75h-.86c-.324 0-.546.07-.671.203-.126.125-.188.356-.188.688v.484h1.469v.703H2V0h-.906v-4.766h-.86v-.703h.86v-.375c0-.613.14-1.054.422-1.328.28-.281.726-.422 1.343-.422zm0 0"/></symbol><symbol overflow="visible" id="z"><path d="M1.813-.828v2.906H.905v-7.547h.906v.828c.188-.32.422-.562.704-.718.289-.157.64-.235 1.046-.235.665 0 1.204.266 1.61.797.414.524.625 1.211.625 2.063 0 .867-.211 1.562-.625 2.093-.406.524-.945.782-1.61.782-.406 0-.757-.078-1.046-.235C2.234-.25 2-.492 1.812-.828zm3.062-1.906c0-.657-.14-1.172-.422-1.547a1.299 1.299 0 0 0-1.11-.563c-.48 0-.855.188-1.124.563-.274.375-.406.89-.406 1.547 0 .668.132 1.187.406 1.562.27.375.644.563 1.125.563.469 0 .836-.188 1.11-.563.28-.375.421-.894.421-1.562zm0 0"/></symbol><symbol overflow="visible" id="A"><path d="M4.11-4.625a1.053 1.053 0 0 0-.329-.125 1.508 1.508 0 0 0-.39-.047c-.512 0-.903.168-1.172.5-.274.324-.406.797-.406 1.422V0H.905v-5.469h.906v.844c.188-.332.43-.578.735-.734.3-.157.672-.235 1.11-.235.062 0 .128.008.202.016.07 0 .157.012.25.031zm0 0"/></symbol><symbol overflow="visible" id="B"><path d="M4.875-5.266v.844a3.995 3.995 0 0 0-.766-.312c-.25-.07-.507-.11-.765-.11-.586 0-1.04.188-1.36.563-.324.367-.484.883-.484 1.547 0 .668.16 1.187.484 1.562.32.367.774.547 1.36.547.258 0 .515-.031.765-.094.258-.07.516-.18.766-.328v.844c-.25.117-.512.2-.781.25A3.626 3.626 0 0 1 3.25.14c-.836 0-1.496-.254-1.984-.766-.48-.52-.72-1.223-.72-2.11 0-.882.243-1.581.735-2.093.489-.508 1.16-.766 2.016-.766.281 0 .55.028.812.078.258.055.516.137.766.25zm0 0"/></symbol><symbol overflow="visible" id="C"><path d="M4.422-5.313v.86a3.218 3.218 0 0 0-.781-.297 3.838 3.838 0 0 0-.86-.094c-.437 0-.773.07-1 .203a.673.673 0 0 0-.328.61c0 .21.078.375.234.5.157.117.477.226.97.328l.296.078c.645.137 1.098.328 1.36.578.269.25.406.594.406 1.031 0 .512-.203.918-.61 1.22-.398.292-.945.437-1.64.437A4.89 4.89 0 0 1 1.53.047a6.07 6.07 0 0 1-.984-.25v-.922c.332.168.656.297.969.39.32.087.644.126.968.126.414 0 .739-.07.97-.22a.688.688 0 0 0 .343-.609c0-.25-.086-.437-.25-.562-.156-.133-.516-.258-1.078-.375l-.313-.078c-.554-.113-.953-.29-1.203-.531-.25-.25-.375-.582-.375-1 0-.52.18-.914.547-1.188.363-.281.883-.422 1.563-.422.32 0 .628.028.921.078.301.043.57.11.813.204zm0 0"/></symbol><symbol overflow="visible" id="D"><path d="M5.484-3.297V0h-.89v-3.266c0-.52-.106-.906-.313-1.156-.199-.258-.5-.39-.906-.39-.48 0-.86.156-1.14.468-.282.305-.422.719-.422 1.25V0H.905v-5.469h.906v.844c.22-.32.473-.563.766-.719a2 2 0 0 1 1-.25c.625 0 1.098.196 1.422.578.32.387.484.961.484 1.72zm0 0"/></symbol><symbol overflow="visible" id="E"><path d="M1.063-4.547h6.25v.828h-6.25zm0 2h6.25v.828h-6.25zm0 0"/></symbol><clipPath id="a"><path d="M83 40h321v195.078H83zm0 0"/></clipPath><clipPath id="b"><path d="M59.574 116h363.7v119.078h-363.7zm0 0"/></clipPath><clipPath id="c"><path d="M59.574 135h363.7v100.078h-363.7zm0 0"/></clipPath></defs><path d="M59.574 15.82v219.258M132.313 15.82v219.258M205.055 15.82v219.258M277.793 15.82v219.258M350.531 15.82v219.258M423.273 15.82v219.258M59.574 235.078h363.7M59.574 191.227h363.7M59.574 147.375h363.7M59.574 103.523h363.7M59.574 59.672h363.7M59.574 15.82h363.7" fill="none" stroke="#d1d1d1" stroke-miterlimit="10" stroke-dasharray="5,5"/><g clip-path="url(#a)"><path d="M83.61 235.035l1.25-.027 1.253-.043 1.25-.067 1.254-.097 1.25-.145 1.254-.207 1.25-.297 1.254-.418 1.25-.574 1.254-.781 1.25-1.043 1.254-1.367 1.25-1.77 1.254-2.25 1.25-2.82 1.254-3.469 1.25-4.21 1.254-5.02 1.25-5.895 1.253-6.808 1.25-7.739 1.254-8.656 1.25-9.52 1.254-10.3 1.25-10.961 1.254-11.457 1.25-11.766 1.254-11.86 1.25-11.718 1.254-11.332 1.25-10.703 1.254-9.844 1.25-8.762 1.254-7.492 1.25-6.062 1.254-4.512 1.25-2.879 1.254-1.203 1.25.476 1.254 2.118 1.25 3.687 1.253 5.156 1.25 6.5 1.254 7.688 1.25 8.7 1.254 9.53 1.25 10.168 1.254 10.598 1.25 10.84 1.254 10.879 1.25 10.746 1.254 10.445 1.25 10.008 1.254 9.453 1.25 8.809 1.254 8.105 1.25 7.363 1.254 6.61 1.25 5.867 1.254 5.148 1.25 4.473 1.253 3.84 1.25 3.262 1.254 2.746 1.25 2.281 1.254 1.879 1.25 1.531 1.254 1.23 1.25.977 1.254.766 1.25.594 1.254.453 1.25.34 1.254.253 1.25.184 1.254.133 1.25.09 1.25.066 1.254.043 1.25.031 1.254.02 1.25.011 1.254.008 1.25.004 1.253.004h1.25l1.254.004h17.528l1.25-.004h2.504l1.253-.004 1.25-.008 1.254-.004 1.25-.011 1.254-.016 1.25-.023 1.254-.031 1.25-.04 1.254-.054 1.25-.07 1.254-.09 1.25-.114 1.254-.136 1.25-.168 1.254-.203 1.25-.235 1.254-.27 1.25-.312 1.254-.348 1.25-.382 1.254-.422 1.25-.453 1.253-.477 1.25-.5 1.254-.516 1.25-.519 1.254-.523 1.25-.524 1.254-.516 1.25-.511 1.254-.512 1.25-.531 1.254-.559 1.25-.613 1.254-.692 1.25-.808 1.254-.953 1.25-1.13 1.254-1.343 1.25-1.578 1.254-1.836 1.25-2.102 1.254-2.37 1.25-2.633 1.253-2.875 1.25-3.094 1.254-3.278 1.25-3.43 1.254-3.542 1.25-3.621 1.254-3.668 1.25-3.696 1.254-3.71 1.25-3.72 1.254-3.738 1.25-3.765 1.254-3.813 1.25-3.87 1.254-3.942 1.25-4.004 1.254-4.05 1.25-4.06 1.254-4 1.25-3.863 1.253-3.633 1.25-3.292 1.254-2.856 1.25-2.32 1.254-1.703 1.25-1.04 1.254-.359 1.25.309 1.254.918 1.25 1.449 1.254 1.879 1.25 2.191 1.254 2.383 1.25 2.477 1.254 2.48 1.25 2.43 1.254 2.347 1.25 2.274 1.254 2.226 1.25 2.223 1.25 2.277 1.254 2.395 1.25 2.55 1.253 2.743 1.25 2.953 1.254 3.152 1.25 3.329 1.254 3.457 1.25 3.539 1.254 3.558 1.25 3.524 1.254 3.433 1.25 3.309 1.254 3.144 1.25 2.965 1.254 2.781 1.25 2.594 1.254 2.422 1.25 2.254 1.254 2.098 1.25 1.96 1.254 1.825 1.25 1.703 1.254 1.59 1.25 1.476 1.253 1.375 1.25 1.286 1.254 1.203 1.25 1.136 1.254 1.082 1.25 1.047 1.254 1.02 1.25 1 1.254.992 1.25.977 1.254.964 1.25.938 1.254.91 1.25.867 1.254.817 1.25.757 1.254.696 1.25.625 1.254.558 1.25.493 1.253.43 1.25.37 1.254.325 1.25.277 1.254.234 1.25.203 1.254.168 1.25.145 1.254.121 1.25.098 1.254.082 1.25.066 1.254.05 1.25.044 1.254.031 1.25.023 1.254.016 1.25.016 1.254.008 1.25.008 1.254.004 1.25.004" fill="none" stroke="#00f" stroke-linecap="round" stroke-linejoin="round" stroke-miterlimit="10"/></g><g clip-path="url(#b)"><path d="M39.438 235.04l1.874-.04 1.876-.078 1.874-.145 1.876-.254 1.874-.433 1.876-.707 1.874-1.098 1.876-1.64 1.874-2.356 1.876-3.242 1.874-4.285 1.876-5.422 1.874-6.59 1.876-7.676 1.874-8.566 1.876-9.156L71.311 174l1.876-9.102 1.874-8.41 1.876-7.312 1.874-5.895 1.876-4.265 1.874-2.536 1.876-.828 1.874.774 1.876 2.203 1.874 3.414 1.872 4.383 1.875 5.11 1.875 5.585 1.875 5.809 1.875 5.793 1.875 5.543 1.875 5.062 1.875 4.39 1.875 3.544 1.875 2.554 1.875 1.45 1.875.265 1.875-.976 1.875-2.239 1.875-3.492 1.875-4.687 1.875-5.758 1.875-6.645 1.875-7.28 1.875-7.599 1.875-7.566 1.875-7.187 1.875-6.473 1.875-5.492 1.875-4.32 1.875-3.024 1.875-1.684 1.875-.336 1.875.993 1.875 2.308 1.875 3.621 1.875 4.93 1.875 6.195 1.875 7.38 1.87 8.374 1.876 9.098 1.875 9.465 1.875 9.422 1.875 8.98 1.875 8.191 1.875 7.168 1.875 6.036 1.875 4.906 1.875 3.894 1.875 3.043 1.875 2.38 1.875 1.882 1.875 1.52 1.875 1.246 1.875 1.039 1.875.863 1.875.715 1.875.586 1.875.476 1.875.387 1.875.316 1.875.254 1.875.207 1.875.168 1.875.137 1.875.106 1.875.082 1.875.062 1.875.04 1.875.023 1.875.011 1.875.004 1.875.008 1.87.016 1.876.031 1.875.055 1.875.078 1.875.098 1.875.113 1.875.117 1.875.11 1.875.09 1.875.058 1.875.012 1.875-.047 1.875-.11 1.875-.18 1.875-.261 1.875-.344 1.875-.437 1.875-.536 1.875-.644 1.875-.777 1.875-.934 1.875-1.129 1.875-1.363 1.875-1.653 1.875-1.992 1.875-2.375 1.875-2.781 1.875-3.184 1.875-3.55 1.875-3.844 1.875-4.012 1.875-4.043 1.875-3.922 1.875-3.656 1.87-3.285 1.876-2.86 1.875-2.43 1.875-2.05 1.875-1.754 1.875-1.55 1.875-1.434 1.875-1.363 1.875-1.305 1.875-1.219 1.875-1.09 1.875-.914 1.875-.707 1.875-.504 1.875-.308 1.875-.149h1.875l1.875.153 1.875.347 1.875.617 1.875.977 1.875 1.434 1.875 1.957 1.875 2.52 1.875 3.07 1.875 3.566 1.875 3.953 1.875 4.21 1.875 4.302 1.875 4.234 1.875 4.02 1.875 3.675 1.875 3.25 1.871 2.782 1.875 2.3 1.875 1.848 1.875 1.453 1.875 1.137 1.875.902 1.875.766 1.875.71 1.875.72 1.875.765 1.875.832 1.875.89 1.875.93 1.875.934 1.875.914 1.875.867 1.875.801 1.875.73 1.875.649 1.875.563 1.875.476 1.875.39 1.875.31 1.875.238 1.875.175 1.875.125 1.875.086 1.875.051 1.875.035 1.875.02 1.875.011 5.625.012h61.871l1.875-.004h1.871l5.625-.012 5.625-.023 1.875-.004 1.875-.008 1.875-.004h3.75l1.875.004 1.875.008 1.875.004 3.75.016 1.875.004 1.875.008 3.75.008h3.75l1.875.004h1.875" fill="none" stroke="#007f00" stroke-linecap="round" stroke-linejoin="round" stroke-miterlimit="10"/></g><g clip-path="url(#c)"><path d="M34.8 235.063l2.013-.02 2.011-.04 2.008-.07 2.012-.128 2.008-.22 2.011-.37 2.008-.598 2.012-.93 2.008-1.382 2.011-1.989 2.008-2.734 2.012-3.605 2.008-4.551 2.011-5.488 2.008-6.317 2.012-6.93 2.008-7.238 2.011-7.18 2.012-6.753L75 172.516l2.012-5.012 2.008-3.895 2.011-2.75 2.008-1.68 2.012-.726 2.008.078 2.011.754 2.008 1.317 2.012 1.785 2.008 2.164 2.011 2.445 2.008 2.59 2.012 2.574 2.008 2.363 2.011 1.934 2.012 1.285 2.008.434 2.012-.582 2.007-1.7 2.012-2.828 2.008-3.855 2.012-4.684 2.008-5.199 2.011-5.351 2.008-5.114 2.012-4.52 2.008-3.652 2.011-2.625 2.008-1.539 2.012-.5 2.008.418 2.011 1.188 2.008 1.808 2.012 2.309 2.012 2.719 2.007 3.086 2.012 3.425 2.008 3.73 2.012 3.977 2.008 4.11 2.011 4.094 2.008 3.902 2.012 3.559 2.008 3.09 2.011 2.59 2.008 2.14 2.012 1.824 2.008 1.691 2.011 1.758 2.008 1.989 2.012 2.324 2.012 2.664 2.007 2.937 2.012 3.075 2.008 3.046 2.012 2.86 2.007 2.55 2.012 2.172 2.008 1.774 2.012 1.414 2.008 1.113 2.011.899 2.008.761 2.012.7 2.008.695 2.011.723 2.008.77 2.012.816 2.012.847 2.007.867 2.012.871 2.008.86 2.012.836 2.007.8 2.012.75 2.008.692 2.012.602 2.008.5 2.011.382 2.008.266 2.012.148 2.008.063 2.011-.004 2.008-.043 2.012-.066 2.012-.082 2.007-.114 2.012-.172 2.008-.277 2.012-.422 2.007-.629 2.012-.883 2.008-1.195 2.012-1.555 2.007-1.968 2.012-2.407 2.008-2.855 2.012-3.262 2.008-3.582 2.011-3.773 2.008-3.805 2.012-3.672 2.012-3.39 2.007-3.028 2.012-2.629 2.008-2.265 2.012-1.957 2.007-1.715 2.012-1.508 2.008-1.285 2.012-1.016 2.007-.668 2.012-.238 2.008.227 2.012.68 2.008 1.054 2.011 1.328 2.008 1.469 2.012 1.512 2.011 1.496 2.008 1.464 2.012 1.485 2.008 1.574 2.012 1.762 2.007 2.023 2.012 2.344 2.008 2.668 2.012 2.95 2.007 3.14 2.012 3.207 2.008 3.117 2.012 2.898 2.007 2.559 2.012 2.152 2.008 1.73 2.012 1.337 2.011 1.015 2.008.774 2.012.637 2.008.578 2.012.582 2.007.62 2.012.669 2.008.71 2.012.731 2.007.723 2.012.699 2.008.648 2.012.59 2.007.52 2.012.45 2.008.37 2.012.309 2.008.242 2.011.195 2.012.157 2.008.128 2.011.114 2.008.101 2.012.09 2.008.078 2.012.063 2.007.05 2.012.028 2.008.02 2.012.007h2.007l2.012-.004h2.008l2.012.004 2.007.012 2.012.012 2.012.02 2.008.019 2.011.023 2.008.027 2.012.024 2.008.023 2.012.024 2.007.02 2.012.015 2.008.011 2.012.008 2.007.008 2.012.004 2.008.004 2.012.004h20.097l2.012-.004h4.02l2.007-.004 2.012-.004 2.008-.004h2.012l2.007-.004h2.012l2.012-.004h2.008l2.011.004h2.008l2.012.004h2.008l2.011.004h4.02l2.008-.004 2.012-.004 2.007-.004 2.012-.004 2.008-.004h2.012l2.007-.004 2.012.004h2.012l2.008.004 2.011.004 2.008.008 2.012.004 2.008.004h2.011l2.008.004h2.012l2.008.004h4.02" fill="none" stroke="red" stroke-linecap="round" stroke-linejoin="round" stroke-miterlimit="10"/></g><use height="100%" width="100%" y="141.461" x="21.641" xlink:href="#d"/><use height="100%" width="100%" y="133.761" x="21.641" xlink:href="#e"/><use height="100%" width="100%" y="127.608" x="21.641" xlink:href="#f"/><use height="100%" width="100%" y="121.271" x="21.641" xlink:href="#g"/><use height="100%" width="100%" y="116.061" x="21.641" xlink:href="#h"/><use height="100%" width="100%" y="113.282" x="21.641" xlink:href="#i"/><use height="100%" width="100%" y="109.361" x="21.641" xlink:href="#j"/><path d="M59.574 235.078V15.82" fill="none" stroke="#000" stroke-linecap="square" stroke-miterlimit="10"/><path d="M59.574 235.078h2M59.574 230.691h2M59.574 226.309h2M59.574 221.922h2M59.574 217.54h2M59.574 213.152h2M59.574 208.766h2M59.574 204.383h2M59.574 199.996h2M59.574 195.613h2M59.574 191.227h2M59.574 186.84h2M59.574 182.457h2M59.574 178.07h2M59.574 173.688h2M59.574 169.3h2M59.574 164.914h2M59.574 160.531h2M59.574 156.145h2M59.574 151.762h2M59.574 147.375h2M59.574 142.988h2M59.574 138.605h2M59.574 134.219h2M59.574 129.836h2M59.574 125.45h2M59.574 121.063h2M59.574 116.68h2M59.574 112.293h2M59.574 107.91h2M59.574 103.523h2M59.574 99.137h2M59.574 94.754h2M59.574 90.367h2M59.574 85.984h2M59.574 81.598h2M59.574 77.21h2M59.574 72.828h2M59.574 68.441h2M59.574 64.059h2M59.574 59.672h2M59.574 55.285h2M59.574 50.902h2M59.574 46.516h2M59.574 42.133h2M59.574 37.746h2M59.574 33.36h2M59.574 28.977h2M59.574 24.59h2M59.574 20.207h2M59.574 15.82h2M59.574 235.078h5M59.574 191.227h5M59.574 147.375h5M59.574 103.523h5M59.574 59.672h5M59.574 15.82h5" fill="none" stroke="#000" stroke-miterlimit="10"/><use height="100%" width="100%" y="238.789" x="44.535" xlink:href="#k"/><use height="100%" width="100%" y="194.938" x="32.25" xlink:href="#l"/><use height="100%" width="100%" y="194.938" x="38.612" xlink:href="#k"/><use height="100%" width="100%" y="194.938" x="44.975" xlink:href="#k"/><use height="100%" width="100%" y="151.086" x="31.887" xlink:href="#m"/><use height="100%" width="100%" y="151.086" x="38.249" xlink:href="#k"/><use height="100%" width="100%" y="151.086" x="44.611" xlink:href="#k"/><use height="100%" width="100%" y="107.234" x="31.914" xlink:href="#n"/><use height="100%" width="100%" y="107.234" x="38.276" xlink:href="#k"/><use height="100%" width="100%" y="107.234" x="44.639" xlink:href="#k"/><use height="100%" width="100%" y="63.383" x="31.641" xlink:href="#o"/><use height="100%" width="100%" y="63.383" x="38.003" xlink:href="#k"/><use height="100%" width="100%" y="63.383" x="44.365" xlink:href="#k"/><use height="100%" width="100%" y="19.531" x="31.926" xlink:href="#p"/><use height="100%" width="100%" y="19.531" x="38.288" xlink:href="#k"/><use height="100%" width="100%" y="19.531" x="44.65" xlink:href="#k"/><path d="M59.574 235.078h363.7" fill="none" stroke="#000" stroke-linecap="square" stroke-miterlimit="10"/><path d="M59.574 235.078v-2M66.848 235.078v-2M74.125 235.078v-2M81.398 235.078v-2M88.672 235.078v-2M95.945 235.078v-2M103.219 235.078v-2M110.492 235.078v-2M117.766 235.078v-2M125.04 235.078v-2M132.313 235.078v-2M139.59 235.078v-2M146.863 235.078v-2M154.137 235.078v-2M161.41 235.078v-2M168.684 235.078v-2M175.957 235.078v-2M183.23 235.078v-2M190.504 235.078v-2M197.781 235.078v-2M205.055 235.078v-2M212.328 235.078v-2M219.602 235.078v-2M226.875 235.078v-2M234.148 235.078v-2M241.422 235.078v-2M248.695 235.078v-2M255.973 235.078v-2M263.246 235.078v-2M270.52 235.078v-2M277.793 235.078v-2M285.066 235.078v-2M292.34 235.078v-2M299.613 235.078v-2M306.89 235.078v-2M314.164 235.078v-2M321.438 235.078v-2M328.71 235.078v-2M335.984 235.078v-2M343.258 235.078v-2M350.531 235.078v-2M357.805 235.078v-2M365.078 235.078v-2M372.355 235.078v-2M379.629 235.078v-2M386.902 235.078v-2M394.176 235.078v-2M401.45 235.078v-2M408.723 235.078v-2M415.996 235.078v-2M423.273 235.078v-2M430.547 235.078v-2M59.574 235.078v-5M132.313 235.078v-5M205.055 235.078v-5M277.793 235.078v-5M350.531 235.078v-5M423.273 235.078v-5" fill="none" stroke="#000" stroke-miterlimit="10"/><g><use height="100%" width="100%" y="254.359" x="57.055" xlink:href="#k"/></g><g><use height="100%" width="100%" y="254.359" x="115.586" xlink:href="#k"/><use height="100%" width="100%" y="254.359" x="121.948" xlink:href="#q"/><use height="100%" width="100%" y="254.359" x="125.127" xlink:href="#k"/><use height="100%" width="100%" y="254.359" x="131.489" xlink:href="#k"/><use height="100%" width="100%" y="254.359" x="137.852" xlink:href="#m"/><use height="100%" width="100%" y="254.359" x="144.214" xlink:href="#p"/></g><g><use height="100%" width="100%" y="254.359" x="191.508" xlink:href="#k"/><use height="100%" width="100%" y="254.359" x="197.87" xlink:href="#q"/><use height="100%" width="100%" y="254.359" x="201.049" xlink:href="#k"/><use height="100%" width="100%" y="254.359" x="207.411" xlink:href="#k"/><use height="100%" width="100%" y="254.359" x="213.773" xlink:href="#p"/></g><g><use height="100%" width="100%" y="254.359" x="261.063" xlink:href="#k"/><use height="100%" width="100%" y="254.359" x="267.425" xlink:href="#q"/><use height="100%" width="100%" y="254.359" x="270.604" xlink:href="#k"/><use height="100%" width="100%" y="254.359" x="276.966" xlink:href="#k"/><use height="100%" width="100%" y="254.359" x="283.328" xlink:href="#r"/><use height="100%" width="100%" y="254.359" x="289.69" xlink:href="#p"/></g><g><use height="100%" width="100%" y="254.359" x="340.191" xlink:href="#k"/><use height="100%" width="100%" y="254.359" x="346.554" xlink:href="#q"/><use height="100%" width="100%" y="254.359" x="349.732" xlink:href="#k"/><use height="100%" width="100%" y="254.359" x="356.095" xlink:href="#l"/></g><g><use height="100%" width="100%" y="254.359" x="406.543" xlink:href="#k"/><use height="100%" width="100%" y="254.359" x="412.905" xlink:href="#q"/><use height="100%" width="100%" y="254.359" x="416.084" xlink:href="#k"/><use height="100%" width="100%" y="254.359" x="422.446" xlink:href="#l"/><use height="100%" width="100%" y="254.359" x="428.809" xlink:href="#m"/><use height="100%" width="100%" y="254.359" x="435.171" xlink:href="#p"/></g><g><use height="100%" width="100%" y="266" x="203.262" xlink:href="#s"/><use height="100%" width="100%" y="266" x="210.21" xlink:href="#t"/><use height="100%" width="100%" y="266" x="216.338" xlink:href="#u"/><use height="100%" width="100%" y="266" x="220.259" xlink:href="#v"/><use height="100%" width="100%" y="266" x="226.411" xlink:href="#w"/><use height="100%" width="100%" y="266" x="229.59" xlink:href="#x"/><use height="100%" width="100%" y="266" x="235.708" xlink:href="#y"/><use height="100%" width="100%" y="266" x="239.229" xlink:href="#w"/><use height="100%" width="100%" y="266" x="242.407" xlink:href="#z"/><use height="100%" width="100%" y="266" x="248.755" xlink:href="#A"/><use height="100%" width="100%" y="266" x="252.866" xlink:href="#x"/><use height="100%" width="100%" y="266" x="258.984" xlink:href="#B"/><use height="100%" width="100%" y="266" x="264.482" xlink:href="#v"/><use height="100%" width="100%" y="266" x="270.635" xlink:href="#C"/><use height="100%" width="100%" y="266" x="275.845" xlink:href="#C"/></g><path d="M10 284.18h20" fill="none" stroke="#00f" stroke-linecap="round" stroke-linejoin="round" stroke-miterlimit="10"/><g><use height="100%" width="100%" y="287.641" x="36.242" xlink:href="#D"/><use height="100%" width="100%" y="287.641" x="42.58" xlink:href="#E"/><use height="100%" width="100%" y="287.641" x="50.959" xlink:href="#l"/></g><path d="M75.488 284.18h20" fill="none" stroke="#007f00" stroke-linecap="round" stroke-linejoin="round" stroke-miterlimit="10"/><g><use height="100%" width="100%" y="287.641" x="101.727" xlink:href="#D"/><use height="100%" width="100%" y="287.641" x="108.064" xlink:href="#E"/><use height="100%" width="100%" y="287.641" x="116.443" xlink:href="#m"/></g><path d="M140.898 284.18h20" fill="none" stroke="red" stroke-linecap="round" stroke-linejoin="round" stroke-miterlimit="10"/><g><use height="100%" width="100%" y="287.641" x="167.141" xlink:href="#D"/><use height="100%" width="100%" y="287.641" x="173.479" xlink:href="#E"/><use height="100%" width="100%" y="287.641" x="181.857" xlink:href="#n"/></g></svg>