<svg xmlns="http://www.w3.org/2000/svg" xmlns:xlink="http://www.w3.org/1999/xlink" width="600" height="400" viewBox="0 0 450 300"><defs><symbol overflow="visible" id="b"><path d="M-6.484-1.969h2.75v-1.234c0-.457-.118-.813-.36-1.063-.238-.257-.578-.39-1.015-.39-.438 0-.774.133-1.016.39-.238.25-.36.606-.36 1.063zm-.813.985v-2.22c0-.82.188-1.44.563-1.858.367-.415.906-.625 1.625-.625.718 0 1.261.21 1.625.625.367.417.546 1.039.546 1.859v1.234H0v.985zm0 0"/></symbol><symbol overflow="visible" id="c"><path d="M-4.844-3.063c0 .481.188.86.563 1.141.375.281.89.422 1.547.422.656 0 1.171-.133 1.546-.406.375-.282.563-.664.563-1.157 0-.476-.188-.859-.563-1.14-.375-.281-.89-.422-1.546-.422-.645 0-1.157.14-1.532.422a1.349 1.349 0 0 0-.578 1.14zm-.75 0c0-.78.258-1.394.766-1.843.5-.446 1.2-.672 2.094-.672.898 0 1.601.226 2.109.672.512.449.766 1.062.766 1.843 0 .782-.254 1.399-.766 1.844-.508.45-1.21.672-2.11.672-.894 0-1.593-.223-2.093-.672-.508-.445-.766-1.062-.766-1.843zm0 0"/></symbol><symbol overflow="visible" id="d"><path d="M-5.313-4.422h.86c-.133.25-.234.512-.297.781a3.838 3.838 0 0 0-.094.86c0 .437.07.773.203 1 .137.218.34.328.61.328.21 0 .375-.078.5-.234.117-.157.226-.477.328-.97l.078-.296c.137-.645.328-1.098.578-1.36.25-.269.594-.406 1.031-.406.512 0 .918.203 1.22.61.292.398.437.945.437 1.64 0 .305-.032.617-.094.938a6.07 6.07 0 0 1-.25.984h-.922c.168-.332.297-.656.39-.969.087-.32.126-.644.126-.968 0-.414-.07-.739-.22-.97a.688.688 0 0 0-.609-.343c-.25 0-.437.086-.562.25-.133.156-.258.516-.375 1.078l-.078.313c-.113.554-.29.953-.531 1.203-.25.25-.582.375-1 .375-.52 0-.914-.18-1.188-.547-.281-.363-.422-.883-.422-1.563 0-.32.028-.628.078-.921.043-.301.11-.57.204-.813zm0 0"/></symbol><symbol overflow="visible" id="e"><path d="M-7.016-1.828h1.547v-1.86h.703v1.86h2.97c.437 0 .726-.063.859-.188.125-.125.187-.375.187-.75v-.921H0v.921c0 .7-.129 1.184-.39 1.454-.258.261-.727.39-1.407.39h-2.969v.656h-.703v-.656h-1.547zm0 0"/></symbol><symbol overflow="visible" id="f"><path d="M-2.953-5.625h.437v4.14c.618-.038 1.086-.226 1.407-.562.324-.332.484-.797.484-1.39 0-.344-.04-.676-.125-1a4.141 4.141 0 0 0-.375-.97h.844A5.3 5.3 0 0 1 .14-3.39c0 .875-.25 1.57-.75 2.079-.508.511-1.204.765-2.079.765-.894 0-1.601-.238-2.124-.719-.52-.488-.782-1.144-.782-1.968 0-.739.235-1.32.703-1.75.47-.426 1.118-.641 1.938-.641zm-.266.906c-.488 0-.879.137-1.172.407-.3.273-.453.625-.453 1.062 0 .512.149.918.438 1.219.281.293.68.465 1.187.515zm0 0"/></symbol><symbol overflow="visible" id="g"><path d="M-4.625-4.11a1.053 1.053 0 0 0-.125.329 1.508 1.508 0 0 0-.047.39c0 .512.168.903.5 1.172.324.274.797.406 1.422.406H0v.907h-5.469v-.906h.844a1.773 1.773 0 0 1-.734-.735c-.157-.3-.235-.672-.235-1.11 0-.062.008-.128.016-.202 0-.07.012-.157.031-.25zm0 0"/></symbol><symbol overflow="visible" id="h"><path d="M-5.469-.938v-.906H0v.907zm-2.125 0v-.906h1.14v.907zm0 0"/></symbol><symbol overflow="visible" id="j"><path d="M-4.422-5.203c-.406-.219-.703-.484-.89-.797-.188-.313-.282-.68-.282-1.11 0-.57.2-1.007.594-1.312.398-.312.965-.469 1.703-.469H0v.907h-3.266c-.53 0-.921.093-1.171.28-.25.18-.375.462-.375.845 0 .468.156.84.468 1.109.305.262.719.39 1.25.39H0v.907h-3.266c-.53 0-.921.094-1.171.281-.25.188-.375.477-.375.86 0 .46.156.824.468 1.093.305.274.719.406 1.25.406H0v.907h-5.469v-.906h.844c-.332-.208-.578-.454-.734-.735a2.108 2.108 0 0 1-.235-1.015c0-.407.102-.743.297-1.016.2-.281.492-.488.875-.625zm0 0"/></symbol><symbol overflow="visible" id="k"><path d="M-2.75-3.422c0 .719.086 1.219.25 1.5.168.281.45.422.844.422.324 0 .578-.102.765-.313.188-.207.282-.492.282-.859 0-.5-.176-.898-.532-1.203-.351-.3-.82-.453-1.406-.453h-.203zm-.375-1.797H0v.89h-.828c.336.212.578.47.734.782.157.305.235.672.235 1.11 0 .562-.157 1.011-.47 1.343-.312.336-.734.5-1.265.5-.613 0-1.078-.207-1.39-.625-.313-.414-.47-1.031-.47-1.843v-1.266h-.093c-.406 0-.723.14-.953.422-.227.273-.344.652-.344 1.14 0 .313.043.621.125.922.074.293.184.574.328.844h-.828a6.308 6.308 0 0 1-.281-.953 4.609 4.609 0 0 1-.094-.906c0-.79.203-1.38.61-1.766.406-.395 1.027-.594 1.859-.594zm0 0"/></symbol><symbol overflow="visible" id="l"><path d="M-3.297-5.484H0v.89h-3.266c-.52 0-.906.106-1.156.313-.258.199-.39.5-.39.906 0 .48.156.86.468 1.14.305.282.719.422 1.25.422H0v.907h-5.469v-.906h.844c-.32-.22-.563-.473-.719-.766a2 2 0 0 1-.25-1c0-.625.196-1.098.578-1.422.387-.32.961-.484 1.72-.484zm0 0"/></symbol><symbol overflow="visible" id="m"><path d="M3.172-6.64c-.5 0-.883.25-1.14.75-.25.5-.376 1.25-.376 2.25s.125 1.75.375 2.25c.258.5.64.75 1.14.75.52 0 .907-.25 1.157-.75.258-.5.39-1.25.39-2.25s-.132-1.75-.39-2.25c-.25-.5-.637-.75-1.156-.75zm0-.782c.82 0 1.445.324 1.875.969.437.648.656 1.586.656 2.812 0 1.23-.219 2.168-.656 2.813-.43.648-1.055.969-1.875.969-.813 0-1.438-.32-1.875-.97-.43-.644-.64-1.581-.64-2.812 0-1.226.21-2.164.64-2.812.437-.645 1.062-.969 1.875-.969zm0 0"/></symbol><symbol overflow="visible" id="n"><path d="M1.063-1.234h1.03V0h-1.03zm0 0"/></symbol><symbol overflow="visible" id="o"><path d="M1.922-.828h3.437V0H.734v-.828c.375-.383.883-.906 1.532-1.563a52.138 52.138 0 0 0 1.218-1.265c.313-.352.532-.649.657-.89.125-.25.187-.493.187-.735 0-.383-.137-.696-.406-.938-.274-.25-.625-.375-1.063-.375-.312 0-.64.059-.984.172-.336.106-.7.266-1.094.484v-1a8.838 8.838 0 0 1 1.11-.359c.343-.082.66-.125.953-.125.75 0 1.347.188 1.797.563.457.375.687.882.687 1.515 0 .305-.058.59-.172.86-.117.261-.32.574-.61.937-.085.094-.343.371-.78.828-.438.45-1.055 1.078-1.844 1.89zm0 0"/></symbol><symbol overflow="visible" id="p"><path d="M3.781-6.438L1.297-2.546H3.78zm-.265-.859h1.25v4.75h1.03v.828h-1.03V0H3.78v-1.719H.484v-.953zm0 0"/></symbol><symbol overflow="visible" id="q"><path d="M3.297-4.031c-.438 0-.79.152-1.047.453-.262.305-.39.715-.39 1.234 0 .531.128.95.39 1.25.258.305.61.453 1.047.453.445 0 .797-.148 1.047-.453.258-.3.39-.718.39-1.25 0-.52-.132-.93-.39-1.234-.25-.3-.602-.453-1.047-.453zm1.969-3.094v.89A4.341 4.341 0 0 0 4.5-6.5a3.03 3.03 0 0 0-.734-.094c-.657 0-1.157.219-1.5.657-.344.437-.54 1.105-.579 2 .188-.282.426-.493.72-.641.288-.156.609-.234.952-.234.727 0 1.305.226 1.735.671.426.438.64 1.04.64 1.797 0 .75-.226 1.356-.671 1.813-.438.449-1.028.672-1.766.672-.844 0-1.492-.32-1.938-.97C.922-1.472.703-2.41.703-3.64c0-1.144.27-2.062.813-2.75.55-.687 1.285-1.03 2.203-1.03.25 0 .5.026.75.077.25.043.515.117.797.219zm0 0"/></symbol><symbol overflow="visible" id="r"><path d="M3.172-3.469c-.469 0-.84.133-1.11.39-.261.25-.39.595-.39 1.032 0 .438.129.781.39 1.031.27.25.641.375 1.11.375.469 0 .836-.125 1.11-.375.269-.25.405-.593.405-1.03 0-.438-.136-.782-.406-1.032-.261-.258-.633-.39-1.11-.39zm-.985-.406c-.417-.102-.746-.3-.984-.594-.242-.289-.36-.644-.36-1.062 0-.582.208-1.04.626-1.375.414-.344.984-.516 1.703-.516.726 0 1.3.172 1.719.516.414.336.625.793.625 1.375 0 .418-.121.773-.36 1.062-.242.293-.57.492-.984.594.476.105.848.32 1.11.64.257.325.39.72.39 1.188 0 .711-.215 1.25-.64 1.625-.43.375-1.048.563-1.86.563-.805 0-1.422-.188-1.86-.563-.43-.375-.64-.914-.64-1.625 0-.469.133-.863.406-1.187.27-.32.64-.536 1.11-.641zm-.359-1.563c0 .375.117.672.36.891.238.211.566.313.984.313.426 0 .758-.102 1-.313.238-.219.36-.516.36-.89 0-.375-.122-.665-.36-.875-.242-.22-.574-.329-1-.329-.418 0-.746.11-.985.329-.242.21-.359.5-.359.875zm0 0"/></symbol><symbol overflow="visible" id="s"><path d="M1.234-.828H2.86v-5.563l-1.765.344v-.89l1.75-.36h.984v6.469h1.61V0H1.234zm0 0"/></symbol><symbol overflow="visible" id="t"><path d="M4.063-3.938c.468.106.832.32 1.093.641.27.313.407.703.407 1.172 0 .719-.25 1.277-.75 1.672-.493.398-1.196.594-2.11.594a4.89 4.89 0 0 1-.937-.094 7.464 7.464 0 0 1-1-.266v-.953c.27.156.566.277.89.36.332.085.676.125 1.032.125.613 0 1.082-.118 1.406-.36.32-.25.484-.61.484-1.078 0-.426-.152-.758-.453-1-.305-.238-.719-.36-1.25-.36h-.86v-.812h.891c.489 0 .86-.098 1.11-.297.257-.195.39-.476.39-.843 0-.364-.136-.645-.406-.844-.262-.207-.637-.313-1.125-.313-.273 0-.563.032-.875.094-.313.055-.652.14-1.016.266v-.875c.375-.102.723-.18 1.047-.235.332-.05.64-.078.922-.078.75 0 1.344.172 1.781.516.438.336.657.793.657 1.375 0 .406-.118.75-.344 1.031-.23.273-.559.46-.984.563zm0 0"/></symbol><symbol overflow="visible" id="u"><path d="M-.031-7.297H6.14v.844H3.547V0h-.985v-6.453H-.03zm0 0"/></symbol><symbol overflow="visible" id="v"><path d="M.938-5.469h.906V0H.937zm0-2.125h.906v1.14H.937zm0 0"/></symbol><symbol overflow="visible" id="w"><path d="M5.203-4.422c.219-.406.484-.703.797-.89.313-.188.68-.282 1.11-.282.57 0 1.007.2 1.312.594.312.398.469.965.469 1.703V0h-.907v-3.266c0-.53-.093-.921-.28-1.171-.18-.25-.462-.375-.845-.375-.468 0-.84.156-1.109.468-.262.305-.39.719-.39 1.25V0h-.907v-3.266c0-.53-.094-.921-.281-1.171-.188-.25-.477-.375-.86-.375-.46 0-.824.156-1.093.468-.274.305-.406.719-.406 1.25V0H.905v-5.469h.906v.844c.208-.332.454-.578.735-.734.289-.157.629-.235 1.015-.235.407 0 .743.102 1.016.297.281.2.488.492.625.875zm0 0"/></symbol><symbol overflow="visible" id="x"><path d="M5.625-2.953v.437h-4.14c.038.618.226 1.086.562 1.407.332.324.797.484 1.39.484.344 0 .676-.04 1-.125.333-.082.657-.207.97-.375v.844A5.3 5.3 0 0 1 3.39.14c-.875 0-1.57-.25-2.079-.75C.801-1.117.547-1.813.547-2.688c0-.894.238-1.601.719-2.124.488-.52 1.144-.782 1.968-.782.739 0 1.32.235 1.75.703.426.47.641 1.118.641 1.938zm-.906-.266c0-.488-.137-.879-.407-1.172-.273-.3-.625-.453-1.062-.453-.512 0-.918.149-1.219.438-.293.281-.465.68-.515 1.187zm0 0"/></symbol><symbol overflow="visible" id="z"><path d="M3.094-7.594c-.43.75-.75 1.496-.969 2.235a8.098 8.098 0 0 0 0 4.453c.219.742.54 1.476.969 2.218h-.781a10.522 10.522 0 0 1-1.094-2.25 7.028 7.028 0 0 1-.36-2.203c0-.726.118-1.457.36-2.187.238-.738.601-1.492 1.093-2.266zm0 0"/></symbol><symbol overflow="visible" id="A"><path d="M4.547-4.64v-2.954h.89V0h-.89v-.828a1.81 1.81 0 0 1-.719.734c-.293.157-.64.235-1.047.235a1.958 1.958 0 0 1-1.61-.782C.755-1.17.548-1.867.548-2.734c0-.852.207-1.54.625-2.063.414-.531.953-.797 1.61-.797.405 0 .753.078 1.046.235.29.156.531.398.719.718zM1.484-2.735c0 .668.133 1.187.407 1.562.27.375.644.563 1.125.563.468 0 .836-.188 1.109-.563.281-.375.422-.894.422-1.562 0-.657-.14-1.172-.422-1.547a1.299 1.299 0 0 0-1.11-.563c-.48 0-.855.188-1.124.563-.274.375-.407.89-.407 1.547zm0 0"/></symbol><symbol overflow="visible" id="B"><path d="M3.422-2.75c-.719 0-1.219.086-1.5.25-.281.168-.422.45-.422.844 0 .324.102.578.313.765.207.188.492.282.859.282.5 0 .898-.176 1.203-.532.3-.351.453-.82.453-1.406v-.203zm1.797-.375V0h-.89v-.828c-.212.336-.47.578-.782.734-.305.157-.672.235-1.11.235-.562 0-1.011-.157-1.343-.47-.336-.312-.5-.734-.5-1.265 0-.613.207-1.078.625-1.39.414-.313 1.031-.47 1.843-.47h1.266v-.093c0-.406-.14-.723-.422-.953-.273-.227-.652-.344-1.14-.344-.313 0-.621.043-.922.125A3.704 3.704 0 0 0 1-4.39v-.828c.332-.125.648-.218.953-.281.313-.063.613-.094.906-.094.79 0 1.38.203 1.766.61.395.406.594 1.027.594 1.859zm0 0"/></symbol><symbol overflow="visible" id="C"><path d="M3.219.516c-.25.644-.5 1.066-.75 1.265-.242.196-.559.297-.953.297h-.72v-.75h.516c.25 0 .442-.058.579-.172.132-.117.285-.39.453-.828l.172-.422-2.22-5.375h.954l1.703 4.282L4.672-5.47h.953zm0 0"/></symbol><symbol overflow="visible" id="D"><path d="M4.422-5.313v.86a3.218 3.218 0 0 0-.781-.297 3.838 3.838 0 0 0-.86-.094c-.437 0-.773.07-1 .203a.673.673 0 0 0-.328.61c0 .21.078.375.234.5.157.117.477.226.97.328l.296.078c.645.137 1.098.328 1.36.578.269.25.406.594.406 1.031 0 .512-.203.918-.61 1.22-.398.292-.945.437-1.64.437A4.89 4.89 0 0 1 1.53.047a6.07 6.07 0 0 1-.984-.25v-.922c.332.168.656.297.969.39.32.087.644.126.968.126.414 0 .739-.07.97-.22a.688.688 0 0 0 .343-.609c0-.25-.086-.437-.25-.562-.156-.133-.516-.258-1.078-.375l-.313-.078c-.554-.113-.953-.29-1.203-.531-.25-.25-.375-.582-.375-1 0-.52.18-.914.547-1.188.363-.281.883-.422 1.563-.422.32 0 .628.028.921.078.301.043.57.11.813.204zm0 0"/></symbol><symbol overflow="visible" id="E"><path d="M.797-7.594h.781c.488.774.852 1.528 1.094 2.266.25.73.375 1.46.375 2.187 0 .73-.125 1.465-.375 2.204a9.83 9.83 0 0 1-1.094 2.25H.797a9.441 9.441 0 0 0 .969-2.22 7.834 7.834 0 0 0 .328-2.234c0-.75-.11-1.488-.328-2.218a9.758 9.758 0 0 0-.97-2.235zm0 0"/></symbol><clipPath id="a"><path d="M69.047 48h355.625v181H69.047zm0 0"/></clipPath></defs><path d="M69.047 15.82V256.72M157.953 15.82V256.72M246.86 15.82V256.72M335.766 15.82V256.72M424.672 15.82V256.72M69.047 256.719h355.625M69.047 208.54h355.625M69.047 160.36h355.625M69.047 112.18h355.625M69.047 64h355.625M69.047 15.82h355.625" fill="none" stroke="#d1d1d1" stroke-miterlimit="10" stroke-dasharray="5,5"/><g clip-path="url(#a)"><path d="M69.047 52.969h1.41l.707-.07h1.41l.707-.004.703.015.707-.004h.707l.704-.004h.707l.703-.03.707.003.707.008.703.031h.707l.703-.012h.707l.707-.007h.703l.707-.043.703-.008.707-.043.707-.727.704-.004.707-.3.703-.008.707-.008.707.004.703.012.707-.012.703-.016.707-.14.707-.02h.703l.707.016.703.011.707-.027.708-.004.703-.004.707-.07.703-.016h.707l.707-.011.703-.016.707-.012.703-.011.707-.051.707-.016.703-.043.707-.012.703-.023.708.066.707-.03.703-.036h.707l.703-.008 1.414-.11.703-.105.707-.004.703-.066.707.02.707-.024.703-.394.707-.075.704-.054.707-.02.707-.094.703-.007.707-.016.703-.02h1.414l.703-.097.707-.035.703.011.707.004.707-.058.703-.063.707-.25.704-.023.707-.399.707-.023.703-.008.707.055.707.004.703-.114.707-.074.703.215.707.012.707-.016.703.004.707.016.703.035.707.156h.707l.704.02h.707l.703.086.707-.004h.707l.703.058.707.008.703-.016.707.016.707-.008.703.024.707-.008.703.246 1.414-.008.704-.016.707-.003.703.03.707.009.707.035.703-.051.707-.066.703.039.707.046.707.028.703.043.707.027.703.086.707.07.708.028.703.008.707.035.703.039.707.004.707.011.703.067.707.176.703.113.707.203.707.031.703.09.707.316.703.512 1.415.117.703.168.707.211.703.703.707.075.707.734.703.063.707.148.703.277.707.121.707.282.703.504.707 1.054.704.04.707.261.707.125.703.48.707.25.703.188.707.195.707.696.703-.094.707.375.703.543.707 2.426.707 5.996.703 4.195.707.27.704 2.78.707 1.43.707 6.48.703 4.345.707.582.703 5.683.707 1.914.707.72.703 1.144.707 4.5.703 29.773.707 11.871.707.64.703 3.36.707.332.704 2.235.707 2.18.707 6.41.703 8.124.707.286.703.937.707 1.578.707.64.703.009.707.539.703.586.707 4.496.707.344.703.328.708.066.703.91.707.778.707.03.703.7.707 1.719.703.039.707.004.707.434.703 3.664.707.132.703 2.114.707.176.707.343.704 1.254.707.172.703.098.707.015.707.04.703.19.707.024.703.043.707.106.707-.004.703-.004.707.03.703.02.707.016h.707l.704-.012.707-.09.703.028.707-.067.707.008.703.008.707.02h.703l.707.043.707.004.703-.004.707-.004.703-.008.707.047.707-.008h.704l.707-.016.703-.023.707-.031.707-.496.703-.02.707-.098.703-.004.707.137.707.023.703.02h.707l.703.004.707.055.707-.008.704-.008.707-.02.703.11.707-.16.707-.012.703.086.707.066.703.176.707.078.707.023.703.176.707.105.703.024.707.055.708.008.703.023.707.047.703.031.707.203.707.781.703.043.707.149.703.117.707.156.707.114.703.117.707.199.703.133.708.18.707.039.703.113.707.5.703.055.707 1.043.707.05.703.594.707.266.703.07.707.188.707.12.703.04.707.187.704.063.707.039.707.047.703.043.707.011.703.094 1.414.04.703.062.707.058.703.028.707.02.707.12.703-.023.707.086.704.105.707.012.707.008.703-.012.707-.054.703-.047.707-.04.707-.023.703-.121.707-.031.703.004.707-.113.707-.477.703-.18.707-.062.704-.098.707-.125h.707l.703-.055.707.028.703-.012.707-.027.707.023.703-.187.707-.118.703-.136.707-.078.707-.27.703-.164.707-.05.704-.345.707-1.097.707-.133.703-.332.707-.914.703-.395.707-.058.707-.262.703-.164.707-1.547.703-.45.707-.304.707-.762.703-.671.708-.352.703-.684.707-.863.707-3.375.703-.355.707-.914.703-.844.707-.188.707-.41.703-1.273.707-.551.703-.426.707-.965.707-.113.704-.02.707-.062.703-.11.707-.335.707-.031.703-.067.707-.086.703-.203.707-.101.707-.055.703-.04.707-.038.703-.012.707-.113.707-.059.704-.09.707-.058.703-.024.707-.008.707-.054.703-.051.707-.031.703-.059.707-.012.707-.101.703-.008h.707l.703.097.707-.043.707-.023.704-.02.707-.019.703-.082.707-.605.707-.032.703-.047.707-.101.703-.14.707.085.707-.3.703.023.707-.04.703-.183.707-.02.707.098.704.133.707.984.703.711.707 3.922.707.57.703 1.454.707 4.992.707 1.18.703 1.011.707.559.703.562.707.54.707.343.703.406.708.586.703.067.707.144.707.266.703-.004.707.062.703-.035.707-.25.707-.242.703-.059.707.348.703.07.707.73.707 5.759.704 3.426.707 3.824.703 4.16.707 3.922.707 1.933.703.899.707 2.422.703 1.722.707 1.707.707 1.047.703.68.707.86.703.44.707.114.707.137.704.125.707.86.703.745.707.957.707.403.703.218h.707l.703.274.707.004.707.058.703.024.707.23h.703l.707.016.707.172.704.125.707.004.703-.012.707-.012.707-.004.703.012.707.008.703-.008.707.004.707.008.703.008.707-.016.703-.004.707-.004.707-.062.704-.027.707.008h.703l.707-.043.707-.024.703-.043.707-.027.703-.012.707-.047h.707l.703-.086.707-.03.703-.099.707-.023.708-.004.703-.055.707-.008.703-.039.707-.004.707-.039.703-.11" fill="none" stroke="#00f" stroke-linecap="round" stroke-linejoin="round" stroke-miterlimit="10"/></g><use height="100%" width="100%" y="182.945" x="21.641" xlink:href="#b"/><use height="100%" width="100%" y="176.915" x="21.641" xlink:href="#c"/><use height="100%" width="100%" y="170.797" x="21.641" xlink:href="#d"/><use height="100%" width="100%" y="165.587" x="21.641" xlink:href="#e"/><use height="100%" width="100%" y="161.666" x="21.641" xlink:href="#f"/><use height="100%" width="100%" y="155.514" x="21.641" xlink:href="#g"/><use height="100%" width="100%" y="151.402" x="21.641" xlink:href="#h"/><use height="100%" width="100%" y="148.624" x="21.641" xlink:href="#c"/><use height="100%" width="100%" y="142.506" x="21.641" xlink:href="#g"/><use height="100%" width="100%" y="138.395" x="21.641" xlink:href="#i"/><use height="100%" width="100%" y="135.216" x="21.641" xlink:href="#j"/><use height="100%" width="100%" y="125.475" x="21.641" xlink:href="#f"/><use height="100%" width="100%" y="119.322" x="21.641" xlink:href="#k"/><use height="100%" width="100%" y="113.194" x="21.641" xlink:href="#l"/><use height="100%" width="100%" y="106.856" x="21.641" xlink:href="#i"/><use height="100%" width="100%" y="103.678" x="21.641" xlink:href="#g"/><use height="100%" width="100%" y="99.566" x="21.641" xlink:href="#k"/><use height="100%" width="100%" y="93.438" x="21.641" xlink:href="#e"/><use height="100%" width="100%" y="89.518" x="21.641" xlink:href="#f"/><path d="M69.047 256.719V15.82" fill="none" stroke="#000" stroke-linecap="square" stroke-miterlimit="10"/><path d="M69.047 256.719h2M69.047 251.902h2M69.047 247.082h2M69.047 242.266h2M69.047 237.445h2M69.047 232.629h2M69.047 227.813h2M69.047 222.992h2M69.047 218.176h2M69.047 213.355h2M69.047 208.54h2M69.047 203.723h2M69.047 198.902h2M69.047 194.086h2M69.047 189.266h2M69.047 184.45h2M69.047 179.633h2M69.047 174.813h2M69.047 169.996h2M69.047 165.176h2M69.047 160.36h2M69.047 155.543h2M69.047 150.723h2M69.047 145.906h2M69.047 141.086h2M69.047 136.27h2M69.047 131.453h2M69.047 126.633h2M69.047 121.816h2M69.047 116.996h2M69.047 112.18h2M69.047 107.363h2M69.047 102.543h2M69.047 97.727h2M69.047 92.906h2M69.047 88.09h2M69.047 83.273h2M69.047 78.453h2M69.047 73.637h2M69.047 68.816h2M69.047 64h2M69.047 59.184h2M69.047 54.363h2M69.047 49.547h2M69.047 44.727h2M69.047 39.91h2M69.047 35.094h2M69.047 30.273h2M69.047 25.457h2M69.047 20.637h2M69.047 15.82h2M69.047 11.004h2M69.047 256.719h5M69.047 208.54h5M69.047 160.36h5M69.047 112.18h5M69.047 64h5M69.047 15.82h5" fill="none" stroke="#000" stroke-miterlimit="10"/><use height="100%" width="100%" y="260.43" x="54.008" xlink:href="#m"/><use height="100%" width="100%" y="212.25" x="32.082" xlink:href="#m"/><use height="100%" width="100%" y="212.25" x="38.444" xlink:href="#n"/><use height="100%" width="100%" y="212.25" x="41.623" xlink:href="#m"/><use height="100%" width="100%" y="212.25" x="47.985" xlink:href="#m"/><use height="100%" width="100%" y="212.25" x="54.348" xlink:href="#o"/><use height="100%" width="100%" y="164.07" x="31.641" xlink:href="#m"/><use height="100%" width="100%" y="164.07" x="38.003" xlink:href="#n"/><use height="100%" width="100%" y="164.07" x="41.182" xlink:href="#m"/><use height="100%" width="100%" y="164.07" x="47.544" xlink:href="#m"/><use height="100%" width="100%" y="164.07" x="53.906" xlink:href="#p"/><use height="100%" width="100%" y="115.891" x="31.711" xlink:href="#m"/><use height="100%" width="100%" y="115.891" x="38.073" xlink:href="#n"/><use height="100%" width="100%" y="115.891" x="41.252" xlink:href="#m"/><use height="100%" width="100%" y="115.891" x="47.614" xlink:href="#m"/><use height="100%" width="100%" y="115.891" x="53.977" xlink:href="#q"/><use height="100%" width="100%" y="67.711" x="31.762" xlink:href="#m"/><use height="100%" width="100%" y="67.711" x="38.124" xlink:href="#n"/><use height="100%" width="100%" y="67.711" x="41.303" xlink:href="#m"/><use height="100%" width="100%" y="67.711" x="47.665" xlink:href="#m"/><use height="100%" width="100%" y="67.711" x="54.027" xlink:href="#r"/><use height="100%" width="100%" y="19.531" x="38.363" xlink:href="#m"/><use height="100%" width="100%" y="19.531" x="44.726" xlink:href="#n"/><use height="100%" width="100%" y="19.531" x="47.904" xlink:href="#m"/><use height="100%" width="100%" y="19.531" x="54.267" xlink:href="#s"/><path d="M69.047 256.719h355.625" fill="none" stroke="#000" stroke-linecap="square" stroke-miterlimit="10"/><path d="M69.047 256.719v-2M77.938 256.719v-2M86.828 256.719v-2M95.719 256.719v-2M104.61 256.719v-2M113.5 256.719v-2M122.39 256.719v-2M131.281 256.719v-2M140.172 256.719v-2M149.063 256.719v-2M157.953 256.719v-2M166.844 256.719v-2M175.734 256.719v-2M184.625 256.719v-2M193.516 256.719v-2M202.406 256.719v-2M211.297 256.719v-2M220.188 256.719v-2M229.078 256.719v-2M237.969 256.719v-2M246.86 256.719v-2M255.75 256.719v-2M264.64 256.719v-2M273.531 256.719v-2M282.422 256.719v-2M291.313 256.719v-2M300.203 256.719v-2M309.094 256.719v-2M317.984 256.719v-2M326.875 256.719v-2M335.766 256.719v-2M344.656 256.719v-2M353.547 256.719v-2M362.438 256.719v-2M371.328 256.719v-2M380.219 256.719v-2M389.11 256.719v-2M398 256.719v-2M406.89 256.719v-2M415.781 256.719v-2M424.672 256.719v-2M69.047 256.719v-5M157.953 256.719v-5M246.86 256.719v-5M335.766 256.719v-5M424.672 256.719v-5" fill="none" stroke="#000" stroke-miterlimit="10"/><g><use height="100%" width="100%" y="276" x="66.527" xlink:href="#m"/></g><g><use height="100%" width="100%" y="276" x="142.93" xlink:href="#s"/><use height="100%" width="100%" y="276" x="149.292" xlink:href="#m"/><use height="100%" width="100%" y="276" x="155.654" xlink:href="#m"/><use height="100%" width="100%" y="276" x="162.017" xlink:href="#m"/><use height="100%" width="100%" y="276" x="168.379" xlink:href="#m"/></g><g><use height="100%" width="100%" y="276" x="231.652" xlink:href="#o"/><use height="100%" width="100%" y="276" x="238.015" xlink:href="#m"/><use height="100%" width="100%" y="276" x="244.377" xlink:href="#m"/><use height="100%" width="100%" y="276" x="250.739" xlink:href="#m"/><use height="100%" width="100%" y="276" x="257.102" xlink:href="#m"/></g><g><use height="100%" width="100%" y="276" x="320.57" xlink:href="#t"/><use height="100%" width="100%" y="276" x="326.933" xlink:href="#m"/><use height="100%" width="100%" y="276" x="333.295" xlink:href="#m"/><use height="100%" width="100%" y="276" x="339.657" xlink:href="#m"/><use height="100%" width="100%" y="276" x="346.02" xlink:href="#m"/></g><g><use height="100%" width="100%" y="276" x="409.34" xlink:href="#p"/><use height="100%" width="100%" y="276" x="415.702" xlink:href="#m"/><use height="100%" width="100%" y="276" x="422.064" xlink:href="#m"/><use height="100%" width="100%" y="276" x="428.427" xlink:href="#m"/><use height="100%" width="100%" y="276" x="434.789" xlink:href="#m"/></g><g><use height="100%" width="100%" y="287.641" x="217.59" xlink:href="#u"/><use height="100%" width="100%" y="287.641" x="223.698" xlink:href="#v"/><use height="100%" width="100%" y="287.641" x="226.477" xlink:href="#w"/><use height="100%" width="100%" y="287.641" x="236.218" xlink:href="#x"/><use height="100%" width="100%" y="287.641" x="242.37" xlink:href="#y"/><use height="100%" width="100%" y="287.641" x="245.549" xlink:href="#z"/><use height="100%" width="100%" y="287.641" x="249.45" xlink:href="#A"/><use height="100%" width="100%" y="287.641" x="255.798" xlink:href="#B"/><use height="100%" width="100%" y="287.641" x="261.926" xlink:href="#C"/><use height="100%" width="100%" y="287.641" x="267.844" xlink:href="#D"/><use height="100%" width="100%" y="287.641" x="273.054" xlink:href="#E"/></g></svg>