<svg xmlns="http://www.w3.org/2000/svg" xmlns:xlink="http://www.w3.org/1999/xlink" width="600" height="400" viewBox="0 0 450 300"><defs><symbol overflow="visible" id="d"><path d="M-6.484-1.969h5.671v-1.187c0-1.008-.222-1.742-.671-2.203-.457-.47-1.18-.704-2.172-.704-.977 0-1.692.235-2.14.704-.458.46-.688 1.195-.688 2.203zm-.813.985v-2.032c0-1.406.297-2.437.89-3.093.587-.664 1.5-1 2.75-1 1.262 0 2.188.336 2.782 1C-.289-5.453 0-4.422 0-3.016v2.032zm0 0"/></symbol><symbol overflow="visible" id="e"><path d="M-2.953-5.625h.437v4.14c.618-.038 1.086-.226 1.407-.562.324-.332.484-.797.484-1.39 0-.344-.04-.676-.125-1a4.141 4.141 0 0 0-.375-.97h.844A5.3 5.3 0 0 1 .14-3.39c0 .875-.25 1.57-.75 2.079-.508.511-1.204.765-2.079.765-.894 0-1.601-.238-2.124-.719-.52-.488-.782-1.144-.782-1.968 0-.739.235-1.32.703-1.75.47-.426 1.118-.641 1.938-.641zm-.266.906c-.488 0-.879.137-1.172.407-.3.273-.453.625-.453 1.062 0 .512.149.918.438 1.219.281.293.68.465 1.187.515zm0 0"/></symbol><symbol overflow="visible" id="f"><path d="M-3.297-5.484H0v.89h-3.266c-.52 0-.906.106-1.156.313-.258.199-.39.5-.39.906 0 .48.156.86.468 1.14.305.282.719.422 1.25.422H0v.907h-5.469v-.906h.844c-.32-.22-.563-.473-.719-.766a2 2 0 0 1-.25-1c0-.625.196-1.098.578-1.422.387-.32.961-.484 1.72-.484zm0 0"/></symbol><symbol overflow="visible" id="g"><path d="M-5.313-4.422h.86c-.133.25-.234.512-.297.781a3.838 3.838 0 0 0-.094.86c0 .437.07.773.203 1 .137.218.34.328.61.328.21 0 .375-.078.5-.234.117-.157.226-.477.328-.97l.078-.296c.137-.645.328-1.098.578-1.36.25-.269.594-.406 1.031-.406.512 0 .918.203 1.22.61.292.398.437.945.437 1.64 0 .305-.032.617-.094.938a6.07 6.07 0 0 1-.25.984h-.922c.168-.332.297-.656.39-.969.087-.32.126-.644.126-.968 0-.414-.07-.739-.22-.97a.688.688 0 0 0-.609-.343c-.25 0-.437.086-.562.25-.133.156-.258.516-.375 1.078l-.078.313c-.113.554-.29.953-.531 1.203-.25.25-.582.375-1 .375-.52 0-.914-.18-1.188-.547-.281-.363-.422-.883-.422-1.563 0-.32.028-.628.078-.921.043-.301.11-.57.204-.813zm0 0"/></symbol><symbol overflow="visible" id="h"><path d="M-5.469-.938v-.906H0v.907zm-2.125 0v-.906h1.14v.907zm0 0"/></symbol><symbol overflow="visible" id="i"><path d="M-7.016-1.828h1.547v-1.86h.703v1.86h2.97c.437 0 .726-.063.859-.188.125-.125.187-.375.187-.75v-.921H0v.921c0 .7-.129 1.184-.39 1.454-.258.261-.727.39-1.407.39h-2.969v.656h-.703v-.656h-1.547zm0 0"/></symbol><symbol overflow="visible" id="j"><path d="M.516-3.219c.644.25 1.066.5 1.265.75.196.242.297.559.297.953v.72h-.75v-.516c0-.25-.058-.442-.172-.579-.117-.132-.39-.285-.828-.453l-.422-.172-5.375 2.22v-.954l4.282-1.703-4.282-1.719v-.953zm0 0"/></symbol><symbol overflow="visible" id="k"><path d="M3.172-6.64c-.5 0-.883.25-1.14.75-.25.5-.376 1.25-.376 2.25s.125 1.75.375 2.25c.258.5.64.75 1.14.75.52 0 .907-.25 1.157-.75.258-.5.39-1.25.39-2.25s-.132-1.75-.39-2.25c-.25-.5-.637-.75-1.156-.75zm0-.782c.82 0 1.445.324 1.875.969.437.648.656 1.586.656 2.812 0 1.23-.219 2.168-.656 2.813-.43.648-1.055.969-1.875.969-.813 0-1.438-.32-1.875-.97-.43-.644-.64-1.581-.64-2.812 0-1.226.21-2.164.64-2.812.437-.645 1.062-.969 1.875-.969zm0 0"/></symbol><symbol overflow="visible" id="l"><path d="M1.063-1.234h1.03V0h-1.03zm0 0"/></symbol><symbol overflow="visible" id="m"><path d="M1.234-.828H2.86v-5.563l-1.765.344v-.89l1.75-.36h.984v6.469h1.61V0H1.234zm0 0"/></symbol><symbol overflow="visible" id="n"><path d="M1.922-.828h3.437V0H.734v-.828c.375-.383.883-.906 1.532-1.563a52.138 52.138 0 0 0 1.218-1.265c.313-.352.532-.649.657-.89.125-.25.187-.493.187-.735 0-.383-.137-.696-.406-.938-.274-.25-.625-.375-1.063-.375-.312 0-.64.059-.984.172-.336.106-.7.266-1.094.484v-1a8.838 8.838 0 0 1 1.11-.359c.343-.082.66-.125.953-.125.75 0 1.347.188 1.797.563.457.375.687.882.687 1.515 0 .305-.058.59-.172.86-.117.261-.32.574-.61.937-.085.094-.343.371-.78.828-.438.45-1.055 1.078-1.844 1.89zm0 0"/></symbol><symbol overflow="visible" id="o"><path d="M4.063-3.938c.468.106.832.32 1.093.641.27.313.407.703.407 1.172 0 .719-.25 1.277-.75 1.672-.493.398-1.196.594-2.11.594a4.89 4.89 0 0 1-.937-.094 7.464 7.464 0 0 1-1-.266v-.953c.27.156.566.277.89.36.332.085.676.125 1.032.125.613 0 1.082-.118 1.406-.36.32-.25.484-.61.484-1.078 0-.426-.152-.758-.453-1-.305-.238-.719-.36-1.25-.36h-.86v-.812h.891c.489 0 .86-.098 1.11-.297.257-.195.39-.476.39-.843 0-.364-.136-.645-.406-.844-.262-.207-.637-.313-1.125-.313-.273 0-.563.032-.875.094-.313.055-.652.14-1.016.266v-.875c.375-.102.723-.18 1.047-.235.332-.05.64-.078.922-.078.75 0 1.344.172 1.781.516.438.336.657.793.657 1.375 0 .406-.118.75-.344 1.031-.23.273-.559.46-.984.563zm0 0"/></symbol><symbol overflow="visible" id="p"><path d="M3.781-6.438L1.297-2.546H3.78zm-.265-.859h1.25v4.75h1.03v.828h-1.03V0H3.78v-1.719H.484v-.953zm0 0"/></symbol><symbol overflow="visible" id="q"><path d="M1.969-6.484v2.75h1.234c.457 0 .813-.118 1.063-.36.257-.238.39-.578.39-1.015 0-.438-.133-.774-.39-1.016-.25-.238-.606-.36-1.063-.36zm-.985-.813h2.22c.82 0 1.44.188 1.858.563.415.367.625.906.625 1.625 0 .718-.21 1.261-.625 1.625-.417.367-1.039.546-1.859.546H1.97V0H.984zm0 0"/></symbol><symbol overflow="visible" id="r"><path d="M3.063-4.844c-.481 0-.86.188-1.141.563-.281.375-.422.89-.422 1.547 0 .656.133 1.171.406 1.546.282.375.664.563 1.157.563.476 0 .859-.188 1.14-.563.281-.375.422-.89.422-1.546 0-.645-.14-1.157-.422-1.532a1.349 1.349 0 0 0-1.14-.578zm0-.75c.78 0 1.394.258 1.843.766.446.5.672 1.2.672 2.094 0 .898-.226 1.601-.672 2.109-.449.512-1.062.766-1.843.766-.782 0-1.399-.254-1.844-.766-.45-.508-.672-1.21-.672-2.11 0-.894.223-1.593.672-2.093.445-.508 1.062-.766 1.843-.766zm0 0"/></symbol><symbol overflow="visible" id="s"><path d="M4.422-5.313v.86a3.218 3.218 0 0 0-.781-.297 3.838 3.838 0 0 0-.86-.094c-.437 0-.773.07-1 .203a.673.673 0 0 0-.328.61c0 .21.078.375.234.5.157.117.477.226.97.328l.296.078c.645.137 1.098.328 1.36.578.269.25.406.594.406 1.031 0 .512-.203.918-.61 1.22-.398.292-.945.437-1.64.437A4.89 4.89 0 0 1 1.53.047a6.07 6.07 0 0 1-.984-.25v-.922c.332.168.656.297.969.39.32.087.644.126.968.126.414 0 .739-.07.97-.22a.688.688 0 0 0 .343-.609c0-.25-.086-.437-.25-.562-.156-.133-.516-.258-1.078-.375l-.313-.078c-.554-.113-.953-.29-1.203-.531-.25-.25-.375-.582-.375-1 0-.52.18-.914.547-1.188.363-.281.883-.422 1.563-.422.32 0 .628.028.921.078.301.043.57.11.813.204zm0 0"/></symbol><symbol overflow="visible" id="t"><path d="M.938-5.469h.906V0H.937zm0-2.125h.906v1.14H.937zm0 0"/></symbol><symbol overflow="visible" id="u"><path d="M1.828-7.016v1.547h1.86v.703h-1.86v2.97c0 .437.063.726.188.859.125.125.375.187.75.187h.921V0h-.921c-.7 0-1.184-.129-1.454-.39-.261-.258-.39-.727-.39-1.407v-2.969H.266v-.703h.656v-1.547zm0 0"/></symbol><symbol overflow="visible" id="v"><path d="M5.484-3.297V0h-.89v-3.266c0-.52-.106-.906-.313-1.156-.199-.258-.5-.39-.906-.39-.48 0-.86.156-1.14.468-.282.305-.422.719-.422 1.25V0H.905v-5.469h.906v.844c.22-.32.473-.563.766-.719a2 2 0 0 1 1-.25c.625 0 1.098.196 1.422.578.32.387.484.961.484 1.72zm0 0"/></symbol><symbol overflow="visible" id="x"><path d="M3.719-7.594v.75h-.86c-.324 0-.546.07-.671.203-.126.125-.188.356-.188.688v.484h1.469v.703H2V0h-.906v-4.766h-.86v-.703h.86v-.375c0-.613.14-1.054.422-1.328.28-.281.726-.422 1.343-.422zm0 0"/></symbol><symbol overflow="visible" id="y"><path d="M4.875-5.266v.844a3.995 3.995 0 0 0-.766-.312c-.25-.07-.507-.11-.765-.11-.586 0-1.04.188-1.36.563-.324.367-.484.883-.484 1.547 0 .668.16 1.187.484 1.562.32.367.774.547 1.36.547.258 0 .515-.031.765-.094.258-.07.516-.18.766-.328v.844c-.25.117-.512.2-.781.25A3.626 3.626 0 0 1 3.25.14c-.836 0-1.496-.254-1.984-.766-.48-.52-.72-1.223-.72-2.11 0-.882.243-1.581.735-2.093.489-.508 1.16-.766 2.016-.766.281 0 .55.028.812.078.258.055.516.137.766.25zm0 0"/></symbol><symbol overflow="visible" id="z"><path d="M5.484-3.297V0h-.89v-3.266c0-.52-.106-.906-.313-1.156-.199-.258-.5-.39-.906-.39-.48 0-.86.156-1.14.468-.282.305-.422.719-.422 1.25V0H.905v-7.594h.906v2.969c.22-.32.473-.563.766-.719a2 2 0 0 1 1-.25c.625 0 1.098.196 1.422.578.32.387.484.961.484 1.72zm0 0"/></symbol><symbol overflow="visible" id="A"><path d="M3.422-2.75c-.719 0-1.219.086-1.5.25-.281.168-.422.45-.422.844 0 .324.102.578.313.765.207.188.492.282.859.282.5 0 .898-.176 1.203-.532.3-.351.453-.82.453-1.406v-.203zm1.797-.375V0h-.89v-.828c-.212.336-.47.578-.782.734-.305.157-.672.235-1.11.235-.562 0-1.011-.157-1.343-.47-.336-.312-.5-.734-.5-1.265 0-.613.207-1.078.625-1.39.414-.313 1.031-.47 1.843-.47h1.266v-.093c0-.406-.14-.723-.422-.953-.273-.227-.652-.344-1.14-.344-.313 0-.621.043-.922.125A3.704 3.704 0 0 0 1-4.39v-.828c.332-.125.648-.218.953-.281.313-.063.613-.094.906-.094.79 0 1.38.203 1.766.61.395.406.594 1.027.594 1.859zm0 0"/></symbol><symbol overflow="visible" id="B"><path d="M4.547-2.797c0-.656-.137-1.16-.406-1.515-.274-.352-.649-.532-1.125-.532-.493 0-.871.18-1.141.532-.262.355-.39.859-.39 1.515 0 .649.128 1.152.39 1.516.27.355.648.531 1.14.531.477 0 .852-.176 1.126-.531.27-.364.406-.867.406-1.516zm.89 2.125c0 .926-.21 1.613-.625 2.063-.406.457-1.039.687-1.89.687-.313 0-.61-.027-.89-.078a4.265 4.265 0 0 1-.813-.203V.922c.258.144.515.25.765.312.258.07.524.11.797.11.582 0 1.02-.157 1.313-.469.3-.305.453-.766.453-1.39V-.97a1.94 1.94 0 0 1-.719.735C3.535-.078 3.188 0 2.781 0c-.668 0-1.21-.254-1.625-.766-.406-.507-.61-1.187-.61-2.03 0-.845.204-1.52.61-2.032.414-.508.957-.766 1.625-.766.406 0 .754.078 1.047.235.29.156.531.398.719.718v-.828h.89zm0 0"/></symbol><symbol overflow="visible" id="C"><path d="M5.625-2.953v.437h-4.14c.038.618.226 1.086.562 1.407.332.324.797.484 1.39.484.344 0 .676-.04 1-.125.333-.082.657-.207.97-.375v.844A5.3 5.3 0 0 1 3.39.14c-.875 0-1.57-.25-2.079-.75C.801-1.117.547-1.813.547-2.688c0-.894.238-1.601.719-2.124.488-.52 1.144-.782 1.968-.782.739 0 1.32.235 1.75.703.426.47.641 1.118.641 1.938zm-.906-.266c0-.488-.137-.879-.407-1.172-.273-.3-.625-.453-1.062-.453-.512 0-.918.149-1.219.438-.293.281-.465.68-.515 1.187zm0 0"/></symbol><symbol overflow="visible" id="D"><path d="M1.813-.828v2.906H.905v-7.547h.906v.828c.188-.32.422-.562.704-.718.289-.157.64-.235 1.046-.235.665 0 1.204.266 1.61.797.414.524.625 1.211.625 2.063 0 .867-.211 1.562-.625 2.093-.406.524-.945.782-1.61.782-.406 0-.757-.078-1.046-.235C2.234-.25 2-.492 1.812-.828zm3.062-1.906c0-.657-.14-1.172-.422-1.547a1.299 1.299 0 0 0-1.11-.563c-.48 0-.855.188-1.124.563-.274.375-.406.89-.406 1.547 0 .668.132 1.187.406 1.562.27.375.644.563 1.125.563.469 0 .836-.188 1.11-.563.28-.375.421-.894.421-1.562zm0 0"/></symbol><symbol overflow="visible" id="E"><path d="M1.063-4.547h6.25v.828h-6.25zm0 2h6.25v.828h-6.25zm0 0"/></symbol><clipPath id="a"><path d="M170 21h74v214.078h-74zm0 0"/></clipPath><clipPath id="b"><path d="M75.41 121h349.262v114.078H75.41zm0 0"/></clipPath><clipPath id="c"><path d="M75.41 158h349.262v77.078H75.41zm0 0"/></clipPath></defs><path d="M75.41 15.82v219.258M162.727 15.82v219.258M250.04 15.82v219.258M337.355 15.82v219.258M424.672 15.82v219.258M75.41 235.078h349.262M75.41 180.266h349.262M75.41 125.45h349.262M75.41 70.637h349.262M75.41 15.82h349.262" fill="none" stroke="#d1d1d1" stroke-miterlimit="10" stroke-dasharray="5,5"/><g clip-path="url(#a)"><path d="M170.766 234.98l.562-.039.281-.027.286-.027.28-.031.282-.04.281-.043.282-.05.28-.059.286-.07.281-.074.281-.086.282-.102.28-.113.286-.125.281-.145.282-.164.28-.183.282-.203.285-.23.281-.259.282-.285.281-.316.281-.356.285-.387.282-.433.28-.477.282-.52.281-.573.286-.63.28-.683.282-.746.281-.813.282-.882.285-.953.281-1.032.281-1.11.281-1.194.282-1.286.281-1.37.285-1.47.281-1.562.282-1.668.28-1.77.282-1.87.285-1.985.282-2.094.28-2.203.282-2.316.281-2.43.285-2.543.282-2.66.28-2.777.282-2.887.281-3 .286-3.113.28-3.227.282-3.332.281-3.437.282-3.54.285-3.64.281-3.734.281-3.829.281-3.914.282-4 .285-4.074.281-4.148.281-4.211.282-4.274.28-4.328.282-4.37.285-4.411.282-4.438.28-4.46.563-8.954.285-4.472.282-4.453.281-4.43.281-4.39.281-4.34.286-4.278.28-4.207.282-4.121.281-4.023.282-3.915.285-3.789.281-3.652.281-3.5.282-3.34.28-3.164.286-2.976.281-2.778.281-2.566.282-2.344.28-2.113.286-1.867.281-1.621.282-1.364.28-1.097.282-.829.281-.554.285-.278h.282l.281.282.281.558.281.832.286 1.106.28 1.37.282 1.63.281 1.887.282 2.128.285 2.36.281 2.59.281 2.797.282 2.996.28 3.183.286 3.356.281 3.511.281 3.653.282 3.781.281 3.89.285 3.981.281 4.063.282 4.125.28 4.171.282 4.204.285 4.218.282 4.22.28 4.202.282 4.176.281 4.137.282 4.082.285 4.011.28 3.938.282 3.848.281 3.75.282 3.644.285 3.527.281 3.407.281 3.281.282 3.145.28 3.007.286 2.868.281 2.722.281 2.582.282 2.438.281 2.293.285 2.156.281 2.012.282 1.882.28 1.747.282 1.625.285 1.503.282 1.395.28 1.285.282 1.192.281 1.101.285 1.02.282.949.281.887.281.832.281.789.282.757.285.727.281.715.281.707.282.703.28.711.286.727.281.75.282.77.28.804.282.84.285.875.281.918.282.96.28 1 .282 1.047.285 1.09.282 1.13.28 1.167.282 1.207.281 1.238.285 1.27.282 1.297.281 1.316.281 1.332.281 1.348.286 1.351.28 1.356.282 1.352.281 1.343.282 1.332.28 1.313.286 1.293.281 1.27.282 1.238.28 1.203.282 1.172.285 1.132.281 1.09.282 1.047.281 1.004.281.961.285.91.282.867.28.82.282.774.281.73.286.684.28.637.282.597.281.555.282.516.285.476.28.442.282.406.281.371.282.344.285.312.281.282.281.261.282.235.28.21.282.196.285.172.281.156.282.14.281.126.281.113.285.098.282.09.28.078.282.07.281.062.286.055.28.047.282.043.281.04.282.03.285.031.562.047.281.016.282.02.285.011.844.035.28.008.286.004.281.008.563.008" fill="none" stroke="#00f" stroke-linecap="round" stroke-linejoin="round" stroke-miterlimit="10"/></g><g clip-path="url(#b)"><path d="M60.637 235.078h1.52l1.515-.004 1.52-.004 1.515-.004 1.516-.008 1.52-.008 1.515-.012 1.52-.015 1.515-.012 1.52-.012 1.515-.011 1.52-.008 1.515-.008 1.516-.004 1.52-.004h3.035l1.515.004h1.52l1.515-.004 1.516-.008 1.52-.012 1.515-.016 1.52-.011 1.515-.012 1.52-.008 1.515-.012 1.52-.011 1.516-.024 1.515-.035 1.52-.047 1.515-.058 1.52-.06 1.516-.054 1.52-.047 1.515-.03 1.52-.02 1.515-.012 1.516-.008 1.519-.004 1.516-.004 1.52-.004 1.515.004 1.52.008 1.515.012 1.52.015 3.03.031 1.52.012 1.516.008h1.52l1.515-.008 1.52-.012 1.515-.008 1.516-.004 1.52.004 1.515.016 1.52.02 1.515.023 1.52.023 1.515.016 1.52.008h1.515l1.516-.012 1.52-.027 1.515-.043 1.52-.07 1.515-.098 1.52-.133 1.516-.176 1.52-.23 1.515-.293 1.515-.379 1.52-.508 1.516-.699 1.519-.992 1.516-1.453 1.52-2.149 1.515-3.137 1.515-4.433 1.52-6.008 1.516-7.726 1.52-9.403 1.515-10.82 1.52-11.79 1.515-12.179 1.52-11.89 1.515-10.829 1.516-8.906 1.52-6.066 1.515-2.418 1.52 1.726 1.515 5.852 1.52 9.351 1.515 11.739 1.52 12.781 1.515 12.559 1.516 11.363 1.52 9.613 1.515 7.688 1.52 5.882 1.515 4.375 1.52 3.23 1.515 2.466 1.52 2.011 1.516 1.79 1.515 1.69 1.52 1.626 1.515 1.52 1.52 1.359 1.515 1.14 1.52.895 1.516.645 1.515.421 1.52.239 1.515.105 1.52.024 1.516-.016 1.52-.027 1.515-.02 1.52-.012 1.515-.02 1.516-.038 1.52-.063 1.515-.09 1.52-.117 1.515-.14 1.52-.149 1.515-.156 1.52-.152 1.515-.153 1.516-.148 1.52-.152 1.515-.157 1.52-.152 1.515-.133 1.52-.082 1.515-.012 1.52.086 1.515.18 1.516.273 1.52.333 1.515.363 1.52.355 1.515.305 1.52.227 1.515.136 1.516.035 1.52-.054 1.515-.121 1.52-.168 1.515-.176 1.52-.156 1.516-.114 1.52-.062h1.515l1.515.05 1.52.083 1.516.101 1.52.094 1.515.082 1.52.062 1.515.036 1.52.008 1.515-.028 1.516-.062 1.52-.098 1.515-.125 1.52-.137 1.515-.129 1.52-.097 1.515-.051 1.52.004 1.515.043 1.516.07 1.52.086 1.515.086 1.52.082 1.515.074 1.52.055 1.515.031 1.516.012 1.52-.012 1.515-.023 1.52-.035 1.515-.032 1.52-.02 1.515-.01 1.52-.02 1.516-.04 1.515-.113 1.52-.242 1.515-.48 1.52-.844 1.516-1.371 1.52-2.035 1.515-2.785 1.52-3.477 1.515-3.95 1.515-4.027 1.52-3.613 1.516-2.762 1.52-1.68 1.515-.706 1.52-.246 1.515-.614 1.52-1.933 1.515-4.078 1.516-6.641 1.52-8.973 1.515-10.394 1.52-10.348 1.515-8.629 1.52-5.46 1.515-1.458 1.516 2.578 1.52 5.926 1.515 8.145 1.52 9.16 1.515 9.191 1.52 8.606 1.515 7.738 1.52 6.824 1.515 5.961 1.516 5.145 1.52 4.367 1.515 3.613 1.52 2.883 1.515 2.219 1.52 1.644 1.516 1.18 1.52.828 1.515.582 1.515.418 1.52.313 1.515.246 1.52.199 1.516.168 1.52.133 1.515.109 1.515.082 1.52.066 1.516.043 1.52.036 1.515.023 1.52.016 1.515.015 1.52.008 1.515.008 1.516.004 1.52.004h1.515l1.52.004h3.034" fill="none" stroke="#007f00" stroke-linecap="round" stroke-linejoin="round" stroke-miterlimit="10"/></g><g clip-path="url(#c)"><path d="M64.219 235.078h1.496l2.992-.008 1.496-.008 1.496-.012 1.496-.023 1.493-.031 1.496-.047 1.496-.063 1.496-.082 1.496-.109 1.496-.137 1.496-.172 1.496-.21 1.496-.247 1.496-.265 1.496-.262 1.497-.23 1.496-.168 1.496-.086 1.496-.008 1.496.062 1.496.102 1.496.113 1.496.094 1.496.05h1.496l1.496-.05 1.497-.078 1.496-.09 1.496-.074 1.496-.04 1.496.005 1.496.046 2.992.149 1.496.05 1.496.012 1.496-.035 1.497-.078 1.496-.11 1.496-.12 1.496-.114 1.496-.093 1.496-.059 1.496-.027h1.496l1.496.02 2.993.062 1.496.035 1.496.04 1.496.05 1.496.062 1.496.075 2.992.156 1.492.07 1.496.063 1.497.05 1.496.032 1.496.02 1.496-.005 1.496-.031 1.496-.063 1.496-.105 1.496-.156 1.496-.219 1.496-.285 1.496-.348 1.497-.402 1.496-.442 1.496-.468 1.496-.5 1.496-.559 1.496-.684 1.496-.933 1.496-1.363 1.496-2.012 1.496-2.899 1.497-3.968 1.496-5.149 1.496-6.312 1.496-7.336 1.496-8.07 1.496-8.376 1.496-8.101 1.496-7.11 1.496-5.355 1.496-2.906 1.496-.016 1.497 2.918 1.496 5.469 1.496 7.277 1.496 8.157 1.496 8.132 1.496 7.395 1.496 6.219 1.496 4.875 1.496 3.617 1.496 2.582 1.496 1.867 1.497 1.477 1.496 1.347 1.496 1.39 1.496 1.485 1.496 1.547 1.496 1.5 1.496 1.34 1.492 1.102 1.496.824 1.497.57 1.496.36 1.496.218 1.496.13 1.496.081 1.496.059 1.496.03 1.496.017 1.496-.02 1.496-.05 1.496-.094 1.497-.137 1.496-.172 1.496-.188 1.496-.175 1.496-.13 1.496-.058 1.496.024 1.496.082 1.496.105 1.496.094 1.496.039 1.497-.031 1.496-.094 1.496-.129 1.496-.117 1.496-.059 1.496.028 1.496.125 1.496.218 2.992.547 1.497.227 1.496.133 1.496.008 1.496-.133 1.496-.266 1.496-.375 1.496-.457 1.496-.512 1.496-.53 1.496-.536 1.496-.512 1.497-.472 1.496-.403 1.496-.32 1.496-.234 1.496-.192 1.496-.215 1.492-.343 1.496-.575 1.496-.898 1.496-1.258 1.497-1.602 1.496-1.886 1.496-2.09 1.496-2.211 1.496-2.258 1.496-2.246 1.496-2.137 1.496-1.894 1.496-1.485 1.496-.87 1.497-.11 1.496.734 1.496 1.54 1.496 2.19 1.496 2.626 1.496 2.816 1.496 2.778 1.496 2.574 1.496 2.27 1.496 1.917 1.496 1.57 1.497 1.235 1.496.945 1.496.684 1.496.45 1.496.233 1.496.028 1.496-.2 1.496-.46 1.496-.801 1.496-1.258 1.496-1.855 1.497-2.567 1.496-3.289 1.496-3.867 1.496-4.094 1.496-3.82 1.496-2.992 1.496-1.762 1.496-.406 1.496.675 1.496 1.137 1.497.758 1.496-.453 1.496-2.246 1.496-4.184 1.496-5.722 1.496-6.375 1.492-5.864 1.496-4.195 1.496-1.684 1.496 1.141 1.497 3.707 1.496 5.602 1.496 6.613 1.496 6.808 1.496 6.395 1.496 5.64 1.496 4.794 1.496 3.988 1.496 3.293 1.496 2.703 1.496 2.207 1.497 1.781 1.496 1.414 1.496 1.102 1.496.844 1.496.625 1.496.453 1.496.32 1.496.215 1.496.14 1.496.102 1.497.086 1.496.094 1.496.12 1.496.145 1.496.172 2.992.375 1.496.18 1.496.16 1.496.133 1.496.11 1.497.077 1.496.059 1.496.035 1.496.023 1.496.016 2.992.008" fill="none" stroke="red" stroke-linecap="round" stroke-linejoin="round" stroke-miterlimit="10"/></g><use height="100%" width="100%" y="141.461" x="21.641" xlink:href="#d"/><use height="100%" width="100%" y="133.761" x="21.641" xlink:href="#e"/><use height="100%" width="100%" y="127.608" x="21.641" xlink:href="#f"/><use height="100%" width="100%" y="121.271" x="21.641" xlink:href="#g"/><use height="100%" width="100%" y="116.061" x="21.641" xlink:href="#h"/><use height="100%" width="100%" y="113.282" x="21.641" xlink:href="#i"/><use height="100%" width="100%" y="109.361" x="21.641" xlink:href="#j"/><path d="M75.41 235.078V15.82" fill="none" stroke="#000" stroke-linecap="square" stroke-miterlimit="10"/><path d="M75.41 235.078h2M75.41 229.598h2M75.41 224.117h2M75.41 218.633h2M75.41 213.152h2M75.41 207.672h2M75.41 202.188h2M75.41 196.707h2M75.41 191.227h2M75.41 185.746h2M75.41 180.266h2M75.41 174.781h2M75.41 169.3h2M75.41 163.82h2M75.41 158.336h2M75.41 152.855h2M75.41 147.375h2M75.41 141.895h2M75.41 136.414h2M75.41 130.93h2M75.41 125.45h2M75.41 119.969h2M75.41 114.484h2M75.41 109.004h2M75.41 103.523h2M75.41 98.043h2M75.41 92.563h2M75.41 87.078h2M75.41 81.598h2M75.41 76.117h2M75.41 70.637h2M75.41 65.152h2M75.41 59.672h2M75.41 54.191h2M75.41 48.707h2M75.41 43.227h2M75.41 37.746h2M75.41 32.266h2M75.41 26.781h2M75.41 21.3h2M75.41 15.82h2M75.41 10.34h2M75.41 235.078h5M75.41 180.266h5M75.41 125.45h5M75.41 70.637h5M75.41 15.82h5" fill="none" stroke="#000" stroke-miterlimit="10"/><use height="100%" width="100%" y="238.789" x="60.371" xlink:href="#k"/><use height="100%" width="100%" y="183.977" x="32" xlink:href="#k"/><use height="100%" width="100%" y="183.977" x="38.362" xlink:href="#l"/><use height="100%" width="100%" y="183.977" x="41.541" xlink:href="#k"/><use height="100%" width="100%" y="183.977" x="47.903" xlink:href="#k"/><use height="100%" width="100%" y="183.977" x="54.266" xlink:href="#k"/><use height="100%" width="100%" y="183.977" x="60.628" xlink:href="#m"/><use height="100%" width="100%" y="129.16" x="32.078" xlink:href="#k"/><use height="100%" width="100%" y="129.16" x="38.44" xlink:href="#l"/><use height="100%" width="100%" y="129.16" x="41.619" xlink:href="#k"/><use height="100%" width="100%" y="129.16" x="47.981" xlink:href="#k"/><use height="100%" width="100%" y="129.16" x="54.344" xlink:href="#k"/><use height="100%" width="100%" y="129.16" x="60.706" xlink:href="#n"/><use height="100%" width="100%" y="74.348" x="31.879" xlink:href="#k"/><use height="100%" width="100%" y="74.348" x="38.241" xlink:href="#l"/><use height="100%" width="100%" y="74.348" x="41.42" xlink:href="#k"/><use height="100%" width="100%" y="74.348" x="47.782" xlink:href="#k"/><use height="100%" width="100%" y="74.348" x="54.145" xlink:href="#k"/><use height="100%" width="100%" y="74.348" x="60.507" xlink:href="#o"/><use height="100%" width="100%" y="19.531" x="31.641" xlink:href="#k"/><use height="100%" width="100%" y="19.531" x="38.003" xlink:href="#l"/><use height="100%" width="100%" y="19.531" x="41.182" xlink:href="#k"/><use height="100%" width="100%" y="19.531" x="47.544" xlink:href="#k"/><use height="100%" width="100%" y="19.531" x="53.906" xlink:href="#k"/><use height="100%" width="100%" y="19.531" x="60.269" xlink:href="#p"/><path d="M75.41 235.078h349.262" fill="none" stroke="#000" stroke-linecap="square" stroke-miterlimit="10"/><path d="M75.41 235.078v-2M84.14 235.078v-2M92.875 235.078v-2M101.605 235.078v-2M110.336 235.078v-2M119.066 235.078v-2M127.8 235.078v-2M136.531 235.078v-2M145.262 235.078v-2M153.992 235.078v-2M162.727 235.078v-2M171.457 235.078v-2M180.188 235.078v-2M188.918 235.078v-2M197.652 235.078v-2M206.383 235.078v-2M215.113 235.078v-2M223.848 235.078v-2M232.578 235.078v-2M241.309 235.078v-2M250.04 235.078v-2M258.773 235.078v-2M267.504 235.078v-2M276.234 235.078v-2M284.965 235.078v-2M293.7 235.078v-2M302.43 235.078v-2M311.16 235.078v-2M319.89 235.078v-2M328.625 235.078v-2M337.355 235.078v-2M346.086 235.078v-2M354.82 235.078v-2M363.55 235.078v-2M372.281 235.078v-2M381.012 235.078v-2M389.746 235.078v-2M398.477 235.078v-2M407.207 235.078v-2M415.938 235.078v-2M424.672 235.078v-2M75.41 235.078v-5M162.727 235.078v-5M250.04 235.078v-5M337.355 235.078v-5M424.672 235.078v-5" fill="none" stroke="#000" stroke-miterlimit="10"/><g><use height="100%" width="100%" y="254.359" x="72.891" xlink:href="#k"/></g><g><use height="100%" width="100%" y="254.359" x="147.699" xlink:href="#m"/><use height="100%" width="100%" y="254.359" x="154.062" xlink:href="#k"/><use height="100%" width="100%" y="254.359" x="160.424" xlink:href="#k"/><use height="100%" width="100%" y="254.359" x="166.786" xlink:href="#k"/><use height="100%" width="100%" y="254.359" x="173.148" xlink:href="#k"/></g><g><use height="100%" width="100%" y="254.359" x="234.832" xlink:href="#n"/><use height="100%" width="100%" y="254.359" x="241.194" xlink:href="#k"/><use height="100%" width="100%" y="254.359" x="247.557" xlink:href="#k"/><use height="100%" width="100%" y="254.359" x="253.919" xlink:href="#k"/><use height="100%" width="100%" y="254.359" x="260.281" xlink:href="#k"/></g><g><use height="100%" width="100%" y="254.359" x="322.164" xlink:href="#o"/><use height="100%" width="100%" y="254.359" x="328.526" xlink:href="#k"/><use height="100%" width="100%" y="254.359" x="334.889" xlink:href="#k"/><use height="100%" width="100%" y="254.359" x="341.251" xlink:href="#k"/><use height="100%" width="100%" y="254.359" x="347.613" xlink:href="#k"/></g><g><use height="100%" width="100%" y="254.359" x="409.34" xlink:href="#p"/><use height="100%" width="100%" y="254.359" x="415.702" xlink:href="#k"/><use height="100%" width="100%" y="254.359" x="422.064" xlink:href="#k"/><use height="100%" width="100%" y="254.359" x="428.427" xlink:href="#k"/><use height="100%" width="100%" y="254.359" x="434.789" xlink:href="#k"/></g><g><use height="100%" width="100%" y="266" x="185.18" xlink:href="#q"/><use height="100%" width="100%" y="266" x="191.21" xlink:href="#r"/><use height="100%" width="100%" y="266" x="197.328" xlink:href="#s"/><use height="100%" width="100%" y="266" x="202.538" xlink:href="#t"/><use height="100%" width="100%" y="266" x="205.316" xlink:href="#u"/><use height="100%" width="100%" y="266" x="209.237" xlink:href="#t"/><use height="100%" width="100%" y="266" x="212.016" xlink:href="#r"/><use height="100%" width="100%" y="266" x="218.134" xlink:href="#v"/><use height="100%" width="100%" y="266" x="224.472" xlink:href="#s"/><use height="100%" width="100%" y="266" x="229.682" xlink:href="#w"/><use height="100%" width="100%" y="266" x="232.86" xlink:href="#r"/><use height="100%" width="100%" y="266" x="238.979" xlink:href="#x"/><use height="100%" width="100%" y="266" x="242.499" xlink:href="#w"/><use height="100%" width="100%" y="266" x="245.678" xlink:href="#y"/><use height="100%" width="100%" y="266" x="251.176" xlink:href="#z"/><use height="100%" width="100%" y="266" x="257.514" xlink:href="#A"/><use height="100%" width="100%" y="266" x="263.642" xlink:href="#v"/><use height="100%" width="100%" y="266" x="269.979" xlink:href="#B"/><use height="100%" width="100%" y="266" x="276.327" xlink:href="#C"/><use height="100%" width="100%" y="266" x="282.479" xlink:href="#w"/><use height="100%" width="100%" y="266" x="285.658" xlink:href="#D"/><use height="100%" width="100%" y="266" x="292.006" xlink:href="#r"/><use height="100%" width="100%" y="266" x="298.124" xlink:href="#t"/><use height="100%" width="100%" y="266" x="300.902" xlink:href="#v"/><use height="100%" width="100%" y="266" x="307.24" xlink:href="#u"/><use height="100%" width="100%" y="266" x="311.161" xlink:href="#s"/></g><path d="M10 284.18h20" fill="none" stroke="#00f" stroke-linecap="round" stroke-linejoin="round" stroke-miterlimit="10"/><g><use height="100%" width="100%" y="287.641" x="36.242" xlink:href="#v"/><use height="100%" width="100%" y="287.641" x="42.58" xlink:href="#E"/><use height="100%" width="100%" y="287.641" x="50.959" xlink:href="#m"/></g><path d="M75.488 284.18h20" fill="none" stroke="#007f00" stroke-linecap="round" stroke-linejoin="round" stroke-miterlimit="10"/><g><use height="100%" width="100%" y="287.641" x="101.727" xlink:href="#v"/><use height="100%" width="100%" y="287.641" x="108.064" xlink:href="#E"/><use height="100%" width="100%" y="287.641" x="116.443" xlink:href="#n"/></g><path d="M140.898 284.18h20" fill="none" stroke="red" stroke-linecap="round" stroke-linejoin="round" stroke-miterlimit="10"/><g><use height="100%" width="100%" y="287.641" x="167.141" xlink:href="#v"/><use height="100%" width="100%" y="287.641" x="173.479" xlink:href="#E"/><use height="100%" width="100%" y="287.641" x="181.857" xlink:href="#o"/></g></svg>