<svg xmlns="http://www.w3.org/2000/svg" xmlns:xlink="http://www.w3.org/1999/xlink" width="573.331" height="367.563" viewBox="0 0 429.998 275.672"><defs><symbol overflow="visible" id="b"><path d="M3.172-6.64c-.5 0-.883.25-1.14.75-.25.5-.376 1.25-.376 2.25s.125 1.75.375 2.25c.258.5.64.75 1.14.75.52 0 .907-.25 1.157-.75.258-.5.39-1.25.39-2.25s-.132-1.75-.39-2.25c-.25-.5-.637-.75-1.156-.75zm0-.782c.82 0 1.445.324 1.875.969.437.648.656 1.586.656 2.812 0 1.23-.219 2.168-.656 2.813-.43.648-1.055.969-1.875.969-.813 0-1.438-.32-1.875-.97-.43-.644-.64-1.581-.64-2.812 0-1.226.21-2.164.64-2.812.437-.645 1.062-.969 1.875-.969zm0 0"/></symbol><symbol overflow="visible" id="c"><path d="M1.922-.828h3.437V0H.734v-.828c.375-.383.883-.906 1.532-1.563a52.138 52.138 0 0 0 1.218-1.265c.313-.352.532-.649.657-.89.125-.25.187-.493.187-.735 0-.383-.137-.696-.406-.938-.274-.25-.625-.375-1.063-.375-.312 0-.64.059-.984.172-.336.106-.7.266-1.094.484v-1a8.838 8.838 0 0 1 1.11-.359c.343-.082.66-.125.953-.125.75 0 1.347.188 1.797.563.457.375.687.882.687 1.515 0 .305-.058.59-.172.86-.117.261-.32.574-.61.937-.085.094-.343.371-.78.828-.438.45-1.055 1.078-1.844 1.89zm0 0"/></symbol><symbol overflow="visible" id="d"><path d="M1.078-7.297h3.875v.844H1.984v1.781c.145-.05.286-.086.422-.11.145-.019.29-.03.438-.03.812 0 1.453.226 1.922.671.476.438.718 1.04.718 1.797 0 .793-.246 1.406-.734 1.844-.48.43-1.168.64-2.063.64A5.99 5.99 0 0 1 1.75.063a8.095 8.095 0 0 1-.984-.234v-.984c.3.156.609.277.921.36.313.073.641.109.985.109.562 0 1.004-.145 1.328-.438.332-.3.5-.707.5-1.219 0-.5-.168-.894-.5-1.187-.324-.301-.766-.453-1.328-.453a3.52 3.52 0 0 0-.797.093 3.67 3.67 0 0 0-.797.266zm0 0"/></symbol><symbol overflow="visible" id="e"><path d="M.828-7.297h4.688v.422L2.859 0H1.83l2.5-6.453H.83zm0 0"/></symbol><symbol overflow="visible" id="f"><path d="M1.234-.828H2.86v-5.563l-1.765.344v-.89l1.75-.36h.984v6.469h1.61V0H1.234zm0 0"/></symbol><symbol overflow="visible" id="g"><path d="M3.781-6.438L1.297-2.546H3.78zm-.265-.859h1.25v4.75h1.03v.828h-1.03V0H3.78v-1.719H.484v-.953zm0 0"/></symbol><symbol overflow="visible" id="h"><path d="M3.297-4.031c-.438 0-.79.152-1.047.453-.262.305-.39.715-.39 1.234 0 .531.128.95.39 1.25.258.305.61.453 1.047.453.445 0 .797-.148 1.047-.453.258-.3.39-.718.39-1.25 0-.52-.132-.93-.39-1.234-.25-.3-.602-.453-1.047-.453zm1.969-3.094v.89A4.341 4.341 0 0 0 4.5-6.5a3.03 3.03 0 0 0-.734-.094c-.657 0-1.157.219-1.5.657-.344.437-.54 1.105-.579 2 .188-.282.426-.493.72-.641.288-.156.609-.234.952-.234.727 0 1.305.226 1.735.671.426.438.64 1.04.64 1.797 0 .75-.226 1.356-.671 1.813-.438.449-1.028.672-1.766.672-.844 0-1.492-.32-1.938-.97C.922-1.472.703-2.41.703-3.64c0-1.144.27-2.062.813-2.75.55-.687 1.285-1.03 2.203-1.03.25 0 .5.026.75.077.25.043.515.117.797.219zm0 0"/></symbol><symbol overflow="visible" id="i"><path d="M3.172-3.469c-.469 0-.84.133-1.11.39-.261.25-.39.595-.39 1.032 0 .438.129.781.39 1.031.27.25.641.375 1.11.375.469 0 .836-.125 1.11-.375.269-.25.405-.593.405-1.03 0-.438-.136-.782-.406-1.032-.261-.258-.633-.39-1.11-.39zm-.985-.406c-.417-.102-.746-.3-.984-.594-.242-.289-.36-.644-.36-1.062 0-.582.208-1.04.626-1.375.414-.344.984-.516 1.703-.516.726 0 1.3.172 1.719.516.414.336.625.793.625 1.375 0 .418-.121.773-.36 1.062-.242.293-.57.492-.984.594.476.105.848.32 1.11.64.257.325.39.72.39 1.188 0 .711-.215 1.25-.64 1.625-.43.375-1.048.563-1.86.563-.805 0-1.422-.188-1.86-.563-.43-.375-.64-.914-.64-1.625 0-.469.133-.863.406-1.187.27-.32.64-.536 1.11-.641zm-.359-1.563c0 .375.117.672.36.891.238.211.566.313.984.313.426 0 .758-.102 1-.313.238-.219.36-.516.36-.89 0-.375-.122-.665-.36-.875-.242-.22-.574-.329-1-.329-.418 0-.746.11-.985.329-.242.21-.359.5-.359.875zm0 0"/></symbol><clipPath id="a"><path d="M43.695 60h387.637v208.36H43.695zm0 0"/></clipPath></defs><path d="M32.602 3.71v252.54M110.129 3.71v252.54M187.656 3.71v252.54M265.184 3.71v252.54M342.71 3.71v252.54M420.238 3.71v252.54m-387.636 0h387.636M32.602 193.117h387.636M32.602 129.98h387.636M32.602 66.844h387.636M32.602 3.71h387.636" fill="none" stroke="#d1d1d1" stroke-miterlimit="10" stroke-dasharray="5,5"/><g clip-path="url(#a)" transform="translate(-11.094 -12.11)"><path d="M43.695 268.36h3.88v-1.262h3.874v-2.778h3.875v.25h3.88v2.274h3.874v-1.766h3.875v-.758h3.879v2.02h3.875v1.765h3.875v-.25h3.879v.25h3.875v.254h3.875v-.254h3.879v-1.007h3.875v-3.535h3.879v2.019h3.875v-1.012h3.875v-6.566h3.879v-17.93h3.875v-29.8h3.875v-16.665h3.879v22.473h3.875v34.852h3.875v-1.766h3.878v-24.246h3.875v-6.567h3.875v16.418h3.88v21.211h3.874v10.86h3.875v1.261h7.754v.254h7.754v-1.261h3.875v-7.828h3.875v-33.086h3.88v-82.579h3.874V92.34H191v54.043h3.875v84.347h3.875v33.336h3.879v3.032h3.875v-5.809h3.875v-35.61h3.879V183h3.875v16.418h3.875v37.879h3.879v11.363h3.875v-.758h3.875v5.051h3.879v11.871h3.875v3.535h3.875v-.254h3.879v.254h3.875v-.254h3.878v.254h3.875v-.254h7.754v.254h11.63v-.757h3.874v-2.02h3.875v-7.578h3.88V246.64h3.874v2.273h3.875v11.363h3.88v-.25h3.874v-6.062h3.875v-1.262h3.879v7.324h3.875v-13.132h3.875V172.14h3.879V96.129h3.875v34.344h3.875V212.8h3.879v38.387h3.875v-55.56h3.879V87.794h3.875v-27.02h3.875v121.723h3.879v72.984h3.875v11.618h3.875v1.261h31.011v-.504h3.875v-5.808h3.88v-20.961h3.874v-7.324h3.88v12.879h3.874v14.898h3.875v4.547h3.879v-.504h3.875v.758h3.875v2.02" fill="#7f7fff" stroke="#00f" stroke-miterlimit="10"/></g><path d="M32.602 256.25V3.71" fill="none" stroke="#000" stroke-linecap="square" stroke-miterlimit="10"/><path d="M32.602 256.25h2m-2-25.254h2m-2-25.254h2m-2-25.254h2m-2-25.254h2m-2-25.254h2m-2-25.253h2m-2-25.254h2m-2-25.254h2m-2-25.254h2m-2-25.255h2m-2 252.54h5m-5-63.133h5m-5-63.137h5m-5-63.136h5m-5-63.134h5" fill="none" stroke="#000" stroke-miterlimit="10"/><use height="100%" width="100%" y="272.07" x="28.648" xlink:href="#b" transform="translate(-11.094 -12.11)"/><g transform="translate(-11.094 -12.11)"><use height="100%" width="100%" y="208.938" x="16.004" xlink:href="#c"/><use height="100%" width="100%" y="208.938" x="22.366" xlink:href="#d"/><use height="100%" width="100%" y="208.938" x="28.729" xlink:href="#b"/></g><g transform="translate(-11.094 -12.11)"><use height="100%" width="100%" y="145.801" x="16.035" xlink:href="#d"/><use height="100%" width="100%" y="145.801" x="22.397" xlink:href="#b"/><use height="100%" width="100%" y="145.801" x="28.76" xlink:href="#b"/></g><g transform="translate(-11.094 -12.11)"><use height="100%" width="100%" y="82.664" x="16.098" xlink:href="#e"/><use height="100%" width="100%" y="82.664" x="22.46" xlink:href="#d"/><use height="100%" width="100%" y="82.664" x="28.822" xlink:href="#b"/></g><g transform="translate(-11.094 -12.11)"><use height="100%" width="100%" y="19.531" x="10" xlink:href="#f"/><use height="100%" width="100%" y="19.531" x="16.362" xlink:href="#b"/><use height="100%" width="100%" y="19.531" x="22.725" xlink:href="#b"/><use height="100%" width="100%" y="19.531" x="29.087" xlink:href="#b"/></g><path d="M32.602 256.25h387.636" fill="none" stroke="#000" stroke-linecap="square" stroke-miterlimit="10"/><path d="M32.602 256.25v-2m7.753 2v-2m7.755 2v-2m7.75 2v-2m7.753 2v-2m7.754 2v-2m7.75 2v-2m7.754 2v-2m7.754 2v-2m7.754 2v-2m7.75 2v-2m7.754 2v-2m7.754 2v-2m7.75 2v-2m7.753 2v-2m7.755 2v-2m7.75 2v-2m7.753 2v-2m7.754 2v-2m7.754 2v-2m7.75 2v-2m7.754 2v-2m7.754 2v-2m7.75 2v-2m7.754 2v-2m7.754 2v-2m7.75 2v-2m7.754 2v-2m7.754 2v-2m7.754 2v-2m7.75 2v-2m7.754 2v-2m7.753 2v-2m7.75 2v-2m7.754 2v-2m7.755 2v-2m7.75 2v-2m7.753 2v-2m7.754 2v-2m7.753 2v-2m7.75 2v-2m7.755 2v-2m7.754 2v-2m7.75 2v-2m7.754 2v-2m7.754 2v-2m7.75 2v-2m7.753 2v-2m7.754 2v-2m7.754 2v-2m7.75 2v-2m-387.636 2v-5m77.527 5v-5m77.527 5v-5m77.528 5v-5m77.526 5v-5m77.528 5v-5" fill="none" stroke="#000" stroke-miterlimit="10"/><use height="100%" width="100%" y="287.641" x="41.172" xlink:href="#b" transform="translate(-11.094 -12.11)"/><g transform="translate(-11.094 -12.11)"><use height="100%" width="100%" y="287.641" x="115.559" xlink:href="#c"/><use height="100%" width="100%" y="287.641" x="121.921" xlink:href="#b"/></g><g transform="translate(-11.094 -12.11)"><use height="100%" width="100%" y="287.641" x="192.961" xlink:href="#g"/><use height="100%" width="100%" y="287.641" x="199.323" xlink:href="#b"/></g><g transform="translate(-11.094 -12.11)"><use height="100%" width="100%" y="287.641" x="270.598" xlink:href="#h"/><use height="100%" width="100%" y="287.641" x="276.96" xlink:href="#b"/></g><g transform="translate(-11.094 -12.11)"><use height="100%" width="100%" y="287.641" x="348.109" xlink:href="#i"/><use height="100%" width="100%" y="287.641" x="354.472" xlink:href="#b"/></g><g transform="translate(-11.094 -12.11)"><use height="100%" width="100%" y="287.641" x="422.664" xlink:href="#f"/><use height="100%" width="100%" y="287.641" x="429.026" xlink:href="#b"/><use height="100%" width="100%" y="287.641" x="435.389" xlink:href="#b"/></g></svg>