<svg xmlns="http://www.w3.org/2000/svg" xmlns:xlink="http://www.w3.org/1999/xlink" width="600" height="400" viewBox="0 0 450 300"><defs><symbol overflow="visible" id="b"><path d="M.484-3.14h2.641v.796H.485zm0 0"/></symbol><symbol overflow="visible" id="c"><path d="M1.922-.828h3.437V0H.734v-.828c.375-.383.883-.906 1.532-1.563a52.138 52.138 0 0 0 1.218-1.265c.313-.352.532-.649.657-.89.125-.25.187-.493.187-.735 0-.383-.137-.696-.406-.938-.274-.25-.625-.375-1.063-.375-.312 0-.64.059-.984.172-.336.106-.7.266-1.094.484v-1a8.838 8.838 0 0 1 1.11-.359c.343-.082.66-.125.953-.125.75 0 1.347.188 1.797.563.457.375.687.882.687 1.515 0 .305-.058.59-.172.86-.117.261-.32.574-.61.937-.085.094-.343.371-.78.828-.438.45-1.055 1.078-1.844 1.89zm0 0"/></symbol><symbol overflow="visible" id="d"><path d="M1.234-.828H2.86v-5.563l-1.765.344v-.89l1.75-.36h.984v6.469h1.61V0H1.234zm0 0"/></symbol><symbol overflow="visible" id="e"><path d="M3.172-6.64c-.5 0-.883.25-1.14.75-.25.5-.376 1.25-.376 2.25s.125 1.75.375 2.25c.258.5.64.75 1.14.75.52 0 .907-.25 1.157-.75.258-.5.39-1.25.39-2.25s-.132-1.75-.39-2.25c-.25-.5-.637-.75-1.156-.75zm0-.782c.82 0 1.445.324 1.875.969.437.648.656 1.586.656 2.812 0 1.23-.219 2.168-.656 2.813-.43.648-1.055.969-1.875.969-.813 0-1.438-.32-1.875-.97-.43-.644-.64-1.581-.64-2.812 0-1.226.21-2.164.64-2.812.437-.645 1.062-.969 1.875-.969zm0 0"/></symbol><symbol overflow="visible" id="f"><path d="M3.172-3.469c-.469 0-.84.133-1.11.39-.261.25-.39.595-.39 1.032 0 .438.129.781.39 1.031.27.25.641.375 1.11.375.469 0 .836-.125 1.11-.375.269-.25.405-.593.405-1.03 0-.438-.136-.782-.406-1.032-.261-.258-.633-.39-1.11-.39zm-.985-.406c-.417-.102-.746-.3-.984-.594-.242-.289-.36-.644-.36-1.062 0-.582.208-1.04.626-1.375.414-.344.984-.516 1.703-.516.726 0 1.3.172 1.719.516.414.336.625.793.625 1.375 0 .418-.121.773-.36 1.062-.242.293-.57.492-.984.594.476.105.848.32 1.11.64.257.325.39.72.39 1.188 0 .711-.215 1.25-.64 1.625-.43.375-1.048.563-1.86.563-.805 0-1.422-.188-1.86-.563-.43-.375-.64-.914-.64-1.625 0-.469.133-.863.406-1.187.27-.32.64-.536 1.11-.641zm-.359-1.563c0 .375.117.672.36.891.238.211.566.313.984.313.426 0 .758-.102 1-.313.238-.219.36-.516.36-.89 0-.375-.122-.665-.36-.875-.242-.22-.574-.329-1-.329-.418 0-.746.11-.985.329-.242.21-.359.5-.359.875zm0 0"/></symbol><symbol overflow="visible" id="g"><path d="M3.297-4.031c-.438 0-.79.152-1.047.453-.262.305-.39.715-.39 1.234 0 .531.128.95.39 1.25.258.305.61.453 1.047.453.445 0 .797-.148 1.047-.453.258-.3.39-.718.39-1.25 0-.52-.132-.93-.39-1.234-.25-.3-.602-.453-1.047-.453zm1.969-3.094v.89A4.341 4.341 0 0 0 4.5-6.5a3.03 3.03 0 0 0-.734-.094c-.657 0-1.157.219-1.5.657-.344.437-.54 1.105-.579 2 .188-.282.426-.493.72-.641.288-.156.609-.234.952-.234.727 0 1.305.226 1.735.671.426.438.64 1.04.64 1.797 0 .75-.226 1.356-.671 1.813-.438.449-1.028.672-1.766.672-.844 0-1.492-.32-1.938-.97C.922-1.472.703-2.41.703-3.64c0-1.144.27-2.062.813-2.75.55-.687 1.285-1.03 2.203-1.03.25 0 .5.026.75.077.25.043.515.117.797.219zm0 0"/></symbol><symbol overflow="visible" id="h"><path d="M3.781-6.438L1.297-2.546H3.78zm-.265-.859h1.25v4.75h1.03v.828h-1.03V0H3.78v-1.719H.484v-.953zm0 0"/></symbol><symbol overflow="visible" id="i"><path d="M4.063-3.938c.468.106.832.32 1.093.641.27.313.407.703.407 1.172 0 .719-.25 1.277-.75 1.672-.493.398-1.196.594-2.11.594a4.89 4.89 0 0 1-.937-.094 7.464 7.464 0 0 1-1-.266v-.953c.27.156.566.277.89.36.332.085.676.125 1.032.125.613 0 1.082-.118 1.406-.36.32-.25.484-.61.484-1.078 0-.426-.152-.758-.453-1-.305-.238-.719-.36-1.25-.36h-.86v-.812h.891c.489 0 .86-.098 1.11-.297.257-.195.39-.476.39-.843 0-.364-.136-.645-.406-.844-.262-.207-.637-.313-1.125-.313-.273 0-.563.032-.875.094-.313.055-.652.14-1.016.266v-.875c.375-.102.723-.18 1.047-.235.332-.05.64-.078.922-.078.75 0 1.344.172 1.781.516.438.336.657.793.657 1.375 0 .406-.118.75-.344 1.031-.23.273-.559.46-.984.563zm0 0"/></symbol><symbol overflow="visible" id="j"><path d="M1.078-7.297h3.875v.844H1.984v1.781c.145-.05.286-.086.422-.11.145-.019.29-.03.438-.03.812 0 1.453.226 1.922.671.476.438.718 1.04.718 1.797 0 .793-.246 1.406-.734 1.844-.48.43-1.168.64-2.063.64A5.99 5.99 0 0 1 1.75.063a8.095 8.095 0 0 1-.984-.234v-.984c.3.156.609.277.921.36.313.073.641.109.985.109.562 0 1.004-.145 1.328-.438.332-.3.5-.707.5-1.219 0-.5-.168-.894-.5-1.187-.324-.301-.766-.453-1.328-.453a3.52 3.52 0 0 0-.797.093 3.67 3.67 0 0 0-.797.266zm0 0"/></symbol><symbol overflow="visible" id="k"><path d="M.938-7.594h.906V0H.937zm0 0"/></symbol><symbol overflow="visible" id="l"><path d="M1.813-.828v2.906H.905v-7.547h.906v.828c.188-.32.422-.562.704-.718.289-.157.64-.235 1.046-.235.665 0 1.204.266 1.61.797.414.524.625 1.211.625 2.063 0 .867-.211 1.562-.625 2.093-.406.524-.945.782-1.61.782-.406 0-.757-.078-1.046-.235C2.234-.25 2-.492 1.812-.828zm3.062-1.906c0-.657-.14-1.172-.422-1.547a1.299 1.299 0 0 0-1.11-.563c-.48 0-.855.188-1.124.563-.274.375-.406.89-.406 1.547 0 .668.132 1.187.406 1.562.27.375.644.563 1.125.563.469 0 .836-.188 1.11-.563.28-.375.421-.894.421-1.562zm0 0"/></symbol><symbol overflow="visible" id="m"><path d="M4.547-4.64v-2.954h.89V0h-.89v-.828a1.81 1.81 0 0 1-.719.734c-.293.157-.64.235-1.047.235a1.958 1.958 0 0 1-1.61-.782C.755-1.17.548-1.867.548-2.734c0-.852.207-1.54.625-2.063.414-.531.953-.797 1.61-.797.405 0 .753.078 1.046.235.29.156.531.398.719.718zM1.484-2.735c0 .668.133 1.187.407 1.562.27.375.644.563 1.125.563a1.3 1.3 0 0 0 1.109-.563c.281-.375.422-.894.422-1.562 0-.657-.14-1.172-.422-1.547a1.299 1.299 0 0 0-1.11-.563c-.48 0-.855.188-1.124.563-.274.375-.407.89-.407 1.547zm0 0"/></symbol><symbol overflow="visible" id="n"><path d="M3.719-7.594v.75h-.86c-.324 0-.546.07-.671.203-.126.125-.188.356-.188.688v.484h1.469v.703H2V0h-.906v-4.766h-.86v-.703h.86v-.375c0-.613.14-1.054.422-1.328.28-.281.726-.422 1.343-.422zm0 0"/></symbol><symbol overflow="visible" id="q"><path d="M1.063-1.234h1.03V0h-1.03zm0 0"/></symbol><symbol overflow="visible" id="r"><path d="M.828-7.297h4.688v.422L2.859 0H1.83l2.5-6.453H.83zm0 0"/></symbol><symbol overflow="visible" id="s"><path d="M4.61-3.469H1.5c.05.98.191 1.672.422 2.078.27.512.648.766 1.14.766.489 0 .868-.254 1.141-.766.238-.445.375-1.14.406-2.078zm-.016-.828c-.086-.926-.215-1.55-.39-1.875-.282-.508-.665-.766-1.141-.766-.5 0-.883.25-1.141.75-.211.418-.344 1.047-.406 1.891zM3.062-7.672c.782 0 1.395.344 1.844 1.031.446.688.672 1.641.672 2.86 0 1.21-.226 2.164-.672 2.86-.449.687-1.062 1.03-1.843 1.03-.782 0-1.399-.343-1.844-1.03-.45-.696-.672-1.65-.672-2.86 0-1.219.223-2.172.672-2.86.445-.687 1.062-1.03 1.843-1.03zm0 0"/></symbol><symbol overflow="visible" id="t"><path d="M.766-.797h1V-3.78l-1.094.203v-.578l1.125-.188h.672v3.547h1v.531H.766zm0 0"/></symbol><symbol overflow="visible" id="w"><path d="M1.313-.813h2.062v.547H.453v-.53c.113-.102.274-.243.484-.423 1.114-1 1.672-1.648 1.672-1.953a.616.616 0 0 0-.25-.515c-.168-.133-.39-.204-.671-.204-.168 0-.352.032-.547.094-.2.055-.418.137-.657.25v-.61a5.94 5.94 0 0 1 .704-.187c.218-.05.421-.078.609-.078.469 0 .844.11 1.125.328.281.211.422.492.422.844 0 .45-.54 1.137-1.61 2.063a6.674 6.674 0 0 0-.421.375zm0 0"/></symbol><clipPath id="a"><path d="M48.008 27h164.687v61H48.008zm0 0"/></clipPath><clipPath id="o"><path d="M285 24h125v72.719H285zm0 0"/></clipPath><clipPath id="p"><path d="M284 24h126v72.719H284zm0 0"/></clipPath><clipPath id="u"><path d="M68 177h125v69.719H68zm0 0"/></clipPath><clipPath id="v"><path d="M68 176h125v70.719H68zm0 0"/></clipPath><clipPath id="x"><path d="M264.598 175H397v71.719H264.598zm0 0"/></clipPath><clipPath id="y"><path d="M264.598 174H398v72.719H264.598zm0 0"/></clipPath></defs><path d="M48.008 15.82v80.9m32.937-80.9v80.9m32.938-80.9v80.9m32.937-80.9v80.9m32.938-80.9v80.9m32.937-80.9v80.9m-164.687-.001h164.687M48.008 80.54h164.687M48.008 64.36h164.687M48.008 48.18h164.687M48.008 32h164.687M48.008 15.82h164.687" fill="none" stroke="#d3d3d3" stroke-dasharray="5,5" stroke-miterlimit="10"/><g clip-path="url(#a)"><path d="M48.336 31.625l.332 19.43.328-7.54.328 7.54.332-20.852.328 27.586.329-24.445.332 15.27.328.706.328-20.726.332 23.035.328 2.23.328-16.39.328 11.324.332 1.473.328 6.441.328-.71.333-3.458.328-3.61.328 10.176.332-9.503.328-.907.328 14.555.332-13.246.328-8.293.328 7.527.332-16.613.328 16.02.329-12.73.332 18.968.328.488.328-6.008.332-.664.328-14.117.328 14.11.332-14.829.328 15.657.328-.258.329.414.332 2.441.328-.176.328-6.086.332 14.075.328 3.957.328-13.758.332.023.328 2.598.328-4.152.332.757.329-.644.328-18.36.332 19.54.328 4.593.328-5.644.332.472.328-20.449.328 23.383.332-23.883.328 33.856.329-33.04.332 23.356.328-3.89.328 1.828.328 4.449.332-8.309.328 2.23.328 19.25.332-18.695.328-.242.329-.125.332 6.324.328-17.449.328 13.09.332-18.11.328 18.13.328 2.867.332 4.086.328 3.87.328-32.456.332 21.512.329 1.593.328-21.976.332 18.086.328.37.328-19.261.332 34.367.328-10.816.328 8.234.328 2.63.332-35.997.328 20.512.329-17.168.332 21.468.328-17.742.328 13.41.332 1.477.328 8.105.328-14.12.332 5.656.328-.657.328-13.664.332 13.446.329-17.473.328 24.973.332-25.856.328 24.625.328-15.11.332 9.177.328 1.027.328-11.781.332 10.82.328 7.93.329-1.645.328-15.172.332 10.371.328-21.047.328 20.79.332-1.856.328-18.758.328 28.465.332-25.418.328 16.09.329-19.29.332 22.83.328-5.786.328 2.07.332-18.941.328 21.617.328-23.2.332 21.66.328.134.328-16.66.332 15.293.329 1.257.328 8.375.332-28.273.328 18.687.328-18.949.328 21.2.332-22.352.328 23.57.328-.469.332.696.329-16.953.328 17.324.332-10.215.328 14.55.328-22.374.332 20.25.328-24.57.328 18.148.332-16.234.328 22.859.328-4.453.332-21.528.329 19.325.328.187.332-11.555.328 14.704.328-16.348.332 32.305.328-17.676.328-.39.328-21.61.332 23.336.329-18.489.328 26.293.332-22.847.328 19.195L104 40.02l.332 12.05.328-3.226.328-20.637.332 24.95.328-16.141.329 14.441.332 2.238.328-25.261.328 25.863.332-5.469.328 2.867.328-2.07.332-21.2.328 21.419.328-18.032.332 19.918.329 4.907.328-1.473.328-6.402.332-18.016.328 21.207.328 3.633.332-5.031.328-15.578.328 27.5.332-13.61.329-.113.328 3.41.332-16.387.328 13.051.328-20.457.332 20.715.328 2.508.328-19.442.332 18.848.328 14.238.329-15.793.332-18.226.328 19.226.328 11.914.332-9.914.328-23.617.328 39.332.328-28.27.332 9.16.328-20.066.328 22.625.332-2.953.329.055.328 25.129.332-40.149.328 15.371.328-1.765.332 3.582.328-19.324.328 18.84.332 5.78.328-4.581.329-2.996.332 1.375.328-19.711.328 55.754.332-52.25.328 33.238.328-18.293.332-.074.328 2.535.328-2.559.329 10.762.332-20.621.328 14.355.328-21.89.332 19.789.328-1.446.328-.742.332-16.918.328 23.38.328-1.766.332-1.621.329 2.62.328-1.437.332 3.445.328-7.523.328 2.41.332-22.16.328 43.488.328-44.558.332 20.441.328 3.516.329-3.54.332-20.464.328 21.75.328-20.266.328 20.098.332-8.469.328 8.164.328-18.887.332 22.168.328-23.511.328 19.78.333-20.155.328 29.246.328-8.352.332-.199.328 8.121.328 29.656.332-38.297.328-.382.328 2.195.332-.973.328.211.329-17.09.332 19.934.328-2.5.328-1.523.332-20.07.328 25.609.328 1.605.328-6.184.332 2.126.328-.145.329 2.3.332-19.366.328 23.07.328-7.438.332 1.399.328-.887.328-17.676.332 18.075.328-1.211.328-21.102.332 19.852.329 22.925.328-42.109.332 28.04.328-2.86.328-5.094.332-21.133.328 22.258.328-2.223.332-.984.328 1.457.329 2.613.328-2.71.332-16.509.328 16.489.328-2.727.332 2.946.328 19.18.328-11.438.332-8.328.328 3.617.329-17.309.332 20.637.328-6 .328-17.473.332 20.461.328-3.234.328-20.149.332 19.953.328-.484.328-19.344.332 20.067.329-.328.328 7.828.332-7.145.328-1.047.328 3.703.328 1.825.332-24.532.328 21.309.328-.988.332 5.949.328-7.234.329 3.89.332-21.875.328 23.828.328-23.914.332 34.617.328-34.812.328 23.453.332-22.601.328 19.039.328 5.328.333-26.078.328 19.957.328-18.368.332 19.153.328-1.703.328 4.183.332-24.617.328 21.008.328-.52.328.364.332-.157.329 1.985.328-1.707.332-18 .328 24.222.328-6.629.332 2.418.328-1.355.328-4.89.332 5.285.328-.645.329 2.824.332-3.754.328 1.012.328 11.527.332-30.687.328 38.133.328-39.063.332 20.766.328-13.012.328 12.082.332-.656.329 2.043.328-18.352.328 17.23.332 5.02.328-24.625.328 21.121.332-17.984.328 16.625.328-1.195.332.73.329 1.895.328-1.57.332 2.398.328-1.324.328-19.418.332 17.296.328-13.55.328 13.57.332.176.328.73.328 2.27.333-.547.328-21.48.328 22.824.332 1.382.328-2.863.328-2.449.328 6.785.332-22.719.328 16.223.328-.156.333-18.5.328 44.172.328-23.09.332-1.68.328-8.77.328 14.915.332-2.473.328-20.816.328 16.375.332 9.601.328-9.86.329.352.332 1.453.328-1.218.328-15.735.332 24.852.328-5.203.328-4.059.332 30.711.328-31.226.328 2.363.329-15.07.332 12.71.328.004.328 2.871.332-2.55.328 1.27.328-21.716.332 21.743.328-.985.328-12.539.332 12.043.329.234.328 2.094.332 13.906.328-16.035.328-17.906.332 31.762.328-31.504.328 19.203.332.254.328 5.617.329-4.531.332-22.926.328 20.29.328-.513.328 4.989.332.05.328-4.921.328-.2.332-15.07.328 15.059.328-19.215.333 21.89.328-2.664.328.051.332 2.63.328 9.417.328-30.477.332 43.602.328-24.789.328-14.117.332 14.804.328-.488.329-13.012.332 15.04.328-17.407.328 19.16.332-3.437.328 9.676.328-4.325.328-5.124.332 4.097.328-22.726.329 22.738.332-25.102.328 23.293.328-2.39.332-.782.328 3.473.328-21.465.332 21.895.328 5.039" fill="none" stroke-linecap="round" stroke-linejoin="round" stroke="#00f" stroke-miterlimit="10"/></g><path d="M48.008 96.719V15.82" fill="none" stroke-linecap="square" stroke="#000" stroke-miterlimit="10"/><path d="M48.008 96.719h2m-2-1.617h2m-2-1.618h2m-2-1.621h2m-2-1.617h2m-2-1.617h2m-2-1.617h2m-2-1.617h2m-2-1.622h2m-2-1.617h2m-2-1.616h2m-2-1.618h2m-2-1.617h2m-2-1.621h2m-2-1.618h2m-2-1.616h2m-2-1.618h2m-2-1.617h2m-2-1.621h2m-2-1.617h2m-2-1.617h2m-2-1.618h2m-2-1.617h2m-2-1.621h2m-2-1.617h2m-2-1.617h2m-2-1.618h2m-2-1.617h2m-2-1.621h2m-2-1.617h2m-2-1.617h2m-2-1.617h2m-2-1.618h2m-2-1.621h2m-2-1.617h2m-2-1.617h2m-2-1.617h2m-2-1.618h2m-2-1.621h2m-2-1.617h2m-2-1.617h2m-2-1.617h2m-2-1.617h2m-2-1.621h2m-2-1.618h2m-2-1.617h2m-2-1.617h2m-2-1.617h2m-2-1.621h2m-2-1.617h2m-2-1.618h2m-2 80.899h5m-5-16.179h5m-5-16.18h5m-5-16.18h5m-5-16.18h5m-5-16.18h5" fill="none" stroke="#000" stroke-miterlimit="10"/><use xlink:href="#b" x="10.102" y="100.43"/><use xlink:href="#c" x="13.71" y="100.43"/><use xlink:href="#d" x="20.072" y="100.43"/><use xlink:href="#d" x="26.435" y="100.43"/><use xlink:href="#e" x="32.797" y="100.43"/><use xlink:href="#b" x="10.121" y="84.25"/><use xlink:href="#c" x="13.729" y="84.25"/><use xlink:href="#d" x="20.092" y="84.25"/><use xlink:href="#e" x="26.454" y="84.25"/><use xlink:href="#f" x="32.816" y="84.25"/><use xlink:href="#b" x="10.07" y="68.07"/><use xlink:href="#c" x="13.679" y="68.07"/><use xlink:href="#d" x="20.041" y="68.07"/><use xlink:href="#e" x="26.403" y="68.07"/><use xlink:href="#g" x="32.766" y="68.07"/><use xlink:href="#b" x="10" y="51.891"/><use xlink:href="#c" x="13.608" y="51.891"/><use xlink:href="#d" x="19.971" y="51.891"/><use xlink:href="#e" x="26.333" y="51.891"/><use xlink:href="#h" x="32.695" y="51.891"/><use xlink:href="#b" x="10.438" y="35.711"/><use xlink:href="#c" x="14.046" y="35.711"/><use xlink:href="#d" x="20.408" y="35.711"/><use xlink:href="#e" x="26.771" y="35.711"/><use xlink:href="#c" x="33.133" y="35.711"/><use xlink:href="#b" x="10.102" y="19.531"/><use xlink:href="#c" x="13.71" y="19.531"/><use xlink:href="#d" x="20.072" y="19.531"/><use xlink:href="#e" x="26.435" y="19.531"/><use xlink:href="#e" x="32.797" y="19.531"/><path d="M48.008 96.719h164.687" fill="none" stroke-linecap="square" stroke="#000" stroke-miterlimit="10"/><path d="M48.008 96.719v-2m3.292 2v-2m3.294 2v-2m3.296 2v-2m3.294 2v-2m3.293 2v-2m3.293 2v-2m3.293 2v-2m3.297 2v-2m3.292 2v-2m3.293 2v-2m3.293 2v-2m3.293 2v-2m3.297 2v-2m3.293 2v-2m3.293 2v-2m3.293 2v-2m3.293 2v-2m3.297 2v-2m3.293 2v-2m3.293 2v-2m3.293 2v-2m3.293 2v-2m3.297 2v-2m3.293 2v-2m3.293 2v-2m3.293 2v-2m3.293 2v-2m3.296 2v-2m3.293 2v-2m3.293 2v-2m3.293 2v-2m3.293 2v-2m3.297 2v-2m3.293 2v-2m3.294 2v-2m3.292 2v-2m3.293 2v-2m3.297 2v-2m3.293 2v-2m3.293 2v-2m3.292 2v-2m3.294 2v-2m3.296 2v-2m3.294 2v-2m3.293 2v-2m3.293 2v-2m3.293 2v-2m3.297 2v-2m3.292 2v-2m3.293 2v-2m-164.687 2v-5m32.937 5v-5m32.938 5v-5m32.937 5v-5m32.938 5v-5m32.937 5v-5" fill="none" stroke="#000" stroke-miterlimit="10"/><use xlink:href="#e" x="45.488" y="116"/><use xlink:href="#d" x="72.281" y="116"/><use xlink:href="#e" x="78.644" y="116"/><use xlink:href="#e" x="85.006" y="116"/><use xlink:href="#c" x="105.039" y="116"/><use xlink:href="#e" x="111.401" y="116"/><use xlink:href="#e" x="117.764" y="116"/><use xlink:href="#i" x="137.988" y="116"/><use xlink:href="#e" x="144.351" y="116"/><use xlink:href="#e" x="150.713" y="116"/><use xlink:href="#h" x="170.789" y="116"/><use xlink:href="#e" x="177.151" y="116"/><use xlink:href="#e" x="183.514" y="116"/><use xlink:href="#j" x="203.871" y="116"/><use xlink:href="#e" x="210.233" y="116"/><use xlink:href="#e" x="216.596" y="116"/><path d="M10 134.18h20" fill="none" stroke-linecap="round" stroke-linejoin="round" stroke="#00f" stroke-miterlimit="10"/><use xlink:href="#k" x="36.242" y="137.641"/><use xlink:href="#l" x="39.021" y="137.641"/><use xlink:href="#m" x="45.368" y="137.641"/><use xlink:href="#n" x="51.716" y="137.641"/><path d="M264.598 15.82v80.9m20.632-80.9v80.9m20.637-80.9v80.9m20.633-80.9v80.9m20.633-80.9v80.9m20.637-80.9v80.9m20.632-80.9v80.9m20.633-80.9v80.9m20.637-80.9v80.9m-165.074-.001h165.074M264.598 80.54h165.074M264.598 64.36h165.074M264.598 48.18h165.074M264.598 32h165.074M264.598 15.82h165.074" fill="none" stroke="#d3d3d3" stroke-dasharray="5,5" stroke-miterlimit="10"/><g clip-path="url(#o)"><path d="M285.23 96.719v-6.13h12.383v-3.062h6.188v-6.129h6.191V53.816h6.192V29.305h6.187v15.32h6.192v-1.531h6.19V24.707h6.192v3.063h6.188v13.793h6.191V61.48h6.192v7.66h6.187v13.79h6.192v9.191h12.378v4.598h6.192v-1.531h12.383v1.53h6.187" fill="#8080ff"/></g><g clip-path="url(#p)"><path d="M285.23 96.719v-6.13h12.383v-3.062h6.188v-6.129h6.191V53.816h6.192V29.305h6.187v15.32h6.192v-1.531h6.19V24.707h6.192v3.063h6.188v13.793h6.191V61.48h6.192v7.66h6.187v13.79h6.192v9.191h12.378v4.598h6.192v-1.531h12.383v1.53h6.187" fill="none" stroke="#00f" stroke-miterlimit="10"/></g><path d="M264.598 96.719V15.82" fill="none" stroke-linecap="square" stroke="#000" stroke-miterlimit="10"/><path d="M264.598 96.719h2m-2-1.617h2m-2-1.618h2m-2-1.621h2m-2-1.617h2m-2-1.617h2m-2-1.617h2m-2-1.617h2m-2-1.622h2m-2-1.617h2m-2-1.616h2m-2-1.618h2m-2-1.617h2m-2-1.621h2m-2-1.618h2m-2-1.616h2m-2-1.618h2m-2-1.617h2m-2-1.621h2m-2-1.617h2m-2-1.617h2m-2-1.618h2m-2-1.617h2m-2-1.621h2m-2-1.617h2m-2-1.617h2m-2-1.618h2m-2-1.617h2m-2-1.621h2m-2-1.617h2m-2-1.617h2m-2-1.617h2m-2-1.618h2m-2-1.621h2m-2-1.617h2m-2-1.617h2m-2-1.617h2m-2-1.618h2m-2-1.621h2m-2-1.617h2m-2-1.617h2m-2-1.617h2m-2-1.617h2m-2-1.621h2m-2-1.618h2m-2-1.617h2m-2-1.617h2m-2-1.617h2m-2-1.621h2m-2-1.617h2m-2-1.618h2m-2 80.899h5m-5-16.179h5m-5-16.18h5m-5-16.18h5m-5-16.18h5m-5-16.18h5" fill="none" stroke="#000" stroke-miterlimit="10"/><use xlink:href="#e" x="249.559" y="100.43"/><use xlink:href="#c" x="249.969" y="84.25"/><use xlink:href="#h" x="249.285" y="68.004"/><use xlink:href="#g" x="249.563" y="51.891"/><use xlink:href="#f" x="249.598" y="35.711"/><use xlink:href="#d" x="243.637" y="19.531"/><use xlink:href="#e" x="249.999" y="19.531"/><path d="M264.598 96.719h165.074" fill="none" stroke-linecap="square" stroke="#000" stroke-miterlimit="10"/><path d="M264.598 96.719v-2m4.125 2v-2m4.129 2v-2m4.125 2v-2m4.128 2v-2m4.125 2v-2m4.13 2v-2m4.124 2v-2m4.129 2v-2m4.125 2v-2m4.129 2v-2m4.125 2v-2m4.129 2v-2m4.125 2v-2m4.125 2v-2m4.129 2v-2m4.125 2v-2m4.129 2v-2m4.125 2v-2m4.129 2v-2m4.125 2v-2m4.129 2v-2m4.125 2v-2m4.129 2v-2m4.124 2v-2m4.13 2v-2m4.125 2v-2m4.128 2v-2m4.125 2v-2m4.125 2v-2m4.129 2v-2m4.125 2v-2m4.129 2v-2m4.125 2v-2m4.129 2v-2m4.125 2v-2m4.129 2v-2m4.126 2v-2m4.128 2v-2m4.125 2v-2m4.129 2v-2m-165.074 2v-5m20.632 5v-5m20.637 5v-5m20.633 5v-5m20.633 5v-5m20.637 5v-5m20.632 5v-5m20.633 5v-5m20.637 5v-5" fill="none" stroke="#000" stroke-miterlimit="10"/><use xlink:href="#c" x="254.266" y="116"/><use xlink:href="#q" x="260.628" y="116"/><use xlink:href="#i" x="263.807" y="116"/><use xlink:href="#j" x="270.169" y="116"/><use xlink:href="#c" x="295.535" y="116"/><use xlink:href="#q" x="301.897" y="116"/><use xlink:href="#h" x="305.076" y="116"/><use xlink:href="#j" x="311.438" y="116"/><use xlink:href="#c" x="336.805" y="116"/><use xlink:href="#q" x="343.167" y="116"/><use xlink:href="#j" x="346.346" y="116"/><use xlink:href="#j" x="352.708" y="116"/><use xlink:href="#c" x="378.074" y="116"/><use xlink:href="#q" x="384.437" y="116"/><use xlink:href="#g" x="387.615" y="116"/><use xlink:href="#j" x="393.978" y="116"/><use xlink:href="#c" x="419.34" y="116"/><use xlink:href="#q" x="425.702" y="116"/><use xlink:href="#r" x="428.881" y="116"/><use xlink:href="#j" x="435.243" y="116"/><path d="M243.023 134.18h20" fill="none" stroke="#00f" stroke-miterlimit="10"/><use xlink:href="#s" x="269.266" y="137.641"/><use xlink:href="#t" x="275.384" y="137.641"/><path d="M48.008 165.82v80.899m20.586-80.899v80.899M89.18 165.82v80.899m20.586-80.899v80.899m20.586-80.899v80.899m20.586-80.899v80.899m20.585-80.899v80.899m20.587-80.899v80.899m20.585-80.899v80.899m-164.687 0h164.687M48.008 233.234h164.687m-164.687-13.48h164.687M48.008 206.27h164.687M48.008 192.785h164.687m-164.687-13.48h164.687M48.008 165.82h164.687" fill="none" stroke="#d3d3d3" stroke-dasharray="5,5" stroke-miterlimit="10"/><g clip-path="url(#u)"><path d="M68.594 246.719v-3.016h6.176v-6.035h12.35v-6.031h6.176v-3.016h6.176v-27.148h6.175v6.035h6.176v-15.082H118v-15.082h6.176v3.015h6.176v12.067h6.175v27.144h6.176v9.051h6.176v6.031h6.176v12.067h18.527v-6.031h6.176v6.03h12.351" fill="#8080ff"/></g><g clip-path="url(#v)"><path d="M68.594 246.719v-3.016h6.176v-6.035h12.35v-6.031h6.176v-3.016h6.176v-27.148h6.175v6.035h6.176v-15.082H118v-15.082h6.176v3.015h6.176v12.067h6.175v27.144h6.176v9.051h6.176v6.031h6.176v12.067h18.527v-6.031h6.176v6.03h12.351" fill="none" stroke="#00f" stroke-miterlimit="10"/></g><path d="M48.008 246.719V165.82" fill="none" stroke-linecap="square" stroke="#000" stroke-miterlimit="10"/><path d="M48.008 246.719h2m-2-1.684h2m-2-1.687h2m-2-1.684h2m-2-1.687h2m-2-1.684h2m-2-1.688h2m-2-1.683h2m-2-1.688h2m-2-1.684h2m-2-1.687h2m-2-1.683h2m-2-1.688h2m-2-1.683h2m-2-1.684h2m-2-1.687h2m-2-1.684h2m-2-1.688h2m-2-1.683h2m-2-1.688h2m-2-1.683h2m-2-1.688h2m-2-1.684h2m-2-1.687h2m-2-1.683h2m-2-1.684h2m-2-1.688h2m-2-1.683h2m-2-1.688h2m-2-1.683h2m-2-1.688h2m-2-1.683h2m-2-1.688h2m-2-1.683h2m-2-1.688h2m-2-1.684h2m-2-1.683h2m-2-1.687h2m-2-1.684h2m-2-1.688h2m-2-1.683h2m-2-1.688h2m-2-1.683h2m-2-1.688h2m-2-1.683h2m-2-1.688h2m-2-1.684h2m-2-1.687h2m-2-1.684h2m-2 80.899h5m-5-13.485h5m-5-13.48h5m-5-13.484h5m-5-13.485h5m-5-13.48h5m-5-13.485h5" fill="none" stroke="#000" stroke-miterlimit="10"/><use xlink:href="#e" x="32.969" y="250.43"/><use xlink:href="#c" x="33.379" y="236.945"/><use xlink:href="#h" x="32.695" y="223.398"/><use xlink:href="#g" x="32.973" y="209.98"/><use xlink:href="#f" x="33.008" y="196.496"/><use xlink:href="#d" x="27.047" y="183.016"/><use xlink:href="#e" x="33.409" y="183.016"/><use xlink:href="#d" x="27.383" y="169.531"/><use xlink:href="#c" x="33.745" y="169.531"/><path d="M48.008 246.719h164.687" fill="none" stroke-linecap="square" stroke="#000" stroke-miterlimit="10"/><path d="M48.008 246.719v-2m4.117 2v-2m4.117 2v-2m4.118 2v-2m4.117 2v-2m4.117 2v-2m4.116 2v-2m4.118 2v-2m4.117 2v-2m4.118 2v-2m4.117 2v-2m4.117 2v-2m4.117 2v-2m4.117 2v-2m4.117 2v-2m4.118 2v-2m4.117 2v-2m4.117 2v-2m4.117 2v-2m4.117 2v-2m4.118 2v-2m4.117 2v-2m4.117 2v-2m4.117 2v-2m4.117 2v-2m4.118 2v-2m4.117 2v-2m4.117 2v-2m4.118 2v-2m4.116 2v-2m4.117 2v-2m4.117 2v-2m4.118 2v-2m4.117 2v-2m4.117 2v-2m4.118 2v-2m4.117 2v-2m4.117 2v-2m4.116 2v-2m4.118 2v-2m4.117 2v-2m-164.687 2v-5m20.586 5v-5m20.586 5v-5m20.586 5v-5m20.586 5v-5m20.586 5v-5m20.585 5v-5m20.587 5v-5m20.585 5v-5" fill="none" stroke="#000" stroke-miterlimit="10"/><use xlink:href="#c" x="37.68" y="266"/><use xlink:href="#q" x="44.042" y="266"/><use xlink:href="#i" x="47.221" y="266"/><use xlink:href="#j" x="53.583" y="266"/><use xlink:href="#c" x="78.852" y="266"/><use xlink:href="#q" x="85.214" y="266"/><use xlink:href="#h" x="88.393" y="266"/><use xlink:href="#j" x="94.755" y="266"/><use xlink:href="#c" x="120.023" y="266"/><use xlink:href="#q" x="126.386" y="266"/><use xlink:href="#j" x="129.564" y="266"/><use xlink:href="#j" x="135.927" y="266"/><use xlink:href="#c" x="161.195" y="266"/><use xlink:href="#q" x="167.558" y="266"/><use xlink:href="#g" x="170.736" y="266"/><use xlink:href="#j" x="177.099" y="266"/><use xlink:href="#c" x="202.367" y="266"/><use xlink:href="#q" x="208.729" y="266"/><use xlink:href="#r" x="211.908" y="266"/><use xlink:href="#j" x="218.271" y="266"/><path d="M10 284.18h20" fill="none" stroke="#00f" stroke-miterlimit="10"/><use xlink:href="#s" x="36.242" y="287.641"/><use xlink:href="#w" x="42.36" y="287.641"/><use xlink:href="#t" x="46.369" y="287.641"/><path d="M264.598 165.82v80.899m33.015-80.899v80.899m33.012-80.899v80.899m33.015-80.899v80.899m33.016-80.899v80.899m33.016-80.899v80.899m-165.074 0h165.074m-165.074-20.227h165.074M264.598 206.27h165.074m-165.074-20.223h165.074M264.598 165.82h165.074" fill="none" stroke="#d3d3d3" stroke-dasharray="5,5" stroke-miterlimit="10"/><g clip-path="url(#x)"><path d="M264.598 246.719v-44.114h6.601v-27.148h6.606v10.18h6.601v6.789h6.602v6.785h6.605v-16.965h6.602v27.145h6.601v-20.36h6.606v37.328h6.601v6.786h6.602v10.18h13.207v-3.391h6.602v3.39h6.605v-6.785h6.602v6.785h13.207v3.395h19.808" fill="#8080ff"/></g><g clip-path="url(#y)"><path d="M264.598 246.719v-44.114h6.601v-27.148h6.606v10.18h6.601v6.789h6.602v6.785h6.605v-16.965h6.602v27.145h6.601v-20.36h6.606v37.328h6.601v6.786h6.602v10.18h13.207v-3.391h6.602v3.39h6.605v-6.785h6.602v6.785h13.207v3.395h19.808" fill="none" stroke="#00f" stroke-miterlimit="10"/></g><path d="M264.598 246.719V165.82" fill="none" stroke-linecap="square" stroke="#000" stroke-miterlimit="10"/><path d="M264.598 246.719h2m-2-2.024h2m-2-2.023h2m-2-2.02h2m-2-2.023h2m-2-2.024h2m-2-2.019h2m-2-2.023h2m-2-2.023h2m-2-2.024h2m-2-2.024h2m-2-2.019h2m-2-2.023h2m-2-2.024h2m-2-2.02h2m-2-2.023h2m-2-2.023h2m-2-2.024h2m-2-2.023h2m-2-2.02h2m-2-2.023h2m-2-2.024h2m-2-2.019h2m-2-2.024h2m-2-2.023h2m-2-2.024h2m-2-2.023h2m-2-2.02h2m-2-2.023h2m-2-2.024h2m-2-2.019h2m-2-2.024h2m-2-2.023h2m-2-2.023h2m-2-2.024h2m-2-2.019h2m-2-2.024h2m-2-2.023h2m-2-2.02h2m-2-2.023h2m-2-2.024h2m-2 80.899h5m-5-20.227h5m-5-20.222h5m-5-20.223h5m-5-20.227h5" fill="none" stroke="#000" stroke-miterlimit="10"/><use xlink:href="#e" x="249.559" y="250.43"/><use xlink:href="#d" x="243.637" y="230.203"/><use xlink:href="#e" x="249.999" y="230.203"/><use xlink:href="#c" x="243.27" y="209.98"/><use xlink:href="#e" x="249.632" y="209.98"/><use xlink:href="#i" x="243.297" y="189.758"/><use xlink:href="#e" x="249.659" y="189.758"/><use xlink:href="#h" x="243.023" y="169.531"/><use xlink:href="#e" x="249.386" y="169.531"/><path d="M264.598 246.719h165.074" fill="none" stroke-linecap="square" stroke="#000" stroke-miterlimit="10"/><path d="M264.598 246.719v-2m3.3 2v-2m3.302 2v-2m3.3 2v-2m3.305 2v-2m3.3 2v-2m3.301 2v-2m3.301 2v-2m3.301 2v-2m3.301 2v-2m3.304 2v-2m3.301 2v-2m3.301 2v-2m3.301 2v-2m3.3 2v-2m3.301 2v-2m3.305 2v-2m3.301 2v-2m3.3 2v-2m3.301 2v-2m3.301 2v-2m3.305 2v-2m3.3 2v-2m3.301 2v-2m3.301 2v-2m3.301 2v-2m3.301 2v-2m3.304 2v-2m3.302 2v-2m3.3 2v-2m3.3 2v-2m3.301 2v-2m3.301 2v-2m3.305 2v-2m3.301 2v-2m3.3 2v-2m3.302 2v-2m3.3 2v-2m3.305 2v-2m3.3 2v-2m3.301 2v-2m3.301 2v-2m3.301 2v-2m3.301 2v-2m3.304 2v-2m3.301 2v-2m3.301 2v-2m3.301 2v-2m3.3 2v-2m3.301 2v-2m3.305 2v-2m3.301 2v-2m-168.375 2v-5m33.015 5v-5m33.012 5v-5m33.015 5v-5m33.016 5v-5m33.016 5v-5" fill="none" stroke="#000" stroke-miterlimit="10"/><use xlink:href="#e" x="262.078" y="266"/><use xlink:href="#e" x="287.309" y="266"/><use xlink:href="#q" x="293.671" y="266"/><use xlink:href="#e" x="296.85" y="266"/><use xlink:href="#c" x="303.212" y="266"/><use xlink:href="#e" x="320.105" y="266"/><use xlink:href="#q" x="326.468" y="266"/><use xlink:href="#e" x="329.646" y="266"/><use xlink:href="#h" x="336.009" y="266"/><use xlink:href="#e" x="353.152" y="266"/><use xlink:href="#q" x="359.515" y="266"/><use xlink:href="#e" x="362.693" y="266"/><use xlink:href="#g" x="369.056" y="266"/><use xlink:href="#e" x="386.195" y="266"/><use xlink:href="#q" x="392.558" y="266"/><use xlink:href="#e" x="395.736" y="266"/><use xlink:href="#f" x="402.099" y="266"/><use xlink:href="#e" x="422.508" y="266"/><use xlink:href="#q" x="428.87" y="266"/><use xlink:href="#d" x="432.049" y="266"/><path d="M243.023 284.18h20" fill="none" stroke="#00f" stroke-miterlimit="10"/><use xlink:href="#s" x="269.266" y="287.641"/><use xlink:href="#w" x="275.384" y="287.641"/><use xlink:href="#w" x="279.393" y="287.641"/></svg>