<svg xmlns="http://www.w3.org/2000/svg" xmlns:xlink="http://www.w3.org/1999/xlink" width="575.467" height="370.146" viewBox="0 0 431.6 277.609"><defs><symbol overflow="visible" id="w"><path d="M.484-3.14h2.641v.796H.485zm0 0"/></symbol><symbol overflow="visible" id="x"><path d="M3.781-6.438L1.297-2.546H3.78zm-.265-.859h1.25v4.75h1.03v.828h-1.03V0H3.78v-1.719H.484v-.953zm0 0"/></symbol><symbol overflow="visible" id="y"><path d="M4.063-3.938c.468.106.832.32 1.093.641.27.313.407.703.407 1.172 0 .719-.25 1.277-.75 1.672-.493.398-1.196.594-2.11.594a4.89 4.89 0 0 1-.937-.094 7.464 7.464 0 0 1-1-.266v-.953c.27.156.566.277.89.36.332.085.676.125 1.032.125.613 0 1.082-.118 1.406-.36.32-.25.484-.61.484-1.078 0-.426-.152-.758-.453-1-.305-.238-.719-.36-1.25-.36h-.86v-.812h.891c.489 0 .86-.098 1.11-.297.257-.195.39-.476.39-.843 0-.364-.136-.645-.406-.844-.262-.207-.637-.313-1.125-.313-.273 0-.563.032-.875.094-.313.055-.652.14-1.016.266v-.875c.375-.102.723-.18 1.047-.235.332-.05.64-.078.922-.078.75 0 1.344.172 1.781.516.438.336.657.793.657 1.375 0 .406-.118.75-.344 1.031-.23.273-.559.46-.984.563zm0 0"/></symbol><symbol overflow="visible" id="z"><path d="M1.922-.828h3.437V0H.734v-.828c.375-.383.883-.906 1.532-1.563a52.138 52.138 0 0 0 1.218-1.265c.313-.352.532-.649.657-.89.125-.25.187-.493.187-.735 0-.383-.137-.696-.406-.938-.274-.25-.625-.375-1.063-.375-.312 0-.64.059-.984.172-.336.106-.7.266-1.094.484v-1a8.838 8.838 0 0 1 1.11-.359c.343-.082.66-.125.953-.125.75 0 1.347.188 1.797.563.457.375.687.882.687 1.515 0 .305-.058.59-.172.86-.117.261-.32.574-.61.937-.085.094-.343.371-.78.828-.438.45-1.055 1.078-1.844 1.89zm0 0"/></symbol><symbol overflow="visible" id="A"><path d="M1.234-.828H2.86v-5.563l-1.765.344v-.89l1.75-.36h.984v6.469h1.61V0H1.234zm0 0"/></symbol><symbol overflow="visible" id="B"><path d="M3.172-6.64c-.5 0-.883.25-1.14.75-.25.5-.376 1.25-.376 2.25s.125 1.75.375 2.25c.258.5.64.75 1.14.75.52 0 .907-.25 1.157-.75.258-.5.39-1.25.39-2.25s-.132-1.75-.39-2.25c-.25-.5-.637-.75-1.156-.75zm0-.782c.82 0 1.445.324 1.875.969.437.648.656 1.586.656 2.812 0 1.23-.219 2.168-.656 2.813-.43.648-1.055.969-1.875.969-.813 0-1.438-.32-1.875-.97-.43-.644-.64-1.581-.64-2.812 0-1.226.21-2.164.64-2.812.437-.645 1.062-.969 1.875-.969zm0 0"/></symbol><symbol overflow="visible" id="C"><path d="M3.297-4.031c-.438 0-.79.152-1.047.453-.262.305-.39.715-.39 1.234 0 .531.128.95.39 1.25.258.305.61.453 1.047.453.445 0 .797-.148 1.047-.453.258-.3.39-.718.39-1.25 0-.52-.132-.93-.39-1.234-.25-.3-.602-.453-1.047-.453zm1.969-3.094v.89A4.341 4.341 0 0 0 4.5-6.5a3.03 3.03 0 0 0-.734-.094c-.657 0-1.157.219-1.5.657-.344.437-.54 1.105-.579 2 .188-.282.426-.493.72-.641.288-.156.609-.234.952-.234.727 0 1.305.226 1.735.671.426.438.64 1.04.64 1.797 0 .75-.226 1.356-.671 1.813-.438.449-1.028.672-1.766.672-.844 0-1.492-.32-1.938-.97C.922-1.472.703-2.41.703-3.64c0-1.144.27-2.062.813-2.75.55-.687 1.285-1.03 2.203-1.03.25 0 .5.026.75.077.25.043.515.117.797.219zm0 0"/></symbol><symbol overflow="visible" id="D"><path d="M3.172-3.469c-.469 0-.84.133-1.11.39-.261.25-.39.595-.39 1.032 0 .438.129.781.39 1.031.27.25.641.375 1.11.375.469 0 .836-.125 1.11-.375.269-.25.405-.593.405-1.03 0-.438-.136-.782-.406-1.032-.261-.258-.633-.39-1.11-.39zm-.985-.406c-.417-.102-.746-.3-.984-.594-.242-.289-.36-.644-.36-1.062 0-.582.208-1.04.626-1.375.414-.344.984-.516 1.703-.516.726 0 1.3.172 1.719.516.414.336.625.793.625 1.375 0 .418-.121.773-.36 1.062-.242.293-.57.492-.984.594.476.105.848.32 1.11.64.257.325.39.72.39 1.188 0 .711-.215 1.25-.64 1.625-.43.375-1.048.563-1.86.563-.805 0-1.422-.188-1.86-.563-.43-.375-.64-.914-.64-1.625 0-.469.133-.863.406-1.187.27-.32.64-.536 1.11-.641zm-.359-1.563c0 .375.117.672.36.891.238.211.566.313.984.313.426 0 .758-.102 1-.313.238-.219.36-.516.36-.89 0-.375-.122-.665-.36-.875-.242-.22-.574-.329-1-.329-.418 0-.746.11-.985.329-.242.21-.359.5-.359.875zm0 0"/></symbol><symbol overflow="visible" id="E"><path d="M1.828-7.016v1.547h1.86v.703h-1.86v2.97c0 .437.063.726.188.859.125.125.375.187.75.187h.921V0h-.921c-.7 0-1.184-.129-1.454-.39-.261-.258-.39-.727-.39-1.407v-2.969H.266v-.703h.656v-1.547zm0 0"/></symbol><symbol overflow="visible" id="F"><path d="M4.11-4.625a1.053 1.053 0 0 0-.329-.125 1.508 1.508 0 0 0-.39-.047c-.512 0-.903.168-1.172.5-.274.324-.406.797-.406 1.422V0H.905v-5.469h.906v.844c.188-.332.43-.578.735-.734.3-.157.672-.235 1.11-.235.062 0 .128.008.202.016.07 0 .157.012.25.031zm0 0"/></symbol><symbol overflow="visible" id="G"><path d="M.844-2.156V-5.47h.906v3.282c0 .511.098.898.297 1.156.207.261.508.39.906.39.488 0 .875-.148 1.156-.453.282-.312.422-.738.422-1.281v-3.094h.907V0H4.53v-.844a2.253 2.253 0 0 1-.765.75c-.282.157-.618.235-1 .235-.625 0-1.106-.192-1.438-.579-.324-.394-.484-.968-.484-1.718zm2.265-3.438zm0 0"/></symbol><symbol overflow="visible" id="H"><path d="M5.484-3.297V0h-.89v-3.266c0-.52-.106-.906-.313-1.156-.199-.258-.5-.39-.906-.39-.48 0-.86.156-1.14.468-.282.305-.422.719-.422 1.25V0H.905v-7.594h.906v2.969c.22-.32.473-.563.766-.719a2 2 0 0 1 1-.25c.625 0 1.098.196 1.422.578.32.387.484.961.484 1.72zm0 0"/></symbol><symbol overflow="visible" id="I"><path d="M4.547-4.64v-2.954h.89V0h-.89v-.828a1.81 1.81 0 0 1-.719.734c-.293.157-.64.235-1.047.235a1.958 1.958 0 0 1-1.61-.782C.755-1.17.548-1.867.548-2.734c0-.852.207-1.54.625-2.063.414-.531.953-.797 1.61-.797.405 0 .753.078 1.046.235.29.156.531.398.719.718zM1.484-2.735c0 .668.133 1.187.407 1.562.27.375.644.563 1.125.563.468 0 .836-.188 1.109-.563.281-.375.422-.894.422-1.562 0-.657-.14-1.172-.422-1.547a1.299 1.299 0 0 0-1.11-.563c-.48 0-.855.188-1.124.563-.274.375-.407.89-.407 1.547zm0 0"/></symbol><symbol overflow="visible" id="J"><path d="M3.422-2.75c-.719 0-1.219.086-1.5.25-.281.168-.422.45-.422.844 0 .324.102.578.313.765.207.188.492.282.859.282.5 0 .898-.176 1.203-.532.3-.351.453-.82.453-1.406v-.203zm1.797-.375V0h-.89v-.828c-.212.336-.47.578-.782.734-.305.157-.672.235-1.11.235-.562 0-1.011-.157-1.343-.47-.336-.312-.5-.734-.5-1.265 0-.613.207-1.078.625-1.39.414-.313 1.031-.47 1.843-.47h1.266v-.093c0-.406-.14-.723-.422-.953-.273-.227-.652-.344-1.14-.344-.313 0-.621.043-.922.125A3.704 3.704 0 0 0 1-4.39v-.828c.332-.125.648-.218.953-.281.313-.063.613-.094.906-.094.79 0 1.38.203 1.766.61.395.406.594 1.027.594 1.859zm0 0"/></symbol><symbol overflow="visible" id="K"><path d="M1.813-.828v2.906H.905v-7.547h.906v.828c.188-.32.422-.562.704-.718.289-.157.64-.235 1.046-.235.665 0 1.204.266 1.61.797.414.524.625 1.211.625 2.063 0 .867-.211 1.562-.625 2.093-.406.524-.945.782-1.61.782-.406 0-.757-.078-1.046-.235C2.234-.25 2-.492 1.812-.828zm3.062-1.906c0-.657-.14-1.172-.422-1.547a1.299 1.299 0 0 0-1.11-.563c-.48 0-.855.188-1.124.563-.274.375-.406.89-.406 1.547 0 .668.132 1.187.406 1.562.27.375.644.563 1.125.563.469 0 .836-.188 1.11-.563.28-.375.421-.894.421-1.562zm0 0"/></symbol><symbol overflow="visible" id="L"><path d="M3.063-4.844c-.481 0-.86.188-1.141.563-.281.375-.422.89-.422 1.547 0 .656.133 1.171.406 1.546.282.375.664.563 1.157.563.476 0 .859-.188 1.14-.563.281-.375.422-.89.422-1.546 0-.645-.14-1.157-.422-1.532a1.349 1.349 0 0 0-1.14-.578zm0-.75c.78 0 1.394.258 1.843.766.446.5.672 1.2.672 2.094 0 .898-.226 1.601-.672 2.109-.449.512-1.062.766-1.843.766-.782 0-1.399-.254-1.844-.766-.45-.508-.672-1.21-.672-2.11 0-.894.223-1.593.672-2.093.445-.508 1.062-.766 1.843-.766zm0 0"/></symbol><symbol overflow="visible" id="M"><path d="M4.422-5.313v.86a3.218 3.218 0 0 0-.781-.297 3.838 3.838 0 0 0-.86-.094c-.437 0-.773.07-1 .203a.673.673 0 0 0-.328.61c0 .21.078.375.234.5.157.117.477.226.97.328l.296.078c.645.137 1.098.328 1.36.578.269.25.406.594.406 1.031 0 .512-.203.918-.61 1.22-.398.292-.945.437-1.64.437A4.89 4.89 0 0 1 1.53.047a6.07 6.07 0 0 1-.984-.25v-.922c.332.168.656.297.969.39.32.087.644.126.968.126.414 0 .739-.07.97-.22a.688.688 0 0 0 .343-.609c0-.25-.086-.437-.25-.562-.156-.133-.516-.258-1.078-.375l-.313-.078c-.554-.113-.953-.29-1.203-.531-.25-.25-.375-.582-.375-1 0-.52.18-.914.547-1.188.363-.281.883-.422 1.563-.422.32 0 .628.028.921.078.301.043.57.11.813.204zm0 0"/></symbol><symbol overflow="visible" id="N"><path d="M5.625-2.953v.437h-4.14c.038.618.226 1.086.562 1.407.332.324.797.484 1.39.484.344 0 .676-.04 1-.125.333-.082.657-.207.97-.375v.844A5.3 5.3 0 0 1 3.39.14c-.875 0-1.57-.25-2.079-.75C.801-1.117.547-1.813.547-2.688c0-.894.238-1.601.719-2.124.488-.52 1.144-.782 1.968-.782.739 0 1.32.235 1.75.703.426.47.641 1.118.641 1.938zm-.906-.266c0-.488-.137-.879-.407-1.172-.273-.3-.625-.453-1.062-.453-.512 0-.918.149-1.219.438-.293.281-.465.68-.515 1.187zm0 0"/></symbol><symbol overflow="visible" id="O"><path d="M.938-5.469h.906V0H.937zm0-2.125h.906v1.14H.937zm0 0"/></symbol><clipPath id="a"><path d="M32 68h402.516v109H32zm0 0"/></clipPath><clipPath id="b"><path d="M431 30h3.516v5H431zm0 0"/></clipPath><clipPath id="c"><path d="M32 73h402.516v92H32zm0 0"/></clipPath><clipPath id="d"><path d="M32 63h402.516v138H32zm0 0"/></clipPath><clipPath id="e"><path d="M32 84h402.516v84H32zm0 0"/></clipPath><clipPath id="f"><path d="M32 58h402.516v114H32zm0 0"/></clipPath><clipPath id="g"><path d="M32 54h402.516v133H32zm0 0"/></clipPath><clipPath id="h"><path d="M32 38h402.516v154H32zm0 0"/></clipPath><clipPath id="i"><path d="M32 77h402.516v114H32zm0 0"/></clipPath><clipPath id="j"><path d="M32 67h402.516v83H32zm0 0"/></clipPath><clipPath id="k"><path d="M32 68h402.516v69H32zm0 0"/></clipPath><clipPath id="l"><path d="M32 34h402.516v135H32zm0 0"/></clipPath><clipPath id="m"><path d="M32 86h402.516v77H32zm0 0"/></clipPath><clipPath id="n"><path d="M32 74h402.516v105H32zm0 0"/></clipPath><clipPath id="o"><path d="M32 67h402.516v139H32zm0 0"/></clipPath><clipPath id="p"><path d="M32 77h402.516v104H32zm0 0"/></clipPath><clipPath id="q"><path d="M32 70h402.516v125H32zm0 0"/></clipPath><clipPath id="r"><path d="M32 38h402.516v147H32zm0 0"/></clipPath><clipPath id="s"><path d="M32 61h402.516v113H32zm0 0"/></clipPath><clipPath id="t"><path d="M32 75h402.516v148H32zm0 0"/></clipPath><clipPath id="u"><path d="M32 82h402.516v91H32zm0 0"/></clipPath><clipPath id="v"><path d="M32 83h402.516v110H32zm0 0"/></clipPath></defs><path d="M19.429 3.71v230.9M100.546 3.71v230.9M181.663 3.71v230.9M262.784 3.71v230.9M343.902 3.71v230.9M425.023 3.71v230.9M19.429 234.61h405.594M19.429 201.625h405.594M19.429 168.637h405.594M19.429 135.652h405.594M19.429 102.668h405.594M19.429 69.684h405.594M19.429 36.695h405.594M19.429 3.71h405.594" fill="none" stroke="#d1d1d1" stroke-miterlimit="10" stroke-dasharray="5,5"/><g clip-path="url(#a)" transform="translate(-9.493 -12.11)"><path d="M33.066 173.629l1.07.379 6.669 1.515.047.07 16.804-2.761.418-.121 4.465-2.504 2.11-1.219 2.363-1.883 1.054-.867 17.52-20.195 6.777-10.57.239-.336 12.168-21.29 3.117-5.62 2.695-4.723 5.352-9.094 2.18-3.515 15.761-19.356 21.754-2.836 12.64 7.957 2.829 2.008.914.613 5.254 3.235 5.105 2.476.082.02.313.21.164.07 6.011 1.384 9.782-.668 1.566-.453 3.043-.996 2.074-.84 4.477-1.723 7.258-2.648 2.75-.614 3.035-.328 2.8.074 2.926.5 2.356.872 21.136 24.28 3.622 6.673 1.289 2.465 1.523 2.96 4.3 8.536 6.24 12.18.566 1.152 4.5 8.14 2.859 4.621 6.598 8.715 5.066 4.43.21.187 11.192 1.75.68-.265 10.871-8.176 3.34-3.922 5.84-7.61 18.273-23.82.531-.562 1.32-1.39 3.692-3.38 12.145-6.343 2.926-.551 4.085-.082 3.27.328.223.047 4.285 1.02 3.945 1.312 7.313 3.047 13.824 5.11 3.531.651.672.094 11.445-1.16 12.348-7.078 9.133-7.555" fill="none" stroke="#00f" stroke-linecap="round" stroke-linejoin="round" stroke-miterlimit="10"/></g><path d="M25.574 218.117c0 2.668-4 2.668-4 0s4-2.668 4 0" fill="#007f00"/><path d="M26.644 218.117c0 2.668-4 2.668-4 0s4-2.668 4 0M33.312 218.117c0 2.668-4 2.668-4 0s4-2.668 4 0" fill="#007f00"/><path d="M33.359 218.117c0 2.668-4 2.668-4 0s4-2.668 4 0M50.163 218.117c0 2.668-4 2.668-4 0s4-2.668 4 0" fill="#007f00"/><path d="M50.581 218.117c0 2.668-4 2.668-4 0s4-2.668 4 0M55.046 218.117c0 2.668-4 2.668-4 0s4-2.668 4 0" fill="#007f00"/><path d="M57.156 218.117c0 2.668-4 2.668-4 0s4-2.668 4 0" fill="#007f00"/><path d="M59.519 218.117c0 2.668-4 2.668-4 0s4-2.668 4 0" fill="#007f00"/><path d="M60.574 218.117c0 2.668-4 2.668-4 0s4-2.668 4 0M78.093 218.117c0 2.668-4 2.668-4 0s4-2.668 4 0M84.87 218.117c0 2.668-4 2.668-4 0s4-2.668 4 0" fill="#007f00"/><path d="M85.109 218.117c0 2.668-4 2.668-4 0s4-2.668 4 0M97.277 20.203c0 2.668-4 2.668-4 0s4-2.668 4 0" fill="#007f00"/><path d="M100.394 20.203c0 2.668-4 2.668-4 0s4-2.668 4 0" fill="#007f00"/><path d="M103.09 20.203c0 2.668-4 2.668-4 0s4-2.668 4 0M108.44 20.203c0 2.668-4 2.668-4 0s4-2.668 4 0" fill="#007f00"/><path d="M110.62 20.203c0 2.668-4 2.668-4 0s4-2.668 4 0M126.382 20.203c0 2.668-4 2.668-4 0s4-2.668 4 0M148.136 20.203c0 2.668-4 2.668-4 0s4-2.668 4 0M160.777 20.203c0 2.668-4 2.668-4 0s4-2.668 4 0" fill="#007f00"/><path d="M163.605 20.203c0 2.668-4 2.668-4 0s4-2.668 4 0M164.519 218.117c0 2.668-4 2.668-4 0s4-2.668 4 0M169.773 20.203c0 2.668-4 2.668-4 0s4-2.668 4 0M174.878 20.203c0 2.668-4 2.668-4 0s4-2.668 4 0" fill="#007f00"/><path d="M174.96 20.203c0 2.668-4 2.668-4 0s4-2.668 4 0M175.273 218.117c0 2.668-4 2.668-4 0s4-2.668 4 0" fill="#007f00"/><path d="M175.437 218.117c0 2.668-4 2.668-4 0s4-2.668 4 0M181.449 20.203c0 2.668-4 2.668-4 0s4-2.668 4 0M191.23 20.203c0 2.668-4 2.668-4 0s4-2.668 4 0" fill="#007f00"/><path d="M192.796 20.203c0 2.668-4 2.668-4 0s4-2.668 4 0M195.84 218.117c0 2.668-4 2.668-4 0s4-2.668 4 0" fill="#007f00"/><path d="M197.913 218.117c0 2.668-4 2.668-4 0s4-2.668 4 0M202.39 218.117c0 2.668-4 2.668-4 0s4-2.668 4 0M209.648 20.203c0 2.668-4 2.668-4 0s4-2.668 4 0" fill="#007f00"/><path d="M212.398 20.203c0 2.668-4 2.668-4 0s4-2.668 4 0" fill="#007f00"/><path d="M215.433 20.203c0 2.668-4 2.668-4 0s4-2.668 4 0" fill="#007f00"/><path d="M218.234 20.203c0 2.668-4 2.668-4 0s4-2.668 4 0" fill="#007f00"/><path d="M221.16 20.203c0 2.668-4 2.668-4 0s4-2.668 4 0" fill="#007f00"/><path d="M223.515 20.203c0 2.668-4 2.668-4 0s4-2.668 4 0M244.652 20.203c0 2.668-4 2.668-4 0s4-2.668 4 0" fill="#007f00"/><path d="M248.273 20.203c0 2.668-4 2.668-4 0s4-2.668 4 0M249.562 218.117c0 2.668-4 2.668-4 0s4-2.668 4 0" fill="#007f00"/><path d="M251.085 20.203c0 2.668-4 2.668-4 0s4-2.668 4 0M255.386 20.203c0 2.668-4 2.668-4 0s4-2.668 4 0M261.624 218.117c0 2.668-4 2.668-4 0s4-2.668 4 0" fill="#007f00"/><path d="M262.19 218.117c0 2.668-4 2.668-4 0s4-2.668 4 0M266.69 20.203c0 2.668-4 2.668-4 0s4-2.668 4 0" fill="#007f00"/><path d="M269.55 20.203c0 2.668-4 2.668-4 0s4-2.668 4 0M276.148 20.203c0 2.668-4 2.668-4 0s4-2.668 4 0M281.214 218.117c0 2.668-4 2.668-4 0s4-2.668 4 0" fill="#007f00"/><path d="M281.425 218.117c0 2.668-4 2.668-4 0s4-2.668 4 0M292.616 218.117c0 2.668-4 2.668-4 0s4-2.668 4 0" fill="#007f00"/><path d="M293.296 218.117c0 2.668-4 2.668-4 0s4-2.668 4 0M304.167 218.117c0 2.668-4 2.668-4 0s4-2.668 4 0" fill="#007f00"/><path d="M307.507 218.117c0 2.668-4 2.668-4 0s4-2.668 4 0M313.347 218.117c0 2.668-4 2.668-4 0s4-2.668 4 0M331.62 20.203c0 2.668-4 2.668-4 0s4-2.668 4 0" fill="#007f00"/><path d="M332.152 20.203c0 2.668-4 2.668-4 0s4-2.668 4 0" fill="#007f00"/><path d="M333.472 20.203c0 2.668-4 2.668-4 0s4-2.668 4 0" fill="#007f00"/><path d="M337.163 20.203c0 2.668-4 2.668-4 0s4-2.668 4 0M349.308 20.203c0 2.668-4 2.668-4 0s4-2.668 4 0M352.234 218.117c0 2.668-4 2.668-4 0s4-2.668 4 0M356.32 218.117c0 2.668-4 2.668-4 0s4-2.668 4 0" fill="#007f00"/><path d="M359.59 218.117c0 2.668-4 2.668-4 0s4-2.668 4 0M359.812 20.203c0 2.668-4 2.668-4 0s4-2.668 4 0M364.097 20.203c0 2.668-4 2.668-4 0s4-2.668 4 0M368.042 218.117c0 2.668-4 2.668-4 0s4-2.668 4 0M375.355 20.203c0 2.668-4 2.668-4 0s4-2.668 4 0M389.179 20.203c0 2.668-4 2.668-4 0s4-2.668 4 0M392.71 218.117c0 2.668-4 2.668-4 0s4-2.668 4 0" fill="#007f00"/><path d="M393.382 218.117c0 2.668-4 2.668-4 0s4-2.668 4 0M404.827 218.117c0 2.668-4 2.668-4 0s4-2.668 4 0M417.175 20.203c0 2.668-4 2.668-4 0s4-2.668 4 0" fill="#007f00"/><g clip-path="url(#b)" transform="translate(-9.493 -12.11)"><path d="M435.8 32.313c0 2.667-4 2.667-4 0 0-2.668 4-2.668 4 0" fill="#007f00"/></g><g clip-path="url(#c)" transform="translate(-9.493 -12.11)"><path d="M33.066 157.836l1.07 1.203 6.669 5.375.047.074 16.804-.418.418-.25 4.465-3.195 2.11-1.91 2.363-2.305 1.054-1.129 17.52-22.937 6.777-9.11.239-.351 12.168-13.543 3.117-2.828 2.695-2.098 5.352-3.637 2.18-1.293 15.761-7.515 21.754-10.07 12.64-5.317 2.829-.91.914-.215 5.254-1.07 5.105-.36.082.028.313-.004.164-.074 6.011.64 9.782 2.965 1.566.703 3.043 1.527 2.074 1.18 4.477 2.735 7.258 5.21 2.75 2.06 3.035 2.46 2.8 2.234 2.926 2.426 2.356 2 21.136 16.785 3.622 2.485 1.289.789 1.523.949 4.3 2.57 6.24 3.383.566.192 4.5 2.18 2.859 1.386 6.598 3.172 5.066 2.504.21.027 11.192 5.273.68.223 10.871 2.649 3.34-.16 5.84-1.442 18.273-15.414.531-.582 1.32-1.555 3.692-4.387 12.145-13.14 2.926-2.41 4.085-2.836 3.27-1.754.223-.047 4.285-1.473 3.945-.648 7.313.226 13.824 2.848 3.531.711.672.031 11.445.95 12.348-2.012 9.133-3.305" fill="none" stroke="#000" stroke-linecap="round" stroke-linejoin="round" stroke-miterlimit="10" stroke-opacity=".1"/></g><g clip-path="url(#d)" transform="translate(-9.493 -12.11)"><path d="M33.066 200.375l1.07-.133 6.669-1.773.047-.012 16.804-8.352.418-.214 4.465-3.149 2.11-1.62 2.363-1.923 1.054-.953 17.52-21.023 6.777-10.633.239-.473 12.168-20.156 3.117-4.844 2.695-3.84 5.352-6.695 2.18-2.176 15.761-7.414 21.754 6.035 12.64-.25 2.829-1.132.914-.512 5.254-3.473 5.105-4.566.082-.14.313-.208.164-.207 6.011-6.531 9.782-11.469 1.566-1.715 3.043-3.254 2.074-2.187 4.477-4.098 7.258-4.972 2.75-1.254 3.035-.77 2.8-.246 2.926.273 2.356.575 21.136 20.605 3.622 5.348 1.289 2.047 1.523 2.324 4.3 6.433 6.24 8.54.566.656 4.5 4.707 2.859 2.426 6.598 3.093 5.066.258.21-.02 11.192-5.449.68-.46 10.871-9.5 3.34-3.012 5.84-4.793 18.273-7.207h.531l1.32.054 3.692.461 12.145 4.809 2.926 1.648 4.085 2.391 3.27 1.836.223.09 4.285 2.113 3.945 1.543 7.313 1.375 13.824-3.762 3.531-2.222.672-.52L412.32 91.5l12.348-9.387 9.133-3.87" fill="none" stroke="#000" stroke-linecap="round" stroke-linejoin="round" stroke-miterlimit="10" stroke-opacity=".1"/></g><g clip-path="url(#e)" transform="translate(-9.493 -12.11)"><path d="M33.066 166.71l1.07-.015 6.669-.761.047-.04 16.804-5.124.418-.254 4.465-2.188 2.11-1.148 2.363-1.36 1.054-.683 17.52-13.512 6.777-6.105.239-.188 12.168-10.414 3.117-2.316 2.695-1.895 5.352-3.227 2.18-1.03 15.761-5.223 21.754-4.957 12.64-4.77 2.829-1.234.914-.422 5.254-2.367 5.105-2.286.082-.02.313-.222.164-.043 6.011-2.535 9.782-3.55 1.566-.454 3.043-.883 2.074-.496 4.477-.933 7.258-.965 2.75-.145 3.035-.023 2.8.148 2.926.407 2.356.398 21.137 8.848 3.62 2.336 1.29.832 1.523 1.03 4.3 2.927 6.24 4.304.566.41 4.5 3.09 2.859 1.856 6.598 3.898 5.066 2.563.211.015 11.191 3.77.68.152 10.871.79 3.34-.266 5.84-.953 18.273-4.915.532-.167 1.32-.383 3.691-.867 12.145-1.895 2.926-.148 4.085.003 3.27.032.223.03 4.285.208 3.945.312 7.313.555 13.824-.148 3.531-.489.672-.128 11.445-3.868 12.348-8.37 9.133-8.423" fill="none" stroke="#000" stroke-linecap="round" stroke-linejoin="round" stroke-miterlimit="10" stroke-opacity=".1"/></g><g clip-path="url(#f)" transform="translate(-9.493 -12.11)"><path d="M33.066 168.453l1.07.547 6.669 1.992.047-.012 16.804-8.027.418-.41 4.465-5.008 2.11-2.746 2.363-3.148 1.054-1.57 17.52-28.997 6.777-11.703.239-.348 12.168-19.57 3.117-4.418 2.695-3.715 5.352-6.715 2.18-2.562 15.761-12.758 21.754 3.227 12.64 11.265 2.829 2.786.914.93 5.254 4.734 5.105 3.851.082.055.313.21.164.06 6.011 2.859 9.782.812 1.566-.387 3.043-.93 2.074-.862 4.477-2.239 7.258-4.449 2.75-1.586L222.926 78l2.8-1.238 2.926-1.059 2.356-.566 21.136 8.156 3.622 3.469 1.289 1.37 1.523 1.653 4.3 4.633 6.24 6.652.566.637 4.5 4.363 2.859 2.407 6.598 4.484 5.066 2.277.21.02 11.192 1.16.68.008 10.871-2.453 3.34-1.238 5.84-2.207 18.273-7.055.531-.164 1.32-.39 3.692-.966 12.145-1.074 2.926.316 4.085.708 3.27.816.223.11 4.285 1.41 3.945 1.628 7.313 3.317 13.824 6.445 3.531 1.266.672.218 11.445 2.387 12.348-1.273 9.133-3.23" fill="none" stroke="#000" stroke-linecap="round" stroke-linejoin="round" stroke-miterlimit="10" stroke-opacity=".1"/></g><g clip-path="url(#g)" transform="translate(-9.493 -12.11)"><path d="M33.066 183.605l1.07.52 6.669 1.688.047.09 16.804-6.966.418-.44 4.465-4.685 2.11-2.664 2.363-3.125 1.054-1.52 17.52-31.538 6.777-14.305.239-.476 12.168-25.262 3.117-5.961 2.695-4.902 5.352-8.657 2.18-3.136 15.761-14.864 21.754-2.23 12.64 4.722 2.829 1.614.914.59 5.254 3.668 5.105 4.3.082.036.313.343.164.14 6.011 5.54 9.782 9.273 1.566 1.29 3.043 2.289 2.074 1.421 4.477 2.297 7.258 1.285 2.75-.253 3.035-.715 2.8-1.086 2.926-1.407 2.356-1.316 21.136-7.746 3.622 1.066 1.289.676 1.523.785 4.3 3.36 6.24 6.98.566.785 4.5 6.227 2.859 4.183 6.598 9.563 5.066 6.5.21.242 11.192 8.39.68.028 10.871-1.691 3.34-2.07 5.84-4.774 18.273-15.488.531-.344 1.32-.824 3.692-1.774 12.145-2.62 2.926-.165 4.085.102 3.27.152.223.02 4.285.152 3.945.066 7.313-.27 13.824-1.804 3.531-.426.672-.054L412.32 98l12.348 2.273 9.133 3.407" fill="none" stroke="#000" stroke-linecap="round" stroke-linejoin="round" stroke-miterlimit="10" stroke-opacity=".1"/></g><g clip-path="url(#h)" transform="translate(-9.493 -12.11)"><path d="M33.066 191.258l1.07-.524 6.716-4.476 16.804-18.004.418-.469 4.465-5.281 2.11-2.473 2.363-2.543 1.054-1.16 17.52-17 6.777-5.25.239-.258 12.168-7.761 3.117-1.528 2.695-1.14 5.352-1.73 2.18-.516 15.761.953 21.754 6.793 12.64-2.344 2.829-1.805.914-.765 5.254-5.188 5.105-6.945.082-.188.313-.418.164-.265 6.011-10.364 9.782-19.613 1.566-3.305 3.043-6.336 2.074-4.242 4.477-8.476 7.258-11.371 2.75-3.18 3.035-2.648 2.8-1.551 2.926-.77 2.356.082 21.136 26.942 3.622 7.894 1.289 2.985 1.523 3.488 4.3 10.027 6.24 14.074.566 1.22 4.5 9.222 2.859 5.14 6.598 9.891 5.066 5.398.21.215 11.192 5.508.68.149 10.871-.051 3.34-.356 5.84-.636 18.273.367.531.125 1.32-.012 3.692.117 12.145-1.597 2.926-1.059 4.085-1.957 3.27-1.91.223-.121 4.285-3.032 3.945-3.167 7.313-6.61 13.824-12.969 3.531-3.168.672-.586 11.445-8.898 12.348-7.207 9.133-3.121" fill="none" stroke="#000" stroke-linecap="round" stroke-linejoin="round" stroke-miterlimit="10" stroke-opacity=".1"/></g><g clip-path="url(#i)" transform="translate(-9.493 -12.11)"><path d="M33.066 183.34l1.07 1.277 6.669 5.656.047.04 16.804-8.637.418-.59 4.465-7.375 2.11-3.977 2.363-4.804 1.054-2.14 17.52-36.642 6.777-10.828.239-.277 12.168-10.352 3.117-.793 2.695-.277 5.352.926 2.18.773 15.761 8.692 21.754 4.261 12.64-7.726 2.829-2.602.914-.914 5.254-5.574 5.105-5.496.082-.125.313-.324.164-.172 6.011-6.223 9.782-7.648 1.566-.828 3.043-1.22 2.074-.55 4.477-.488 7.258 1.347 2.75 1.102 3.035 1.418 2.8 1.629 2.926 1.844 2.356 1.605 21.136 17.02 3.622 3.425 1.289 1.286 1.523 1.546 4.3 4.57 6.24 7.294.566.691 4.5 5.524 2.859 3.605 6.598 8.164 5.066 5.617.21.301 11.192 8.953.68.305 10.871 1.715 3.34-.817 5.84-2.832 18.273-15.437.531-.63 1.32-1.175 3.692-3.36 12.145-9.472 2.926-1.797 4.085-2.12 3.27-1.337.223-.129 4.285-1.363 3.945-.957 7.313-.816 13.824.535 3.531.535.672.172 11.445 2.96 12.348 4.583 9.133 3.437" fill="none" stroke="#000" stroke-linecap="round" stroke-linejoin="round" stroke-miterlimit="10" stroke-opacity=".1"/></g><g clip-path="url(#j)" transform="translate(-9.493 -12.11)"><path d="M33.066 136.21l1.07-.276 6.669-1.473.047.027 16.804-.312.418.07 4.465.754 2.11.496 2.363.441 1.054.11 17.52-.926 6.777-4.309.239-.242 12.168-13.722 3.117-4.34 2.695-3.996 5.352-7.942 2.18-3.207 15.761-19.273 21.754-10.344 12.64 1.512 2.829.98.914.387 5.254 2.441 5.105 2.848.082.024.313.257.164.086 6.011 3.692 9.782 5.636 1.566.704 3.043 1.21 2.074.778 4.477.918 7.258-.149 2.75-.422 3.035-.882 2.8-.918 2.926-.996 2.356-.977 21.136-.371 3.622 2.543 1.289 1.101 1.523 1.497 4.3 4.886 6.24 8.727.566.922 4.5 6.898 2.859 4.516 6.598 9.722 5.066 6.145.21.223 11.192 6.629.68.019 10.871-4.672 3.34-3.32 5.84-7.332 18.273-27.836.531-.8 1.32-1.716 3.692-4.687 12.145-9.551 2.926-.68 4.085.074 3.27 1.075.223.086 4.285 2.511 3.945 3.496 7.313 8.52 13.824 20.574 3.531 5.281.672.961 11.445 15.223 12.348 10.492 9.133 2.86" fill="none" stroke="#000" stroke-linecap="round" stroke-linejoin="round" stroke-miterlimit="10" stroke-opacity=".1"/></g><g clip-path="url(#k)" transform="translate(-9.493 -12.11)"><path d="M33.066 112.078l1.07 1.035 6.669 7.051.047.04 16.804 12.331.418.145 4.465 1.125 2.11.18 2.363-.079 1.054-.16 17.52-7.726 6.777-5.02.239-.156 12.168-9.68 3.117-2.398 2.695-2.211 5.352-4.149 2.18-1.761 15.761-12.336 21.754-14.922 12.64-4.04 2.829-.284.914.043 5.254.308 5.105 1.07.082-.101.313.105.164.055 6.011 1.82 9.782 3.61 1.566.547 3.043 1.074 2.074.695 4.477 1.442 7.258 1.984 2.75.668 3.035.812 2.8.743 2.926.902 2.356.805 21.136 14.46 3.622 3.922 1.289 1.516 1.523 1.773 4.3 5.262 6.24 7.516.566.64 4.5 5.032 2.859 2.91 6.598 5.043 5.066 2.062.21.059 11.192-1.473.68-.394 10.871-8.567 3.34-3.41 5.84-6.387 18.273-17.039.531-.25 1.32-.863 3.692-1.73 12.145-1.606 2.926.477 4.085 1.18 3.27 1.437.223.105 4.285 2.184 3.945 2.398 7.313 5.024 13.824 9.996 3.531 2.371.672.523 11.445 6.692 12.348 4.351 9.133 1.032" fill="none" stroke="#000" stroke-linecap="round" stroke-linejoin="round" stroke-miterlimit="10" stroke-opacity=".1"/></g><g clip-path="url(#l)" transform="translate(-9.493 -12.11)"><path d="M33.066 157.89l1.07.903 6.669 4.547.047.015 16.804 3.016.418-.11 4.465-2.097 2.11-1.582 2.363-2.102 1.054-1.062 17.52-30.742 6.777-17.25.239-.703L104.77 77.84l3.117-7.84 2.695-6.406 5.352-11.29 2.18-3.78 15.761-13.579 21.754 18.547 12.64 21.363 2.829 5.106.914 1.691 5.254 9.52 5.105 8.984.082.114.313.492.164.312 6.011 9.5 9.782 11.82 1.566 1.231 3.043 2.047 2.074.965 4.477.984 7.258-1.715 2.75-1.55 3.035-2.063 2.8-2.281 2.926-2.45 2.356-2 21.136-7.421 3.622 2.082 1.289.992 1.523 1.308 4.3 4.754 6.24 8.817.566.867 4.5 7.367 2.859 4.75 6.598 10.707 5.066 7.2.21.328 11.192 10.039.68.367 10.871.152 3.34-1.726 5.84-4.368 18.273-18.894.531-.438 1.32-1.308 3.692-3.258 12.145-7.543 2.926-1.074 4.085-1.133 3.27-.664.223-.051 4.285-.586 3.945-.605 7.313-1.352 13.824-5.309 3.531-2.136.672-.531 11.445-8.454 12.348-8.773 9.133-4.016" fill="none" stroke="#000" stroke-linecap="round" stroke-linejoin="round" stroke-miterlimit="10" stroke-opacity=".1"/></g><g clip-path="url(#m)" transform="translate(-9.493 -12.11)"><path d="M33.066 141.184l1.07 1.449 6.669 8.305.047.035 16.804 10.582.418.058 4.465-.797 2.11-.765 2.363-1.34 1.054-.645 17.52-18.914 6.777-8.492.239-.312 12.168-12.16 3.117-2.157 2.695-1.433 5.352-1.867 2.18-.465 15.761 1.574 21.754 2.05 12.64-5.995 2.829-2.118.914-.714 5.254-4.372 5.105-4.257.082-.07.313-.25.164-.094 6.011-4.559 9.782-4.906 1.566-.477 3.043-.601 2.074-.23 4.477.05 7.258 1.254 2.75.738 3.035.957 2.8.977 2.926 1.043 2.356.87 21.136 11.009 3.622 2.707 1.289.98 1.523 1.211 4.3 3.75 6.24 5.738.566.512 4.5 4.254 2.859 2.469 6.598 5.074 5.066 2.906.21.16 11.192 2.203.68-.101 10.871-3.004 3.34-1.621 5.84-3.09 18.273-7.93.531-.16 1.32-.316 3.692-.59 12.145-.465 2.926.316 4.085.575 3.27.691.223.094 4.285 1.238 3.945 1.344 7.313 3.594 13.824 10.34 3.531 3.175.672.567 11.445 9.797 12.348 5.851 9.133-1.66" fill="none" stroke="#000" stroke-linecap="round" stroke-linejoin="round" stroke-miterlimit="10" stroke-opacity=".1"/></g><g clip-path="url(#n)" transform="translate(-9.493 -12.11)"><path d="M33.066 154.871l1.07 1.32 6.669 7.86.047.074 16.804 12.719.418.16 4.465 1.133 2.11.246 2.363-.117 1.054-.09 17.52-8.434 6.777-5.379.239-.261 12.168-10.88 3.117-3.023 2.695-2.586 5.352-5.55 2.18-2.364 15.761-20.082 21.754-30.347 12.64-10.957 2.829-1.344.914-.352 5.254-1.199 5.105-.21.082.073.313-.074.164.035 6.011.871 9.782 2.489 1.566.289 3.043.836 2.074.472 4.477.91 7.258 1.336 2.75.594 3.035.566 2.8.711 2.926.805 2.356.867 21.136 11.797 3.622 2.637 1.289.906 1.523 1.113 4.3 3.086 6.24 3.895.566.293 4.5 2.328 2.859 1.246 6.598 1.777 5.066.801.21.047 11.192-.258.68-.125 10.871-2.64 3.34-1.387 5.84-2.969 18.273-12.949.531-.383 1.32-.86 3.692-2.421 12.145-3.863 2.926.183 4.085.95 3.27 1.34.223.128 4.285 2.317 3.945 2.523 7.313 4.656 13.824 4.38 3.531-.434.672-.121 11.445-5.055 12.348-7.086 9.133-2.629" fill="none" stroke="#000" stroke-linecap="round" stroke-linejoin="round" stroke-miterlimit="10" stroke-opacity=".1"/></g><g clip-path="url(#o)" transform="translate(-9.493 -12.11)"><path d="M33.066 199.277l1.07.762 6.669 4.203.047-.086 16.804.407.418-.274 4.465-3.797 2.11-2.418 2.363-3.14 1.054-1.598 17.52-36.27 6.777-16.421.239-.602 12.168-26.137 3.117-5.363 2.695-4.11 5.352-6.785 2.18-2.09 15.761-7.706 21.754-1.278 12.64-2.203 2.829-.742.914-.254 5.254-1.414 5.105-1.64.082.027.313-.125.164-.114 6.011-1.894 9.782-3.531 1.566-.551 3.043-1.164 2.074-.735 4.477-1.722 7.258-2.043 2.75-.551 3.035-.41 2.8.008 2.926.242 2.356.613 21.136 18.867 3.622 5.832 1.289 2.309 1.523 2.797 4.3 8.187 6.24 12.918.566 1.168 4.5 9.469 2.859 5.766 6.598 12.156 5.066 7.422.21.312 11.192 8.188.68.054 10.871-4.957 3.34-3.515 5.84-8.031 18.273-27.286.531-.738 1.32-1.543 3.692-3.91 12.145-7.465 2.926-.844 4.085-.433 3.27-.098.223-.004 4.285.117 3.945.106 7.313-.238 13.824-3.145 3.531-1.273.672-.325 11.445-4.406 12.348-1.715 9.133 2.582" fill="none" stroke="#000" stroke-linecap="round" stroke-linejoin="round" stroke-miterlimit="10" stroke-opacity=".1"/></g><g clip-path="url(#p)" transform="translate(-9.493 -12.11)"><path d="M33.066 180.168l1.07-.11 6.669-2.792.047.023 16.804-22.668.418-.8 4.465-8.981 2.11-4.414 2.363-5.082 1.054-2.293 17.52-34.778 6.777-9.218.239-.344 12.168-8.168 3.117-.43 2.695.032 5.352 1.285 2.18.882 15.761 9.176 21.754 8.114 12.64-2.5 2.829-1.27.914-.55 5.254-3.028 5.105-3.262.082-.09.313-.285.164-.054 6.011-3.977 9.782-4.918 1.566-.461 3.043-.676 2.074-.215 4.477.325 7.258 2.515 2.75 1.586 3.035 2.07 2.8 2.168 2.926 2.422 2.356 2.075 21.136 17.238 3.622 2.168 1.289.793 1.523.742 4.3 2.176 6.24 3.004.566.359 4.5 2.277 2.859 1.649 6.598 4.543 5.066 3.988.21.203 11.192 9.867.68.586 10.871 7.809 3.34 1.418 5.84 1.105 18.273-8.648.531-.453 1.32-1.184 3.692-3.445 12.145-11.281 2.926-2.477 4.085-3.258 3.27-2.332.223-.12 4.285-2.9 3.945-2.304 7.313-3.992 13.824-6.695 3.531-1.461.672-.329 11.445-3.558 12.348-1.492 9.133.058" fill="none" stroke="#000" stroke-linecap="round" stroke-linejoin="round" stroke-miterlimit="10" stroke-opacity=".1"/></g><g clip-path="url(#q)" transform="translate(-9.493 -12.11)"><path d="M33.066 194.281l1.07-.402 6.669-4.04.047-.015 16.804-24.207.418-.734 4.465-8.965 2.11-4.379 2.363-4.969 1.054-2.297 17.52-34.925 6.777-10.871.239-.368 12.168-14.726 3.117-2.86 2.695-2.171 5.352-3.528 2.18-1.136 15.761-3.083 21.754 9.54 12.64 8.421 2.829 1.688.914.523 5.254 2.578 5.105 1.985.082.031.313.156.164-.004 6.011 1.528 9.782 1.418 1.566.14 3.043.364 2.074.234 4.477.547 7.258 1.414 2.75.598 3.035.922 2.8.812 2.926.996 2.356.895 21.136 9.937 3.622 2.125 1.289.77 1.523.965 4.3 2.757 6.24 4.051.566.414 4.5 3.04 2.859 1.96 6.598 4.012 5.066 2.621.21.117 11.192 3.215.68.027 10.871-1.707 3.34-1.574 5.84-3.777 18.273-17.254.531-.559 1.32-1.238 3.692-3.445 12.145-7.817 2.926-.765 4.085-.153 3.27.535.223.02 4.285 1.734 3.945 2.512 7.313 5.953 13.824 12.461 3.531 2.406.672.399 11.445 3.172 12.348-4.86 9.133-7.98" fill="none" stroke="#000" stroke-linecap="round" stroke-linejoin="round" stroke-miterlimit="10" stroke-opacity=".1"/></g><g clip-path="url(#r)" transform="translate(-9.493 -12.11)"><path d="M33.066 181.176l1.07.59 6.669 2.254.047-.082 16.804-7.008.418-.403 4.465-4.828 2.11-2.605 2.363-3.219 1.054-1.457 17.52-30.57 6.777-12.965.239-.383 12.168-21.3 3.117-4.59 2.695-3.575 5.352-5.972 2.18-1.852 15.761-4.781 21.754 10.777 12.64 3.121 2.829-.492.914-.3 5.254-2.903 5.105-4.574.082-.125.313-.258.164-.235 6.011-7.394 9.782-14.074 1.566-2.313 3.043-4.273 2.074-2.774 4.477-5.304 7.258-6.149 2.75-1.418 3.035-.754 2.8-.117 2.926.559 2.356.86 21.136 22.194 3.622 5.325 1.289 1.937 1.523 2.2 4.3 6.507 6.24 8.969.566.75 4.5 6.172 2.859 3.535 6.598 7.719 5.066 5.129.21.218 11.192 9.063.68.41 10.871 5.21 3.34.817 5.84.496 18.273-6.257.531-.286 1.32-.812 3.692-2.508 12.145-8.598 2.926-1.773 4.085-2.133 3.27-1.277.223-.172 4.285-1.027 3.945-.188 7.313 1.508 13.824 8.5 3.531 2.848.672.582 11.445 8.875 12.348 5.09 9.133-.532" fill="none" stroke="#000" stroke-linecap="round" stroke-linejoin="round" stroke-miterlimit="10" stroke-opacity=".1"/></g><g clip-path="url(#s)" transform="translate(-9.493 -12.11)"><path d="M33.066 173.219l1.07-.192 6.669-.996.047.055 16.804-3.559.418-.015 4.465-1.07 2.11-.618 2.363-.52 1.054-.312 17.52-9.988 6.777-7.79.239-.316 12.168-20.828 3.117-6.5 2.695-5.797 5.352-11.894 2.18-4.879 15.761-29.402 21.754-7.035 12.64 11.855 2.829 3.16.914 1.024 5.254 5.777 5.105 4.953.082.059.313.25.164.148 6.011 4.223 9.782 3.035 1.566.05 3.043-.241 2.074-.317 4.477-1.27 7.258-2.671 2.75-1.145 3.035-1.055 2.8-.902 2.926-.719 2.356-.332 21.136 7.414 3.622 3.25 1.289 1.247 1.523 1.652 4.3 4.668 6.24 7.305.566.742 4.5 5.441 2.859 3.332 6.598 7.277 5.066 4.95.21.12 11.192 7.583.68.328 10.871 1.941 3.34-.57 5.84-2.102 18.273-14.863.531-.66 1.32-1.328 3.692-3.961 12.145-12.207 2.926-2.484 4.085-3.141 3.27-2.148.223-.2 4.285-2.187 3.945-1.606 7.313-1.875 13.824-1.343 3.531-.18.672-.008 11.445-.531 12.348.43L433.8 96" fill="none" stroke="#000" stroke-linecap="round" stroke-linejoin="round" stroke-miterlimit="10" stroke-opacity=".1"/></g><g clip-path="url(#t)" transform="translate(-9.493 -12.11)"><path d="M33.066 208.988l1.07 1.18 6.669 6.77.047.015 16.804 4.61.418-.215 4.465-2.246 2.11-1.676 2.363-2.024 1.054-1.062 17.52-25.867 6.777-13 .239-.532 12.168-25.246 3.117-6.699 2.695-5.738 5.352-10.977 2.18-4.347 15.761-27.024 21.754-18.652 12.64.426 2.829 1.07.914.328 5.254 2.773 5.105 3.43.082.059.313.125.164.144 6.011 4.356 9.782 6.754 1.566 1.023 3.043 1.672 2.074 1.21 4.477 2.087 7.258 2.633 2.75.992 3.035.922 2.8.855 2.926.863 2.356.747 21.136 8.933 3.622 1.832 1.289.73 1.523.829 4.3 2.199 6.24 3.2.566.37 4.5 2.02 2.859 1.203 6.598 2.547 5.066 1.676.21.043 11.192 2.812.68.102 10.871 1.386 3.34.067 5.84-.356 18.273-7.023.531-.363 1.32-.926 3.692-2.7 12.145-11.027 2.926-2.738 4.085-4.012 3.27-3.144.223-.14 4.285-3.88 3.945-3.172 7.313-5.183 13.824-6.332 3.531-.934.672-.121 11.445-1.945 12.348-.578 9.133.753" fill="none" stroke="#000" stroke-linecap="round" stroke-linejoin="round" stroke-miterlimit="10" stroke-opacity=".1"/></g><g clip-path="url(#u)" transform="translate(-9.493 -12.11)"><path d="M33.066 148.57l1.07 1.403 6.669 8.718.047.114 16.804 12.687.418.043 4.465.137 2.11-.426 2.363-.89 1.054-.536 17.52-18.984 6.777-10.992.239-.465 12.168-21.215 3.117-5.293 2.695-4.277 5.352-7.996 2.18-2.942 15.761-14.879 21.754.762 12.64 8.848 2.829 2.441.914.73 5.254 4.676 5.105 4.536.082-.004.313.367.164.125 6.011 5.078 9.782 6.906 1.566.98 3.043 1.54 2.074 1.004 4.477 1.648 7.258 1.781 2.75.403 3.035.367 2.8.27 2.926.292 2.356.301 21.136 7.793 3.622 2.684 1.289 1.031 1.523 1.203 4.3 3.899 6.24 5.863.566.523 4.5 4.074 2.859 2.333 6.598 4.351 5.066 1.899.21-.012 11.192-.957.68-.293 10.871-7.735 3.34-3.324 5.84-6.273 18.273-18.04.531-.429 1.32-.965 3.692-2.39 12.145-4.497 2.926-.304 4.085.113 3.27.39.223.048 4.285 1.175 3.945 1.668 7.313 4.188 13.824 11.094 3.531 3.097.672.598 11.445 8.672 12.348 4.246 9.133-1.711" fill="none" stroke="#000" stroke-linecap="round" stroke-linejoin="round" stroke-miterlimit="10" stroke-opacity=".1"/></g><g clip-path="url(#v)" transform="translate(-9.493 -12.11)"><path d="M33.066 191.43l1.07.11 6.669.245.047-.02 16.804-5.831.418-.215 4.465-3.406 2.11-1.856 2.363-2.281 1.054-1.094 17.52-23.133 6.777-10.707.239-.351 12.168-18.82 3.117-4.36 2.695-3.469 5.352-6.09 2.18-2.183 15.761-8.324 21.754 4.312 12.64 6.77 2.829 1.597.914.512 5.254 2.86 5.105 2.398.082.031.313.055.164.093 6.011 1.977 9.782.422 1.566-.242 3.043-.786 2.074-.773 4.477-2.05 7.258-4.391 2.75-1.84 3.035-2 2.8-1.774 2.926-1.77 2.356-1.292 21.136-2.774 3.622 1.25 1.289.465 1.523.778 4.3 2.214 6.24 4.028.566.332 4.5 3.16 2.859 2.008 6.598 4.55 5.066 3.215.21.149 11.192 5.555.68.332 10.871 2 3.34-.192 5.84-1.402 18.273-13.934.531-.582 1.32-1.492 3.692-4.484 12.145-14.922 2.926-3.207 4.085-3.559 3.27-2.09.223-.152 4.285-1.41 3.945-.059 7.313 3.785 13.824 18.422 3.531 6.348.672 1.23 11.445 21.387 12.348 18.586 9.133 7.902" fill="none" stroke="#000" stroke-linecap="round" stroke-linejoin="round" stroke-miterlimit="10" stroke-opacity=".1"/></g><path d="M19.429 234.61V3.71" fill="none" stroke="#000" stroke-linecap="square" stroke-miterlimit="10"/><path d="M19.429 234.61h2M19.429 228.012h2M19.429 221.414h2M19.429 214.816h2M19.429 208.223h2M19.429 201.625h2M19.429 195.027h2M19.429 188.43h2M19.429 181.832h2M19.429 175.234h2M19.429 168.637h2M19.429 162.043h2M19.429 155.445h2M19.429 148.848h2M19.429 142.25h2M19.429 135.652h2M19.429 129.055h2M19.429 122.457h2M19.429 115.863h2M19.429 109.266h2M19.429 102.668h2M19.429 96.07h2M19.429 89.473h2M19.429 82.875h2M19.429 76.277h2M19.429 69.684h2M19.429 63.086h2M19.429 56.488h2M19.429 49.89h2M19.429 43.293h2M19.429 36.695h2M19.429 30.098h2M19.429 23.504h2M19.429 16.906h2M19.429 10.309h2M19.429 3.71h2M19.429 234.61h5M19.429 201.625h5M19.429 168.637h5M19.429 135.652h5M19.429 102.668h5M19.429 69.684h5M19.429 36.695h5M19.429 3.71h5" fill="none" stroke="#000" stroke-miterlimit="10"/><g transform="translate(-9.493 -12.11)"><use height="100%" width="100%" y="250.367" x="10" xlink:href="#w"/><use height="100%" width="100%" y="250.367" x="13.608" xlink:href="#x"/></g><g transform="translate(-9.493 -12.11)"><use height="100%" width="100%" y="217.445" x="10.234" xlink:href="#w"/><use height="100%" width="100%" y="217.445" x="13.843" xlink:href="#y"/></g><g transform="translate(-9.493 -12.11)"><use height="100%" width="100%" y="184.457" x="10.438" xlink:href="#w"/><use height="100%" width="100%" y="184.457" x="14.046" xlink:href="#z"/></g><g transform="translate(-9.493 -12.11)"><use height="100%" width="100%" y="151.41" x="10.359" xlink:href="#w"/><use height="100%" width="100%" y="151.41" x="13.968" xlink:href="#A"/></g><use height="100%" width="100%" y="118.488" x="13.875" xlink:href="#B" transform="translate(-9.493 -12.11)"/><use height="100%" width="100%" y="85.441" x="14.578" xlink:href="#A" transform="translate(-9.493 -12.11)"/><use height="100%" width="100%" y="52.516" x="14.297" xlink:href="#z" transform="translate(-9.493 -12.11)"/><use height="100%" width="100%" y="19.531" x="14.125" xlink:href="#y" transform="translate(-9.493 -12.11)"/><path d="M19.429 234.61h405.594" fill="none" stroke="#000" stroke-linecap="square" stroke-miterlimit="10"/><path d="M19.429 234.61v-2M27.538 234.61v-2M35.652 234.61v-2M43.765 234.61v-2M51.874 234.61v-2M59.988 234.61v-2M68.1 234.61v-2M76.21 234.61v-2M84.324 234.61v-2M92.433 234.61v-2M100.546 234.61v-2M108.66 234.61v-2M116.769 234.61v-2M124.882 234.61v-2M132.995 234.61v-2M141.105 234.61v-2M149.218 234.61v-2M157.331 234.61v-2M165.44 234.61v-2M173.554 234.61v-2M181.663 234.61v-2M189.777 234.61v-2M197.89 234.61v-2M206 234.61v-2M214.113 234.61v-2M222.226 234.61v-2M230.335 234.61v-2M238.449 234.61v-2M246.562 234.61v-2M254.671 234.61v-2M262.784 234.61v-2M270.898 234.61v-2M279.007 234.61v-2M287.12 234.61v-2M295.23 234.61v-2M303.343 234.61v-2M311.456 234.61v-2M319.566 234.61v-2M327.679 234.61v-2M335.792 234.61v-2M343.902 234.61v-2M352.015 234.61v-2M360.128 234.61v-2M368.238 234.61v-2M376.35 234.61v-2M384.46 234.61v-2M392.574 234.61v-2M400.687 234.61v-2M408.796 234.61v-2M416.91 234.61v-2M425.023 234.61v-2M19.429 234.61v-5M100.546 234.61v-5M181.663 234.61v-5M262.784 234.61v-5M343.902 234.61v-5M425.023 234.61v-5" fill="none" stroke="#000" stroke-miterlimit="10"/><use height="100%" width="100%" y="266" x="26.398" xlink:href="#B" transform="translate(-9.493 -12.11)"/><use height="100%" width="100%" y="266" x="107.727" xlink:href="#z" transform="translate(-9.493 -12.11)"/><use height="100%" width="100%" y="266" x="188.5" xlink:href="#x" transform="translate(-9.493 -12.11)"/><use height="100%" width="100%" y="266" x="269.762" xlink:href="#C" transform="translate(-9.493 -12.11)"/><use height="100%" width="100%" y="266" x="350.895" xlink:href="#D" transform="translate(-9.493 -12.11)"/><g transform="translate(-9.493 -12.11)"><use height="100%" width="100%" y="266" x="429.027" xlink:href="#A"/><use height="100%" width="100%" y="266" x="435.39" xlink:href="#B"/></g><path d="M222.976 272.07h20" fill="none" stroke="#00f" stroke-linecap="round" stroke-linejoin="round" stroke-miterlimit="10"/><g transform="translate(212.976 -12.11)"><use height="100%" width="100%" y="287.641" x="36.234" xlink:href="#E"/><use height="100%" width="100%" y="287.641" x="40.155" xlink:href="#F"/><use height="100%" width="100%" y="287.641" x="44.267" xlink:href="#G"/><use height="100%" width="100%" y="287.641" x="50.604" xlink:href="#E"/><use height="100%" width="100%" y="287.641" x="54.525" xlink:href="#H"/></g><path d="M294.718 272.07c0 2.668-4 2.668-4 0s4-2.668 4 0M304.718 272.07c0 2.668-4 2.668-4 0s4-2.668 4 0M314.718 272.07c0 2.668-4 2.668-4 0s4-2.668 4 0" fill="#007f00"/><g transform="translate(212.976 -12.11)"><use height="100%" width="100%" y="287.641" x="105.977" xlink:href="#I"/><use height="100%" width="100%" y="287.641" x="112.324" xlink:href="#J"/><use height="100%" width="100%" y="287.641" x="118.452" xlink:href="#E"/><use height="100%" width="100%" y="287.641" x="122.373" xlink:href="#J"/></g><path d="M360.023 272.07h20" fill="none" stroke="#000" stroke-linecap="round" stroke-linejoin="round" stroke-miterlimit="10" stroke-opacity=".1"/><g transform="translate(212.976 -12.11)"><use height="100%" width="100%" y="287.641" x="173.281" xlink:href="#K"/><use height="100%" width="100%" y="287.641" x="179.629" xlink:href="#L"/><use height="100%" width="100%" y="287.641" x="185.747" xlink:href="#M"/><use height="100%" width="100%" y="287.641" x="190.957" xlink:href="#E"/><use height="100%" width="100%" y="287.641" x="194.878" xlink:href="#N"/><use height="100%" width="100%" y="287.641" x="201.03" xlink:href="#F"/><use height="100%" width="100%" y="287.641" x="205.142" xlink:href="#O"/><use height="100%" width="100%" y="287.641" x="207.92" xlink:href="#L"/><use height="100%" width="100%" y="287.641" x="214.038" xlink:href="#F"/></g></svg>