<svg xmlns="http://www.w3.org/2000/svg" xmlns:xlink="http://www.w3.org/1999/xlink" width="574.145" height="367.479" viewBox="0 0 430.608 275.609"><defs><symbol overflow="visible" id="f"><path d="M.484-3.14h2.641v.796H.485zm0 0"/></symbol><symbol overflow="visible" id="g"><path d="M4.063-3.938c.468.106.832.32 1.093.641.27.313.407.703.407 1.172 0 .719-.25 1.277-.75 1.672-.493.398-1.196.594-2.11.594a4.89 4.89 0 0 1-.937-.094 7.464 7.464 0 0 1-1-.266v-.953c.27.156.566.277.89.36.332.085.676.125 1.032.125.613 0 1.082-.118 1.406-.36.32-.25.484-.61.484-1.078 0-.426-.152-.758-.453-1-.305-.238-.719-.36-1.25-.36h-.86v-.812h.891c.489 0 .86-.098 1.11-.297.257-.195.39-.476.39-.843 0-.364-.136-.645-.406-.844-.262-.207-.637-.313-1.125-.313-.273 0-.563.032-.875.094-.313.055-.652.14-1.016.266v-.875c.375-.102.723-.18 1.047-.235.332-.05.64-.078.922-.078.75 0 1.344.172 1.781.516.438.336.657.793.657 1.375 0 .406-.118.75-.344 1.031-.23.273-.559.46-.984.563zm0 0"/></symbol><symbol overflow="visible" id="h"><path d="M1.922-.828h3.437V0H.734v-.828c.375-.383.883-.906 1.532-1.563a52.138 52.138 0 0 0 1.218-1.265c.313-.352.532-.649.657-.89.125-.25.187-.493.187-.735 0-.383-.137-.696-.406-.938-.274-.25-.625-.375-1.063-.375-.312 0-.64.059-.984.172-.336.106-.7.266-1.094.484v-1a8.838 8.838 0 0 1 1.11-.359c.343-.082.66-.125.953-.125.75 0 1.347.188 1.797.563.457.375.687.882.687 1.515 0 .305-.058.59-.172.86-.117.261-.32.574-.61.937-.085.094-.343.371-.78.828-.438.45-1.055 1.078-1.844 1.89zm0 0"/></symbol><symbol overflow="visible" id="i"><path d="M1.234-.828H2.86v-5.563l-1.765.344v-.89l1.75-.36h.984v6.469h1.61V0H1.234zm0 0"/></symbol><symbol overflow="visible" id="j"><path d="M3.172-6.64c-.5 0-.883.25-1.14.75-.25.5-.376 1.25-.376 2.25s.125 1.75.375 2.25c.258.5.64.75 1.14.75.52 0 .907-.25 1.157-.75.258-.5.39-1.25.39-2.25s-.132-1.75-.39-2.25c-.25-.5-.637-.75-1.156-.75zm0-.782c.82 0 1.445.324 1.875.969.437.648.656 1.586.656 2.812 0 1.23-.219 2.168-.656 2.813-.43.648-1.055.969-1.875.969-.813 0-1.438-.32-1.875-.97-.43-.644-.64-1.581-.64-2.812 0-1.226.21-2.164.64-2.812.437-.645 1.062-.969 1.875-.969zm0 0"/></symbol><symbol overflow="visible" id="k"><path d="M3.781-6.438L1.297-2.546H3.78zm-.265-.859h1.25v4.75h1.03v.828h-1.03V0H3.78v-1.719H.484v-.953zm0 0"/></symbol><symbol overflow="visible" id="l"><path d="M3.297-4.031c-.438 0-.79.152-1.047.453-.262.305-.39.715-.39 1.234 0 .531.128.95.39 1.25.258.305.61.453 1.047.453.445 0 .797-.148 1.047-.453.258-.3.39-.718.39-1.25 0-.52-.132-.93-.39-1.234-.25-.3-.602-.453-1.047-.453zm1.969-3.094v.89A4.341 4.341 0 0 0 4.5-6.5a3.03 3.03 0 0 0-.734-.094c-.657 0-1.157.219-1.5.657-.344.437-.54 1.105-.579 2 .188-.282.426-.493.72-.641.288-.156.609-.234.952-.234.727 0 1.305.226 1.735.671.426.438.64 1.04.64 1.797 0 .75-.226 1.356-.671 1.813-.438.449-1.028.672-1.766.672-.844 0-1.492-.32-1.938-.97C.922-1.472.703-2.41.703-3.64c0-1.144.27-2.062.813-2.75.55-.687 1.285-1.03 2.203-1.03.25 0 .5.026.75.077.25.043.515.117.797.219zm0 0"/></symbol><symbol overflow="visible" id="m"><path d="M3.172-3.469c-.469 0-.84.133-1.11.39-.261.25-.39.595-.39 1.032 0 .438.129.781.39 1.031.27.25.641.375 1.11.375.469 0 .836-.125 1.11-.375.269-.25.405-.593.405-1.03 0-.438-.136-.782-.406-1.032-.261-.258-.633-.39-1.11-.39zm-.985-.406c-.417-.102-.746-.3-.984-.594-.242-.289-.36-.644-.36-1.062 0-.582.208-1.04.626-1.375.414-.344.984-.516 1.703-.516.726 0 1.3.172 1.719.516.414.336.625.793.625 1.375 0 .418-.121.773-.36 1.062-.242.293-.57.492-.984.594.476.105.848.32 1.11.64.257.325.39.72.39 1.188 0 .711-.215 1.25-.64 1.625-.43.375-1.048.563-1.86.563-.805 0-1.422-.188-1.86-.563-.43-.375-.64-.914-.64-1.625 0-.469.133-.863.406-1.187.27-.32.64-.536 1.11-.641zm-.359-1.563c0 .375.117.672.36.891.238.211.566.313.984.313.426 0 .758-.102 1-.313.238-.219.36-.516.36-.89 0-.375-.122-.665-.36-.875-.242-.22-.574-.329-1-.329-.418 0-.746.11-.985.329-.242.21-.359.5-.359.875zm0 0"/></symbol><clipPath id="a"><path d="M28.688 46h405.828v201H28.687zm0 0"/></clipPath><clipPath id="b"><path d="M28.688 98h405.828v151H28.687zm0 0"/></clipPath><clipPath id="c"><path d="M28.688 78h405.828v121H28.687zm0 0"/></clipPath><clipPath id="d"><path d="M28.688 94h405.828v114H28.687zm0 0"/></clipPath><clipPath id="e"><path d="M28.688 126h405.828v96H28.687zm0 0"/></clipPath></defs><path d="M18.203 3.648v252.54M99.367 3.648v252.54M180.531 3.648v252.54M261.7 3.648v252.54M342.863 3.648v252.54M424.031 3.648v252.54M18.203 256.187h405.828M18.203 220.11h405.828M18.203 184.035h405.828M18.203 147.957h405.828M18.203 111.879h405.828M18.203 75.8h405.828M18.203 39.727h405.828M18.203 3.648h405.828" fill="none" stroke="#d1d1d1" stroke-miterlimit="10" stroke-dasharray="5,5"/><g clip-path="url(#a)" transform="translate(-10.484 -12.172)"><path d="M28.687 205.05l4.06-2.862 4.058-3.344 4.058-3.578 4.055-3.676 4.059-3.52 4.058-3.156 4.059-2.598 4.058-1.695 4.059-1.047 4.059-.187 4.058.883 4.059 1.437 4.058 2.156 4.059 2.399 4.058 2.539 4.055 2.3 4.059 1.958 4.058 1.27 4.059.347 4.059-.688 4.058-1.793 4.059-2.925 4.058-4.012 4.059-5.086 4.059-6.129 4.058-6.848 4.059-7.476 4.054-8.149 4.059-8.582 4.059-8.93 4.058-9.238 4.059-9.425 4.058-9.477 4.059-9.508 4.059-9.254 4.058-8.926 4.059-8.3 4.058-7.399 4.059-6.285 4.055-4.84 4.058-3.023 4.059-1.172 4.058.738 4.059 2.832 4.059 4.735 4.058 6.453 4.059 7.804 4.058 8.758 4.059 9.446 4.059 9.668 4.058 9.613 4.059 9.297 4.054 8.633 4.059 7.882 4.059 7.094 4.058 6.45 4.059 5.792 4.058 5.278 4.059 5.078 4.059 4.718 4.058 4.532 4.059 4.453 4.058 4.496 4.059 4.348 4.055 4.015 4.058 3.969 4.059 3.512 4.058 3.218 4.059 2.665 4.059 2.109 4.058 1.656 4.059 1.074 4.058.485 4.059.09 4.059-.36 4.058-.91 4.055-1.168 4.058-1.36 4.06-1.577 4.058-1.66 4.058-1.626 4.059-1.464 4.058-1.188 4.059-.852 4.059-.289 4.058.176 4.059.969 4.058 1.648 4.059 2.356 4.055 3.031 4.058 3.723 4.059 4.238 4.058 4.637 4.06 4.883 4.058 4.914 4.058 4.793 4.059 4.558 4.058 4.184 4.059 3.605 4.059 2.992" fill="none" stroke="#00f" stroke-linecap="round" stroke-linejoin="round" stroke-miterlimit="10"/></g><g clip-path="url(#b)" transform="translate(-10.484 -12.172)"><path d="M28.687 170.016l4.06-.543 4.058-1.266 4.058-1.957 4.055-2.457 4.059-2.664 4.058-2.613 4.059-2.442 4.058-1.832 4.059-1.297 4.059-.629 4.058.036 4.059.57 4.058 1.02 4.059 1.156 4.058 1.16 4.055.62 4.059.083 4.058-.715 4.059-1.734 4.059-2.598 4.058-3.617 4.059-4.527 4.058-5.207 4.059-5.704 4.059-5.996 4.058-5.992 4.059-5.617 4.054-5.047 4.059-4.48 4.059-3.364 4.058-2.234 4.059-1.106 4.058-.007 4.059 1.3 4.059 2.391 4.058 3.219 4.059 4.086 4.058 4.453 4.059 4.848 4.055 4.828 4.058 4.648 4.059 4.477 4.058 3.859 4.059 3.246 4.059 2.66 4.058 1.883 4.059 1.277 4.058.704 4.059.183 4.059-.125 4.058-.332 4.059-.547 4.054-.414 4.059-.207 4.059.137 4.058.55 4.059 1.157 4.058 1.992 4.059 2.633 4.059 3.457 4.058 4.379 4.059 5.062 4.058 5.801 4.059 6.406 4.055 6.871 4.058 7.223 4.059 7.352 4.058 7.394 4.059 7.242 4.059 6.84 4.058 6.367 4.059 5.72 4.058 4.956 4.059 4.176 4.059 3.246 4.058 2.297 4.055 1.273 4.058.266 4.06-.77 4.058-1.835 4.058-2.715 4.059-3.54 4.058-4.421 4.059-4.856 4.059-5.425 4.058-5.54 4.059-5.671 4.058-5.54 4.059-5.324 4.055-4.789 4.058-4.344 4.059-3.851 4.058-3.285 4.06-2.758 4.058-2.32 4.058-1.942 4.059-1.699 4.058-1.578 4.059-1.445 4.059-1.418" fill="none" stroke="#00f" stroke-linecap="round" stroke-linejoin="round" stroke-miterlimit="10"/></g><g clip-path="url(#c)" transform="translate(-10.484 -12.172)"><path d="M28.687 167.27l4.06 4 4.058 3.91 4.058 3.726 4.055 3.469 4.059 3.305 4.058 3.097 4.059 2.707 4.058 2.504 4.059 1.989 4.059 1.394 4.058.762 4.059.008 4.058-.719 4.059-1.684 4.058-2.562 4.055-3.418 4.059-4.371 4.058-4.95 4.059-5.6 4.059-5.766 4.058-6 4.059-5.711 4.058-5.247 4.059-4.738 4.059-3.887 4.058-2.976 4.059-2.059 4.054-1.027 4.059-.137 4.059.692 4.058 1.52 4.059 2.015 4.058 2.46 4.059 2.759 4.059 2.996 4.058 2.933 4.059 2.797 4.058 2.504 4.059 2.297 4.055 1.691 4.058 1.23 4.059.462 4.058-.223 4.059-1.078 4.059-1.844 4.058-2.5 4.059-3.11 4.058-3.628 4.059-3.934 4.059-3.886 4.058-3.938 4.059-3.707 4.054-3.121 4.059-2.723 4.059-2.117 4.058-1.562 4.059-.993 4.058-.835 4.059-.672 4.059-.735 4.058-1.156 4.059-1.383 4.058-2.133 4.059-2.695 4.055-3.383 4.058-3.86 4.059-4.366 4.058-4.47 4.059-4.647 4.059-4.317 4.058-3.918 4.059-3.234 4.058-2.426L329 79.582l4.059-.422 4.058.703 4.055 1.72 4.058 2.683 4.06 3.777 4.058 4.578 4.058 5.332 4.059 5.973 4.058 6.547 4.059 7.058 4.059 7.364 4.058 7.422 4.059 7.761 4.058 7.434 4.059 7.094 4.055 6.668 4.058 6.004 4.059 5.046 4.058 4.106 4.06 3.027 4.058 1.899 4.058.808 4.059-.156 4.058-.957 4.059-1.613 4.059-2.094" fill="none" stroke="#00f" stroke-linecap="round" stroke-linejoin="round" stroke-miterlimit="10"/></g><g clip-path="url(#d)" transform="translate(-10.484 -12.172)"><path d="M28.687 170.809l4.06-1.336 4.058-1.57 4.058-1.977 4.055-2.235 4.059-2.257 4.058-2.743 4.059-2.859 4.058-2.758 4.059-2.726 4.059-2.504 4.058-2.168 4.059-1.703 4.058-1.141 4.059-.64 4.058-.036 4.055.574 4.059.98 4.058 1.446 4.059 1.77 4.059 1.789 4.058 1.847 4.059 1.497 4.058 1.07 4.059.422 4.059-.266 4.058-1.246 4.059-2.187 4.054-3.02 4.059-4.07 4.059-4.664 4.058-5.204 4.059-5.601 4.058-5.668 4.059-5.484 4.059-5.13 4.058-4.624 4.059-3.907 4.058-3.171 4.059-2.274 4.055-1.484 4.058-.75 4.059-.004 4.058.55 4.059 1.231 4.059 1.484 4.058 1.758 4.059 1.946 4.058 2.136 4.059 2.106 4.059 2.054 4.058 2.04 4.059 2.07 4.054 1.972 4.059 2.07 4.059 2.208 4.058 2.45 4.059 2.855 4.058 3.21 4.059 3.672 4.059 4.48 4.058 4.778 4.059 5.527 4.058 5.895 4.059 6.367 4.055 6.551 4.058 6.605 4.059 6.477 4.058 6.113 4.059 5.766 4.059 4.93 4.058 4.254 4.059 3.316 4.058 2.543 4.059 1.601 4.059 1.028 4.058.398 4.055-.008 4.058-.215 4.06-.351 4.058-.344 4.058-.144 4.059-.125 4.058.027 4.059-.031 4.059-.055 4.058-.23 4.059-.563 4.058-.898 4.059-1.184 4.055-1.527 4.058-1.711 4.059-1.801 4.058-1.734 4.06-1.512 4.058-1.281 4.058-.575 4.059-.129 4.058.38 4.059 1.195 4.059 1.68" fill="none" stroke="#00f" stroke-linecap="round" stroke-linejoin="round" stroke-miterlimit="10"/></g><g clip-path="url(#e)" transform="translate(-10.484 -12.172)"><path d="M28.687 130.371l4.06-.683 4.058-.743 4.058-.539 4.055-.37 4.059-.411 4.058-.168h4.059l4.058.059 4.059.3 4.059.297 4.058.356 4.059.36 4.058.413 4.059.235 4.058.16 4.055.05 4.059-.011 4.058.004 4.059-.043 4.059-.008 4.058.219 4.059.308 4.058.715 4.059.863 4.059 1.336 4.058 1.547 4.059 1.824 4.054 2.063 4.059 2.312 4.059 2.516 4.058 2.484 4.059 2.45 4.058 2.488 4.059 2.43 4.059 2.566 4.058 2.344 4.059 2.328 4.058 2.144 4.059 2.028 4.055 1.87 4.058 1.434 4.059 1.016 4.058.523 4.059.055 4.059-.508 4.058-1.093 4.059-1.5 4.058-1.848 4.059-1.902 4.059-1.907 4.058-1.77 4.059-1.378 4.054-.977 4.059-.527 4.059-.055 4.058.2 8.117.804 4.059.113 4.059-.351 4.058-.84 4.059-1.57 4.058-2.067 4.059-2.574 4.055-3.012 4.058-3.023 4.059-2.941 4.058-2.536 4.059-1.722 4.059-.856 4.058.246 4.059 1.387 4.058 2.606 4.059 3.843 4.059 4.86 4.058 5.785 4.055 6.586 4.058 7.101 4.06 7.387 4.058 7.43 4.058 7.265 4.059 6.989 4.058 6.304 4.059 5.567 4.059 4.558 4.058 3.614 4.059 2.43 4.058 1.214 4.059-.023 4.055-1.219 4.058-2.367 4.059-3.387 4.058-4.363 4.06-5.113 4.058-5.641 4.058-6.23 4.059-6.489 4.058-6.469 4.059-6.66 4.059-6.468" fill="none" stroke="#00f" stroke-linecap="round" stroke-linejoin="round" stroke-miterlimit="10"/></g><path d="M18.203 256.187V3.648" fill="none" stroke="#000" stroke-linecap="square" stroke-miterlimit="10"/><path d="M18.203 256.187h2M18.203 248.973h2M18.203 241.758h2M18.203 234.543h2M18.203 227.324h2M18.203 220.11h2M18.203 212.895h2M18.203 205.68h2M18.203 198.465h2M18.203 191.25h2M18.203 184.035h2M18.203 176.816h2M18.203 169.602h2M18.203 162.387h2M18.203 155.172h2M18.203 147.957h2M18.203 140.742h2M18.203 133.527h2M18.203 126.309h2M18.203 119.094h2M18.203 111.879h2M18.203 104.664h2M18.203 97.45h2M18.203 90.234h2M18.203 83.02h2M18.203 75.8h2M18.203 68.586h2M18.203 61.371h2M18.203 54.156h2M18.203 46.941h2M18.203 39.727h2M18.203 32.512h2M18.203 25.293h2M18.203 18.078h2M18.203 10.863h2M18.203 3.648h2M18.203 256.187h5M18.203 220.11h5M18.203 184.035h5M18.203 147.957h5M18.203 111.879h5M18.203 75.8h5M18.203 39.727h5M18.203 3.648h5" fill="none" stroke="#000" stroke-miterlimit="10"/><g transform="translate(-10.484 -12.172)"><use height="100%" width="100%" y="272.07" x="10" xlink:href="#f"/><use height="100%" width="100%" y="272.07" x="13.608" xlink:href="#g"/></g><g transform="translate(-10.484 -12.172)"><use height="100%" width="100%" y="235.992" x="10.203" xlink:href="#f"/><use height="100%" width="100%" y="235.992" x="13.812" xlink:href="#h"/></g><g transform="translate(-10.484 -12.172)"><use height="100%" width="100%" y="199.855" x="10.125" xlink:href="#f"/><use height="100%" width="100%" y="199.855" x="13.733" xlink:href="#i"/></g><use height="100%" width="100%" y="163.84" x="13.641" xlink:href="#j" transform="translate(-10.484 -12.172)"/><use height="100%" width="100%" y="127.699" x="14.344" xlink:href="#i" transform="translate(-10.484 -12.172)"/><use height="100%" width="100%" y="91.684" x="14.063" xlink:href="#h" transform="translate(-10.484 -12.172)"/><use height="100%" width="100%" y="55.609" x="13.891" xlink:href="#g" transform="translate(-10.484 -12.172)"/><use height="100%" width="100%" y="19.469" x="13.375" xlink:href="#k" transform="translate(-10.484 -12.172)"/><path d="M18.203 256.187h405.828" fill="none" stroke="#000" stroke-linecap="square" stroke-miterlimit="10"/><path d="M18.203 256.187v-2M26.32 256.187v-2M34.434 256.187v-2M42.55 256.187v-2M50.668 256.187v-2M58.785 256.187v-2M66.902 256.187v-2M75.02 256.187v-2M83.133 256.187v-2M91.25 256.187v-2M99.367 256.187v-2M107.484 256.187v-2M115.602 256.187v-2M123.719 256.187v-2M131.832 256.187v-2M139.95 256.187v-2M148.066 256.187v-2M156.184 256.187v-2M164.3 256.187v-2M172.418 256.187v-2M180.531 256.187v-2M188.648 256.187v-2M196.766 256.187v-2M204.883 256.187v-2M213 256.187v-2M221.117 256.187v-2M229.234 256.187v-2M237.348 256.187v-2M245.465 256.187v-2M253.582 256.187v-2M261.7 256.187v-2M269.816 256.187v-2M277.934 256.187v-2M286.047 256.187v-2M294.164 256.187v-2M302.281 256.187v-2M310.398 256.187v-2M318.516 256.187v-2M326.633 256.187v-2M334.746 256.187v-2M342.863 256.187v-2M350.98 256.187v-2M359.098 256.187v-2M367.215 256.187v-2M375.332 256.187v-2M383.445 256.187v-2M391.563 256.187v-2M399.68 256.187v-2M407.797 256.187v-2M415.914 256.187v-2M424.031 256.187v-2M18.203 256.187v-5M99.367 256.187v-5M180.531 256.187v-5M261.7 256.187v-5M342.863 256.187v-5M424.031 256.187v-5" fill="none" stroke="#000" stroke-miterlimit="10"/><use height="100%" width="100%" y="287.641" x="26.164" xlink:href="#j" transform="translate(-10.484 -12.172)"/><use height="100%" width="100%" y="287.641" x="107.539" xlink:href="#h" transform="translate(-10.484 -12.172)"/><use height="100%" width="100%" y="287.641" x="188.359" xlink:href="#k" transform="translate(-10.484 -12.172)"/><use height="100%" width="100%" y="287.641" x="269.668" xlink:href="#l" transform="translate(-10.484 -12.172)"/><use height="100%" width="100%" y="287.641" x="350.848" xlink:href="#m" transform="translate(-10.484 -12.172)"/><g transform="translate(-10.484 -12.172)"><use height="100%" width="100%" y="287.641" x="429.027" xlink:href="#i"/><use height="100%" width="100%" y="287.641" x="435.39" xlink:href="#j"/></g></svg>